M48
METRIC,LZ,000.000
;FILE_FORMAT=3:3
;TYPE=PLATED
;Layer: Drill PTH
;EasyEDA v6.4.25, 2021-11-05T19:22:01+05:30
;61bcb772547544e299bc8c975d1ae397,5cb069c284564e3e9aa1642b0c72b42d,10
;Gerber Generator version 0.2
;Holesize 1 = 0.889 mm
T01C0.889
;Holesize 2 = 0.900 mm
T02C0.900
;Holesize 3 = 0.915 mm
T03C0.915
;Holesize 4 = 1.016 mm
T04C1.016
%
G05
G90
T01
X115570Y027940
X115570Y025400
X115570Y022860
X115570Y020320
X115570Y030480
X049530Y-001270
X046990Y-001270
X049530Y001270
X046990Y001270
X049530Y003810
X046990Y003810
X049530Y-003810
X046990Y-003810
T02
X114300Y-041910
X114300Y-031750
X114300Y-029210
X114300Y-019050
X119380Y-041910
X119380Y-031750
X119380Y-029210
X119380Y-019050
X124460Y-041910
X124460Y-031750
X124460Y-029210
X124460Y-019050
T03
X124460Y000000
X121920Y000000
X113030Y000000
X115570Y000000
X049530Y029210
X049530Y026670
X049530Y024130
X049530Y021590
X114300Y-045720
X116840Y-045720
X119380Y-045720
X121920Y-045720
X082550Y043180
X080010Y043180
X077470Y043180
X082550Y039370
X080010Y039370
X077470Y039370
X119380Y000000
X119380Y-002540
X119380Y-005080
X119380Y-007620
X119380Y-010160
X119380Y-012700
T04
X106680Y-002540
X106680Y000000
X106680Y002540
X106680Y005080
X106680Y007620
X106680Y010414
X106680Y015494
X106680Y018034
X106680Y020574
X106680Y023114
X106680Y025654
X106680Y028194
X058420Y028194
X058420Y025654
X058420Y023114
X058420Y020574
X058420Y018034
X058420Y015494
X058420Y012954
X058420Y010414
X058420Y006350
X058420Y003810
X058420Y001270
X058420Y-001270
X058420Y-003810
X058420Y-006350
X058420Y-008890
X058420Y-011430
X058420Y-013970
X058420Y-016510
X106680Y-005080
X106680Y-007620
M30
