G04 Layer: TopSilkLayer*
G04 EasyEDA v6.4.25, 2021-11-05T19:22:01+05:30*
G04 61bcb772547544e299bc8c975d1ae397,5cb069c284564e3e9aa1642b0c72b42d,10*
G04 Gerber Generator version 0.2*
G04 Scale: 100 percent, Rotated: No, Reflected: No *
G04 Dimensions in millimeters *
G04 leading zeros omitted , absolute positions ,4 integer and 5 decimal *
%FSLAX45Y45*%
%MOMM*%

%ADD10C,0.2540*%
%ADD15C,0.1524*%
%ADD16C,0.2032*%
%ADD17C,0.2030*%

%LPD*%
D16*
X4826000Y-4450842D02*
G01*
X4826000Y-4565395D01*
X4826000Y-4450842D02*
G01*
X4864100Y-4450842D01*
X4880609Y-4456429D01*
X4891531Y-4467352D01*
X4896865Y-4478273D01*
X4902454Y-4494529D01*
X4902454Y-4521707D01*
X4896865Y-4538218D01*
X4891531Y-4549139D01*
X4880609Y-4560062D01*
X4864100Y-4565395D01*
X4826000Y-4565395D01*
X4938268Y-4521707D02*
G01*
X5003800Y-4521707D01*
X5003800Y-4510786D01*
X4998465Y-4500118D01*
X4992877Y-4494529D01*
X4981956Y-4489195D01*
X4965700Y-4489195D01*
X4954777Y-4494529D01*
X4943856Y-4505452D01*
X4938268Y-4521707D01*
X4938268Y-4532629D01*
X4943856Y-4549139D01*
X4954777Y-4560062D01*
X4965700Y-4565395D01*
X4981956Y-4565395D01*
X4992877Y-4560062D01*
X5003800Y-4549139D01*
X5039868Y-4489195D02*
G01*
X5072634Y-4565395D01*
X5105145Y-4489195D02*
G01*
X5072634Y-4565395D01*
X5141213Y-4521707D02*
G01*
X5206745Y-4521707D01*
X5206745Y-4510786D01*
X5201158Y-4500118D01*
X5195824Y-4494529D01*
X5184902Y-4489195D01*
X5168645Y-4489195D01*
X5157724Y-4494529D01*
X5146802Y-4505452D01*
X5141213Y-4521707D01*
X5141213Y-4532629D01*
X5146802Y-4549139D01*
X5157724Y-4560062D01*
X5168645Y-4565395D01*
X5184902Y-4565395D01*
X5195824Y-4560062D01*
X5206745Y-4549139D01*
X5242813Y-4450842D02*
G01*
X5242813Y-4565395D01*
X5306059Y-4489195D02*
G01*
X5295138Y-4494529D01*
X5284215Y-4505452D01*
X5278627Y-4521707D01*
X5278627Y-4532629D01*
X5284215Y-4549139D01*
X5295138Y-4560062D01*
X5306059Y-4565395D01*
X5322315Y-4565395D01*
X5333238Y-4560062D01*
X5344159Y-4549139D01*
X5349747Y-4532629D01*
X5349747Y-4521707D01*
X5344159Y-4505452D01*
X5333238Y-4494529D01*
X5322315Y-4489195D01*
X5306059Y-4489195D01*
X5385561Y-4489195D02*
G01*
X5385561Y-4603750D01*
X5385561Y-4505452D02*
G01*
X5396484Y-4494529D01*
X5407406Y-4489195D01*
X5423915Y-4489195D01*
X5434838Y-4494529D01*
X5445759Y-4505452D01*
X5451093Y-4521707D01*
X5451093Y-4532629D01*
X5445759Y-4549139D01*
X5434838Y-4560062D01*
X5423915Y-4565395D01*
X5407406Y-4565395D01*
X5396484Y-4560062D01*
X5385561Y-4549139D01*
X5487161Y-4521707D02*
G01*
X5552440Y-4521707D01*
X5552440Y-4510786D01*
X5547106Y-4500118D01*
X5541518Y-4494529D01*
X5530850Y-4489195D01*
X5514340Y-4489195D01*
X5503418Y-4494529D01*
X5492495Y-4505452D01*
X5487161Y-4521707D01*
X5487161Y-4532629D01*
X5492495Y-4549139D01*
X5503418Y-4560062D01*
X5514340Y-4565395D01*
X5530850Y-4565395D01*
X5541518Y-4560062D01*
X5552440Y-4549139D01*
X5654040Y-4450842D02*
G01*
X5654040Y-4565395D01*
X5654040Y-4505452D02*
G01*
X5643118Y-4494529D01*
X5632195Y-4489195D01*
X5615940Y-4489195D01*
X5605018Y-4494529D01*
X5594095Y-4505452D01*
X5588508Y-4521707D01*
X5588508Y-4532629D01*
X5594095Y-4549139D01*
X5605018Y-4560062D01*
X5615940Y-4565395D01*
X5632195Y-4565395D01*
X5643118Y-4560062D01*
X5654040Y-4549139D01*
X5773927Y-4450842D02*
G01*
X5773927Y-4565395D01*
X5773927Y-4505452D02*
G01*
X5784850Y-4494529D01*
X5795772Y-4489195D01*
X5812281Y-4489195D01*
X5823204Y-4494529D01*
X5834125Y-4505452D01*
X5839459Y-4521707D01*
X5839459Y-4532629D01*
X5834125Y-4549139D01*
X5823204Y-4560062D01*
X5812281Y-4565395D01*
X5795772Y-4565395D01*
X5784850Y-4560062D01*
X5773927Y-4549139D01*
X5880861Y-4489195D02*
G01*
X5913627Y-4565395D01*
X5946393Y-4489195D02*
G01*
X5913627Y-4565395D01*
X5902706Y-4587239D01*
X5891784Y-4598162D01*
X5880861Y-4603750D01*
X5875527Y-4603750D01*
X6066281Y-4450842D02*
G01*
X6066281Y-4565395D01*
X6142736Y-4450842D02*
G01*
X6066281Y-4527295D01*
X6093713Y-4500118D02*
G01*
X6142736Y-4565395D01*
X6205981Y-4489195D02*
G01*
X6195059Y-4494529D01*
X6184138Y-4505452D01*
X6178804Y-4521707D01*
X6178804Y-4532629D01*
X6184138Y-4549139D01*
X6195059Y-4560062D01*
X6205981Y-4565395D01*
X6222238Y-4565395D01*
X6233159Y-4560062D01*
X6244081Y-4549139D01*
X6249670Y-4532629D01*
X6249670Y-4521707D01*
X6244081Y-4505452D01*
X6233159Y-4494529D01*
X6222238Y-4489195D01*
X6205981Y-4489195D01*
X6285738Y-4489195D02*
G01*
X6285738Y-4543552D01*
X6291072Y-4560062D01*
X6301993Y-4565395D01*
X6318250Y-4565395D01*
X6329172Y-4560062D01*
X6345681Y-4543552D01*
X6345681Y-4489195D02*
G01*
X6345681Y-4565395D01*
X6441693Y-4505452D02*
G01*
X6436106Y-4494529D01*
X6419850Y-4489195D01*
X6403340Y-4489195D01*
X6387084Y-4494529D01*
X6381750Y-4505452D01*
X6387084Y-4516373D01*
X6398006Y-4521707D01*
X6425184Y-4527295D01*
X6436106Y-4532629D01*
X6441693Y-4543552D01*
X6441693Y-4549139D01*
X6436106Y-4560062D01*
X6419850Y-4565395D01*
X6403340Y-4565395D01*
X6387084Y-4560062D01*
X6381750Y-4549139D01*
X6477761Y-4450842D02*
G01*
X6477761Y-4565395D01*
X6477761Y-4510786D02*
G01*
X6494018Y-4494529D01*
X6504940Y-4489195D01*
X6521195Y-4489195D01*
X6532118Y-4494529D01*
X6537706Y-4510786D01*
X6537706Y-4565395D01*
X6573520Y-4521707D02*
G01*
X6639052Y-4521707D01*
X6639052Y-4510786D01*
X6633718Y-4500118D01*
X6628129Y-4494529D01*
X6617208Y-4489195D01*
X6600952Y-4489195D01*
X6590029Y-4494529D01*
X6579108Y-4505452D01*
X6573520Y-4521707D01*
X6573520Y-4532629D01*
X6579108Y-4549139D01*
X6590029Y-4560062D01*
X6600952Y-4565395D01*
X6617208Y-4565395D01*
X6628129Y-4560062D01*
X6639052Y-4549139D01*
X6675120Y-4521707D02*
G01*
X6740652Y-4521707D01*
X6740652Y-4510786D01*
X6735063Y-4500118D01*
X6729729Y-4494529D01*
X6718808Y-4489195D01*
X6702297Y-4489195D01*
X6691375Y-4494529D01*
X6680454Y-4505452D01*
X6675120Y-4521707D01*
X6675120Y-4532629D01*
X6680454Y-4549139D01*
X6691375Y-4560062D01*
X6702297Y-4565395D01*
X6718808Y-4565395D01*
X6729729Y-4560062D01*
X6740652Y-4549139D01*
X6776465Y-4450842D02*
G01*
X6776465Y-4565395D01*
X6831075Y-4489195D02*
G01*
X6776465Y-4543552D01*
X6798309Y-4521707D02*
G01*
X6836663Y-4565395D01*
X7038340Y-4478273D02*
G01*
X7033006Y-4467352D01*
X7022084Y-4456429D01*
X7011161Y-4450842D01*
X6989318Y-4450842D01*
X6978395Y-4456429D01*
X6967474Y-4467352D01*
X6961886Y-4478273D01*
X6956552Y-4494529D01*
X6956552Y-4521707D01*
X6961886Y-4538218D01*
X6967474Y-4549139D01*
X6978395Y-4560062D01*
X6989318Y-4565395D01*
X7011161Y-4565395D01*
X7022084Y-4560062D01*
X7033006Y-4549139D01*
X7038340Y-4538218D01*
X7079741Y-4538218D02*
G01*
X7074408Y-4543552D01*
X7079741Y-4549139D01*
X7085329Y-4543552D01*
X7079741Y-4538218D01*
X4826000Y-4136389D02*
G01*
X4826000Y-4308094D01*
X4826000Y-4308094D02*
G01*
X4924297Y-4308094D01*
X5019040Y-4193539D02*
G01*
X5002784Y-4201921D01*
X4986274Y-4218178D01*
X4978145Y-4242815D01*
X4978145Y-4259071D01*
X4986274Y-4283710D01*
X5002784Y-4299965D01*
X5019040Y-4308094D01*
X5043677Y-4308094D01*
X5059934Y-4299965D01*
X5076443Y-4283710D01*
X5084572Y-4259071D01*
X5084572Y-4242815D01*
X5076443Y-4218178D01*
X5059934Y-4201921D01*
X5043677Y-4193539D01*
X5019040Y-4193539D01*
X5138420Y-4193539D02*
G01*
X5138420Y-4308094D01*
X5138420Y-4226305D02*
G01*
X5163058Y-4201921D01*
X5179568Y-4193539D01*
X5203952Y-4193539D01*
X5220461Y-4201921D01*
X5228590Y-4226305D01*
X5228590Y-4308094D01*
X5380736Y-4193539D02*
G01*
X5380736Y-4324604D01*
X5372608Y-4348987D01*
X5364479Y-4357370D01*
X5347970Y-4365497D01*
X5323331Y-4365497D01*
X5307075Y-4357370D01*
X5380736Y-4218178D02*
G01*
X5364479Y-4201921D01*
X5347970Y-4193539D01*
X5323331Y-4193539D01*
X5307075Y-4201921D01*
X5290820Y-4218178D01*
X5282438Y-4242815D01*
X5282438Y-4259071D01*
X5290820Y-4283710D01*
X5307075Y-4299965D01*
X5323331Y-4308094D01*
X5347970Y-4308094D01*
X5364479Y-4299965D01*
X5380736Y-4283710D01*
X5560822Y-4136389D02*
G01*
X5560822Y-4308094D01*
X5560822Y-4136389D02*
G01*
X5634481Y-4136389D01*
X5658865Y-4144518D01*
X5666993Y-4152645D01*
X5675375Y-4169155D01*
X5675375Y-4185412D01*
X5666993Y-4201921D01*
X5658865Y-4210050D01*
X5634481Y-4218178D01*
X5560822Y-4218178D01*
X5617972Y-4218178D02*
G01*
X5675375Y-4308094D01*
X5827522Y-4193539D02*
G01*
X5827522Y-4308094D01*
X5827522Y-4218178D02*
G01*
X5811011Y-4201921D01*
X5794756Y-4193539D01*
X5770118Y-4193539D01*
X5753861Y-4201921D01*
X5737352Y-4218178D01*
X5729224Y-4242815D01*
X5729224Y-4259071D01*
X5737352Y-4283710D01*
X5753861Y-4299965D01*
X5770118Y-4308094D01*
X5794756Y-4308094D01*
X5811011Y-4299965D01*
X5827522Y-4283710D01*
X5881370Y-4193539D02*
G01*
X5881370Y-4308094D01*
X5881370Y-4226305D02*
G01*
X5906008Y-4201921D01*
X5922263Y-4193539D01*
X5946902Y-4193539D01*
X5963158Y-4201921D01*
X5971540Y-4226305D01*
X5971540Y-4308094D01*
X6123686Y-4193539D02*
G01*
X6123686Y-4324604D01*
X6115558Y-4348987D01*
X6107175Y-4357370D01*
X6090920Y-4365497D01*
X6066281Y-4365497D01*
X6050025Y-4357370D01*
X6123686Y-4218178D02*
G01*
X6107175Y-4201921D01*
X6090920Y-4193539D01*
X6066281Y-4193539D01*
X6050025Y-4201921D01*
X6033515Y-4218178D01*
X6025388Y-4242815D01*
X6025388Y-4259071D01*
X6033515Y-4283710D01*
X6050025Y-4299965D01*
X6066281Y-4308094D01*
X6090920Y-4308094D01*
X6107175Y-4299965D01*
X6123686Y-4283710D01*
X6177534Y-4242815D02*
G01*
X6275831Y-4242815D01*
X6275831Y-4226305D01*
X6267704Y-4210050D01*
X6259575Y-4201921D01*
X6243065Y-4193539D01*
X6218427Y-4193539D01*
X6202172Y-4201921D01*
X6185915Y-4218178D01*
X6177534Y-4242815D01*
X6177534Y-4259071D01*
X6185915Y-4283710D01*
X6202172Y-4299965D01*
X6218427Y-4308094D01*
X6243065Y-4308094D01*
X6259575Y-4299965D01*
X6275831Y-4283710D01*
X6521195Y-4136389D02*
G01*
X6455918Y-4308094D01*
X6521195Y-4136389D02*
G01*
X6586727Y-4308094D01*
X6480302Y-4250944D02*
G01*
X6562090Y-4250944D01*
X6640829Y-4193539D02*
G01*
X6640829Y-4275328D01*
X6648958Y-4299965D01*
X6665213Y-4308094D01*
X6689852Y-4308094D01*
X6706108Y-4299965D01*
X6730745Y-4275328D01*
X6730745Y-4193539D02*
G01*
X6730745Y-4308094D01*
X6809231Y-4136389D02*
G01*
X6809231Y-4275328D01*
X6817359Y-4299965D01*
X6833870Y-4308094D01*
X6850125Y-4308094D01*
X6784847Y-4193539D02*
G01*
X6841997Y-4193539D01*
X6945122Y-4193539D02*
G01*
X6928611Y-4201921D01*
X6912356Y-4218178D01*
X6904227Y-4242815D01*
X6904227Y-4259071D01*
X6912356Y-4283710D01*
X6928611Y-4299965D01*
X6945122Y-4308094D01*
X6969759Y-4308094D01*
X6986015Y-4299965D01*
X7002272Y-4283710D01*
X7010654Y-4259071D01*
X7010654Y-4242815D01*
X7002272Y-4218178D01*
X6986015Y-4201921D01*
X6969759Y-4193539D01*
X6945122Y-4193539D01*
X7064502Y-4193539D02*
G01*
X7064502Y-4308094D01*
X7064502Y-4226305D02*
G01*
X7089140Y-4201921D01*
X7105395Y-4193539D01*
X7130034Y-4193539D01*
X7146290Y-4201921D01*
X7154672Y-4226305D01*
X7154672Y-4308094D01*
X7249413Y-4193539D02*
G01*
X7233158Y-4201921D01*
X7216647Y-4218178D01*
X7208520Y-4242815D01*
X7208520Y-4259071D01*
X7216647Y-4283710D01*
X7233158Y-4299965D01*
X7249413Y-4308094D01*
X7274052Y-4308094D01*
X7290308Y-4299965D01*
X7306818Y-4283710D01*
X7314945Y-4259071D01*
X7314945Y-4242815D01*
X7306818Y-4218178D01*
X7290308Y-4201921D01*
X7274052Y-4193539D01*
X7249413Y-4193539D01*
X7368793Y-4193539D02*
G01*
X7368793Y-4308094D01*
X7368793Y-4226305D02*
G01*
X7393431Y-4201921D01*
X7409941Y-4193539D01*
X7434325Y-4193539D01*
X7450836Y-4201921D01*
X7458963Y-4226305D01*
X7458963Y-4308094D01*
X7458963Y-4226305D02*
G01*
X7483347Y-4201921D01*
X7499858Y-4193539D01*
X7524241Y-4193539D01*
X7540752Y-4201921D01*
X7548879Y-4226305D01*
X7548879Y-4308094D01*
X7643875Y-4193539D02*
G01*
X7627365Y-4201921D01*
X7611109Y-4218178D01*
X7602981Y-4242815D01*
X7602981Y-4259071D01*
X7611109Y-4283710D01*
X7627365Y-4299965D01*
X7643875Y-4308094D01*
X7668259Y-4308094D01*
X7684770Y-4299965D01*
X7701025Y-4283710D01*
X7709154Y-4259071D01*
X7709154Y-4242815D01*
X7701025Y-4218178D01*
X7684770Y-4201921D01*
X7668259Y-4193539D01*
X7643875Y-4193539D01*
X7763256Y-4193539D02*
G01*
X7763256Y-4275328D01*
X7771384Y-4299965D01*
X7787893Y-4308094D01*
X7812277Y-4308094D01*
X7828788Y-4299965D01*
X7853172Y-4275328D01*
X7853172Y-4193539D02*
G01*
X7853172Y-4308094D01*
X7997190Y-4218178D02*
G01*
X7989061Y-4201921D01*
X7964424Y-4193539D01*
X7940040Y-4193539D01*
X7915402Y-4201921D01*
X7907274Y-4218178D01*
X7915402Y-4234434D01*
X7931911Y-4242815D01*
X7972806Y-4250944D01*
X7989061Y-4259071D01*
X7997190Y-4275328D01*
X7997190Y-4283710D01*
X7989061Y-4299965D01*
X7964424Y-4308094D01*
X7940040Y-4308094D01*
X7915402Y-4299965D01*
X7907274Y-4283710D01*
X8177275Y-4136389D02*
G01*
X8177275Y-4308094D01*
X8177275Y-4136389D02*
G01*
X8250936Y-4136389D01*
X8275574Y-4144518D01*
X8283702Y-4152645D01*
X8291829Y-4169155D01*
X8291829Y-4185412D01*
X8283702Y-4201921D01*
X8275574Y-4210050D01*
X8250936Y-4218178D01*
X8177275Y-4218178D02*
G01*
X8250936Y-4218178D01*
X8275574Y-4226305D01*
X8283702Y-4234434D01*
X8291829Y-4250944D01*
X8291829Y-4275328D01*
X8283702Y-4291837D01*
X8275574Y-4299965D01*
X8250936Y-4308094D01*
X8177275Y-4308094D01*
X8386825Y-4193539D02*
G01*
X8370315Y-4201921D01*
X8354059Y-4218178D01*
X8345931Y-4242815D01*
X8345931Y-4259071D01*
X8354059Y-4283710D01*
X8370315Y-4299965D01*
X8386825Y-4308094D01*
X8411209Y-4308094D01*
X8427720Y-4299965D01*
X8443975Y-4283710D01*
X8452104Y-4259071D01*
X8452104Y-4242815D01*
X8443975Y-4218178D01*
X8427720Y-4201921D01*
X8411209Y-4193539D01*
X8386825Y-4193539D01*
X8604250Y-4193539D02*
G01*
X8604250Y-4308094D01*
X8604250Y-4218178D02*
G01*
X8587993Y-4201921D01*
X8571738Y-4193539D01*
X8547100Y-4193539D01*
X8530843Y-4201921D01*
X8514334Y-4218178D01*
X8506206Y-4242815D01*
X8506206Y-4259071D01*
X8514334Y-4283710D01*
X8530843Y-4299965D01*
X8547100Y-4308094D01*
X8571738Y-4308094D01*
X8587993Y-4299965D01*
X8604250Y-4283710D01*
X8682990Y-4136389D02*
G01*
X8682990Y-4275328D01*
X8691118Y-4299965D01*
X8707374Y-4308094D01*
X8723884Y-4308094D01*
X8658352Y-4193539D02*
G01*
X8715756Y-4193539D01*
X8903715Y-4193539D02*
G01*
X8952991Y-4308094D01*
X9002013Y-4193539D02*
G01*
X8952991Y-4308094D01*
X9056115Y-4169155D02*
G01*
X9072372Y-4161028D01*
X9097009Y-4136389D01*
X9097009Y-4308094D01*
X9158986Y-4267200D02*
G01*
X9150858Y-4275328D01*
X9158986Y-4283710D01*
X9167368Y-4275328D01*
X9158986Y-4267200D01*
X9270238Y-4136389D02*
G01*
X9245854Y-4144518D01*
X9229343Y-4169155D01*
X9221215Y-4210050D01*
X9221215Y-4234434D01*
X9229343Y-4275328D01*
X9245854Y-4299965D01*
X9270238Y-4308094D01*
X9286747Y-4308094D01*
X9311386Y-4299965D01*
X9327641Y-4275328D01*
X9335770Y-4234434D01*
X9335770Y-4210050D01*
X9327641Y-4169155D01*
X9311386Y-4144518D01*
X9286747Y-4136389D01*
X9270238Y-4136389D01*
D15*
X7891678Y815378D02*
G01*
X7850022Y706158D01*
X7891678Y815378D02*
G01*
X7933080Y706158D01*
X7865516Y742480D02*
G01*
X7917586Y742480D01*
X7967370Y815378D02*
G01*
X7967370Y706158D01*
X7967370Y815378D02*
G01*
X8014106Y815378D01*
X8029854Y810044D01*
X8034934Y804964D01*
X8040268Y794550D01*
X8040268Y784136D01*
X8034934Y773722D01*
X8029854Y768642D01*
X8014106Y763308D01*
X7967370Y763308D01*
X8003692Y763308D02*
G01*
X8040268Y706158D01*
X8074558Y815378D02*
G01*
X8074558Y706158D01*
X8074558Y815378D02*
G01*
X8110880Y815378D01*
X8126374Y810044D01*
X8136788Y799630D01*
X8141868Y789470D01*
X8147202Y773722D01*
X8147202Y747814D01*
X8141868Y732320D01*
X8136788Y721906D01*
X8126374Y711492D01*
X8110880Y706158D01*
X8074558Y706158D01*
X8181492Y815378D02*
G01*
X8181492Y737400D01*
X8186572Y721906D01*
X8196986Y711492D01*
X8212734Y706158D01*
X8223148Y706158D01*
X8238642Y711492D01*
X8249056Y721906D01*
X8254136Y737400D01*
X8254136Y815378D01*
X8288426Y815378D02*
G01*
X8288426Y706158D01*
X8322716Y815378D02*
G01*
X8322716Y706158D01*
X8322716Y815378D02*
G01*
X8395614Y706158D01*
X8395614Y815378D02*
G01*
X8395614Y706158D01*
X8460892Y815378D02*
G01*
X8450478Y810044D01*
X8440318Y799630D01*
X8434984Y789470D01*
X8429904Y773722D01*
X8429904Y747814D01*
X8434984Y732320D01*
X8440318Y721906D01*
X8450478Y711492D01*
X8460892Y706158D01*
X8481720Y706158D01*
X8492134Y711492D01*
X8502548Y721906D01*
X8507628Y732320D01*
X8512962Y747814D01*
X8512962Y773722D01*
X8507628Y789470D01*
X8502548Y799630D01*
X8492134Y810044D01*
X8481720Y815378D01*
X8460892Y815378D01*
X8547252Y669836D02*
G01*
X8640724Y669836D01*
X8675014Y815378D02*
G01*
X8675014Y737400D01*
X8680348Y721906D01*
X8690508Y711492D01*
X8706256Y706158D01*
X8716670Y706158D01*
X8732164Y711492D01*
X8742578Y721906D01*
X8747658Y737400D01*
X8747658Y815378D01*
X8781948Y815378D02*
G01*
X8781948Y706158D01*
X8781948Y815378D02*
G01*
X8854846Y706158D01*
X8854846Y815378D02*
G01*
X8854846Y706158D01*
X8920378Y815378D02*
G01*
X8909964Y810044D01*
X8899550Y799630D01*
X8894216Y789470D01*
X8889136Y773722D01*
X8889136Y747814D01*
X8894216Y732320D01*
X8899550Y721906D01*
X8909964Y711492D01*
X8920378Y706158D01*
X8940952Y706158D01*
X8951366Y711492D01*
X8961780Y721906D01*
X8967114Y732320D01*
X8972194Y747814D01*
X8972194Y773722D01*
X8967114Y789470D01*
X8961780Y799630D01*
X8951366Y810044D01*
X8940952Y815378D01*
X8920378Y815378D01*
X11378184Y316229D02*
G01*
X11378184Y264413D01*
X11424920Y259079D01*
X11419840Y264413D01*
X11414506Y279907D01*
X11414506Y295655D01*
X11419840Y311150D01*
X11430000Y321563D01*
X11445747Y326644D01*
X11456161Y326644D01*
X11471656Y321563D01*
X11482070Y311150D01*
X11487150Y295655D01*
X11487150Y279907D01*
X11482070Y264413D01*
X11476990Y259079D01*
X11466575Y254000D01*
X11378184Y360934D02*
G01*
X11487150Y402589D01*
X11378184Y444245D02*
G01*
X11487150Y402589D01*
X11523725Y478536D02*
G01*
X11523725Y572007D01*
X11378184Y658113D02*
G01*
X11461241Y658113D01*
X11476990Y653034D01*
X11482070Y647700D01*
X11487150Y637539D01*
X11487150Y627126D01*
X11482070Y616712D01*
X11476990Y611378D01*
X11461241Y606297D01*
X11450827Y606297D01*
X11378184Y692404D02*
G01*
X11456161Y692404D01*
X11471656Y697737D01*
X11482070Y708152D01*
X11487150Y723645D01*
X11487150Y734060D01*
X11482070Y749554D01*
X11471656Y759968D01*
X11456161Y765302D01*
X11378184Y765302D01*
X11378184Y799592D02*
G01*
X11487150Y799592D01*
X11378184Y799592D02*
G01*
X11487150Y840994D01*
X11378184Y882650D02*
G01*
X11487150Y840994D01*
X11378184Y882650D02*
G01*
X11487150Y882650D01*
X11378184Y916939D02*
G01*
X11487150Y916939D01*
X11378184Y916939D02*
G01*
X11378184Y963676D01*
X11383263Y979170D01*
X11388597Y984504D01*
X11399011Y989584D01*
X11414506Y989584D01*
X11424920Y984504D01*
X11430000Y979170D01*
X11435334Y963676D01*
X11435334Y916939D01*
X11378184Y1023873D02*
G01*
X11487150Y1023873D01*
X11378184Y1023873D02*
G01*
X11378184Y1091437D01*
X11430000Y1023873D02*
G01*
X11430000Y1065529D01*
X11487150Y1023873D02*
G01*
X11487150Y1091437D01*
X11378184Y1125728D02*
G01*
X11487150Y1125728D01*
X11378184Y1125728D02*
G01*
X11378184Y1172463D01*
X11383263Y1188212D01*
X11388597Y1193292D01*
X11399011Y1198626D01*
X11409425Y1198626D01*
X11419840Y1193292D01*
X11424920Y1188212D01*
X11430000Y1172463D01*
X11430000Y1125728D01*
X11430000Y1162050D02*
G01*
X11487150Y1198626D01*
X11531091Y3379978D02*
G01*
X11520677Y3374644D01*
X11510263Y3364229D01*
X11505184Y3354070D01*
X11505184Y3333242D01*
X11510263Y3322828D01*
X11520677Y3312413D01*
X11531091Y3307079D01*
X11546840Y3302000D01*
X11572747Y3302000D01*
X11588241Y3307079D01*
X11598656Y3312413D01*
X11609070Y3322828D01*
X11614150Y3333242D01*
X11614150Y3354070D01*
X11609070Y3364229D01*
X11598656Y3374644D01*
X11588241Y3379978D01*
X11505184Y3445510D02*
G01*
X11510263Y3435095D01*
X11520677Y3424681D01*
X11531091Y3419347D01*
X11546840Y3414268D01*
X11572747Y3414268D01*
X11588241Y3419347D01*
X11598656Y3424681D01*
X11609070Y3435095D01*
X11614150Y3445510D01*
X11614150Y3466084D01*
X11609070Y3476497D01*
X11598656Y3486912D01*
X11588241Y3492245D01*
X11572747Y3497326D01*
X11546840Y3497326D01*
X11531091Y3492245D01*
X11520677Y3486912D01*
X11510263Y3476497D01*
X11505184Y3466084D01*
X11505184Y3445510D01*
X11505184Y3531615D02*
G01*
X11614150Y3531615D01*
X11505184Y3531615D02*
G01*
X11614150Y3573271D01*
X11505184Y3614673D02*
G01*
X11614150Y3573271D01*
X11505184Y3614673D02*
G01*
X11614150Y3614673D01*
X11505184Y3648963D02*
G01*
X11614150Y3648963D01*
X11505184Y3648963D02*
G01*
X11505184Y3695700D01*
X11510263Y3711447D01*
X11515597Y3716528D01*
X11526011Y3721862D01*
X11541506Y3721862D01*
X11551920Y3716528D01*
X11557000Y3711447D01*
X11562334Y3695700D01*
X11562334Y3648963D01*
X11505184Y3797554D02*
G01*
X11614150Y3756152D01*
X11505184Y3797554D02*
G01*
X11614150Y3839210D01*
X11577827Y3771645D02*
G01*
X11577827Y3823715D01*
X11520677Y3946144D02*
G01*
X11510263Y3935729D01*
X11505184Y3920236D01*
X11505184Y3899407D01*
X11510263Y3883913D01*
X11520677Y3873500D01*
X11531091Y3873500D01*
X11541506Y3878579D01*
X11546840Y3883913D01*
X11551920Y3894328D01*
X11562334Y3925570D01*
X11567413Y3935729D01*
X11572747Y3941063D01*
X11583161Y3946144D01*
X11598656Y3946144D01*
X11609070Y3935729D01*
X11614150Y3920236D01*
X11614150Y3899407D01*
X11609070Y3883913D01*
X11598656Y3873500D01*
X11520677Y4053331D02*
G01*
X11510263Y4042918D01*
X11505184Y4027170D01*
X11505184Y4006595D01*
X11510263Y3990847D01*
X11520677Y3980434D01*
X11531091Y3980434D01*
X11541506Y3985768D01*
X11546840Y3990847D01*
X11551920Y4001262D01*
X11562334Y4032504D01*
X11567413Y4042918D01*
X11572747Y4047997D01*
X11583161Y4053331D01*
X11598656Y4053331D01*
X11609070Y4042918D01*
X11614150Y4027170D01*
X11614150Y4006595D01*
X11609070Y3990847D01*
X11598656Y3980434D01*
X4978852Y3414621D02*
G01*
X4989266Y3419701D01*
X4999680Y3430115D01*
X5004760Y3440529D01*
X5004760Y3461357D01*
X4999680Y3471771D01*
X4989266Y3482185D01*
X4978852Y3487265D01*
X4963358Y3492599D01*
X4937196Y3492599D01*
X4921702Y3487265D01*
X4911288Y3482185D01*
X4900874Y3471771D01*
X4895794Y3461357D01*
X4895794Y3440529D01*
X4900874Y3430115D01*
X4911288Y3419701D01*
X4921702Y3414621D01*
X4937196Y3414621D01*
X4937196Y3440529D02*
G01*
X4937196Y3414621D01*
X5004760Y3380331D02*
G01*
X4895794Y3380331D01*
X5004760Y3380331D02*
G01*
X5004760Y3333595D01*
X4999680Y3317847D01*
X4994346Y3312767D01*
X4983932Y3307433D01*
X4968438Y3307433D01*
X4958024Y3312767D01*
X4952944Y3317847D01*
X4947610Y3333595D01*
X4947610Y3380331D01*
X4989266Y3200499D02*
G01*
X4999680Y3210913D01*
X5004760Y3226407D01*
X5004760Y3247235D01*
X4999680Y3262983D01*
X4989266Y3273143D01*
X4978852Y3273143D01*
X4968438Y3268063D01*
X4963358Y3262983D01*
X4958024Y3252569D01*
X4947610Y3221327D01*
X4942530Y3210913D01*
X4937196Y3205833D01*
X4926782Y3200499D01*
X4911288Y3200499D01*
X4900874Y3210913D01*
X4895794Y3226407D01*
X4895794Y3247235D01*
X4900874Y3262983D01*
X4911288Y3273143D01*
X10033000Y-4520184D02*
G01*
X10033000Y-4629150D01*
X10033000Y-4629150D02*
G01*
X10095229Y-4629150D01*
X10129520Y-4520184D02*
G01*
X10129520Y-4629150D01*
X10163809Y-4520184D02*
G01*
X10163809Y-4629150D01*
X10163809Y-4520184D02*
G01*
X10210800Y-4520184D01*
X10226293Y-4525263D01*
X10231374Y-4530597D01*
X10236708Y-4541012D01*
X10236708Y-4556505D01*
X10231374Y-4566920D01*
X10226293Y-4572000D01*
X10210800Y-4577334D01*
X10163809Y-4577334D01*
X10302240Y-4520184D02*
G01*
X10291825Y-4525263D01*
X10281411Y-4535678D01*
X10276077Y-4546092D01*
X10270997Y-4561839D01*
X10270997Y-4587747D01*
X10276077Y-4603242D01*
X10281411Y-4613655D01*
X10291825Y-4624070D01*
X10302240Y-4629150D01*
X10322813Y-4629150D01*
X10333227Y-4624070D01*
X10343641Y-4613655D01*
X10348975Y-4603242D01*
X10354056Y-4587747D01*
X10354056Y-4561839D01*
X10348975Y-4546092D01*
X10343641Y-4535678D01*
X10333227Y-4525263D01*
X10322813Y-4520184D01*
X10302240Y-4520184D01*
X10388345Y-4665726D02*
G01*
X10481818Y-4665726D01*
X10589006Y-4535678D02*
G01*
X10578591Y-4525263D01*
X10562843Y-4520184D01*
X10542270Y-4520184D01*
X10526522Y-4525263D01*
X10516108Y-4535678D01*
X10516108Y-4546092D01*
X10521441Y-4556505D01*
X10526522Y-4561839D01*
X10536936Y-4566920D01*
X10568177Y-4577334D01*
X10578591Y-4582413D01*
X10583672Y-4587747D01*
X10589006Y-4598162D01*
X10589006Y-4613655D01*
X10578591Y-4624070D01*
X10562843Y-4629150D01*
X10542270Y-4629150D01*
X10526522Y-4624070D01*
X10516108Y-4613655D01*
X10659618Y-4520184D02*
G01*
X10659618Y-4629150D01*
X10623295Y-4520184D02*
G01*
X10695940Y-4520184D01*
X10771886Y-4520184D02*
G01*
X10730229Y-4629150D01*
X10771886Y-4520184D02*
G01*
X10813288Y-4629150D01*
X10745724Y-4592828D02*
G01*
X10797793Y-4592828D01*
X10883900Y-4520184D02*
G01*
X10883900Y-4629150D01*
X10847577Y-4520184D02*
G01*
X10920475Y-4520184D01*
X10954765Y-4520184D02*
G01*
X10954765Y-4598162D01*
X10959845Y-4613655D01*
X10970259Y-4624070D01*
X10985754Y-4629150D01*
X10996168Y-4629150D01*
X11011915Y-4624070D01*
X11022329Y-4613655D01*
X11027409Y-4598162D01*
X11027409Y-4520184D01*
X11134343Y-4535678D02*
G01*
X11123929Y-4525263D01*
X11108436Y-4520184D01*
X11087608Y-4520184D01*
X11072113Y-4525263D01*
X11061700Y-4535678D01*
X11061700Y-4546092D01*
X11066779Y-4556505D01*
X11072113Y-4561839D01*
X11082527Y-4566920D01*
X11113770Y-4577334D01*
X11123929Y-4582413D01*
X11129263Y-4587747D01*
X11134343Y-4598162D01*
X11134343Y-4613655D01*
X11123929Y-4624070D01*
X11108436Y-4629150D01*
X11087608Y-4629150D01*
X11072113Y-4624070D01*
X11061700Y-4613655D01*
X4877815Y-671321D02*
G01*
X4768850Y-671321D01*
X4877815Y-635000D02*
G01*
X4877815Y-707644D01*
X4877815Y-741934D02*
G01*
X4768850Y-741934D01*
X4877815Y-741934D02*
G01*
X4877815Y-809497D01*
X4826000Y-741934D02*
G01*
X4826000Y-783589D01*
X4768850Y-741934D02*
G01*
X4768850Y-809497D01*
X4877815Y-843787D02*
G01*
X4768850Y-843787D01*
X4768850Y-843787D02*
G01*
X4768850Y-906271D01*
X4877815Y-940562D02*
G01*
X4768850Y-940562D01*
X4877815Y-940562D02*
G01*
X4877815Y-1008126D01*
X4826000Y-940562D02*
G01*
X4826000Y-981963D01*
X4768850Y-940562D02*
G01*
X4768850Y-1008126D01*
X4877815Y-1042415D02*
G01*
X4768850Y-1042415D01*
X4877815Y-1042415D02*
G01*
X4768850Y-1083818D01*
X4877815Y-1125473D02*
G01*
X4768850Y-1083818D01*
X4877815Y-1125473D02*
G01*
X4768850Y-1125473D01*
X4877815Y-1159763D02*
G01*
X4768850Y-1159763D01*
X4877815Y-1159763D02*
G01*
X4877815Y-1227328D01*
X4826000Y-1159763D02*
G01*
X4826000Y-1201420D01*
X4768850Y-1159763D02*
G01*
X4768850Y-1227328D01*
X4877815Y-1297939D02*
G01*
X4768850Y-1297939D01*
X4877815Y-1261618D02*
G01*
X4877815Y-1334262D01*
X4877815Y-1368552D02*
G01*
X4768850Y-1368552D01*
X4877815Y-1368552D02*
G01*
X4877815Y-1415287D01*
X4872736Y-1431036D01*
X4867402Y-1436115D01*
X4856988Y-1441450D01*
X4846574Y-1441450D01*
X4836159Y-1436115D01*
X4831079Y-1431036D01*
X4826000Y-1415287D01*
X4826000Y-1368552D01*
X4826000Y-1404873D02*
G01*
X4768850Y-1441450D01*
X4877815Y-1475739D02*
G01*
X4826000Y-1517142D01*
X4768850Y-1517142D01*
X4877815Y-1558797D02*
G01*
X4826000Y-1517142D01*
X11162284Y-3683000D02*
G01*
X11271250Y-3683000D01*
X11162284Y-3683000D02*
G01*
X11162284Y-3636263D01*
X11167363Y-3620770D01*
X11172697Y-3615436D01*
X11183111Y-3610355D01*
X11193525Y-3610355D01*
X11203940Y-3615436D01*
X11209020Y-3620770D01*
X11214100Y-3636263D01*
X11214100Y-3683000D01*
X11214100Y-3646678D02*
G01*
X11271250Y-3610355D01*
X11183111Y-3576065D02*
G01*
X11177777Y-3565652D01*
X11162284Y-3549904D01*
X11271250Y-3549904D01*
X11162284Y-2413000D02*
G01*
X11271250Y-2413000D01*
X11162284Y-2413000D02*
G01*
X11162284Y-2366263D01*
X11167363Y-2350770D01*
X11172697Y-2345436D01*
X11183111Y-2340355D01*
X11193525Y-2340355D01*
X11203940Y-2345436D01*
X11209020Y-2350770D01*
X11214100Y-2366263D01*
X11214100Y-2413000D01*
X11214100Y-2376678D02*
G01*
X11271250Y-2340355D01*
X11188191Y-2300731D02*
G01*
X11183111Y-2300731D01*
X11172697Y-2295652D01*
X11167363Y-2290318D01*
X11162284Y-2279904D01*
X11162284Y-2259329D01*
X11167363Y-2248915D01*
X11172697Y-2243581D01*
X11183111Y-2238502D01*
X11193525Y-2238502D01*
X11203940Y-2243581D01*
X11219434Y-2253995D01*
X11271250Y-2306065D01*
X11271250Y-2233168D01*
X11670284Y-3683000D02*
G01*
X11779250Y-3683000D01*
X11670284Y-3683000D02*
G01*
X11670284Y-3636263D01*
X11675363Y-3620770D01*
X11680697Y-3615436D01*
X11691111Y-3610355D01*
X11701525Y-3610355D01*
X11711940Y-3615436D01*
X11717020Y-3620770D01*
X11722100Y-3636263D01*
X11722100Y-3683000D01*
X11722100Y-3646678D02*
G01*
X11779250Y-3610355D01*
X11670284Y-3565652D02*
G01*
X11670284Y-3508502D01*
X11711940Y-3539489D01*
X11711940Y-3523995D01*
X11717020Y-3513581D01*
X11722100Y-3508502D01*
X11737847Y-3503168D01*
X11748261Y-3503168D01*
X11763756Y-3508502D01*
X11774170Y-3518915D01*
X11779250Y-3534410D01*
X11779250Y-3549904D01*
X11774170Y-3565652D01*
X11769090Y-3570731D01*
X11758675Y-3576065D01*
X11670284Y-2413000D02*
G01*
X11779250Y-2413000D01*
X11670284Y-2413000D02*
G01*
X11670284Y-2366263D01*
X11675363Y-2350770D01*
X11680697Y-2345436D01*
X11691111Y-2340355D01*
X11701525Y-2340355D01*
X11711940Y-2345436D01*
X11717020Y-2350770D01*
X11722100Y-2366263D01*
X11722100Y-2413000D01*
X11722100Y-2376678D02*
G01*
X11779250Y-2340355D01*
X11670284Y-2253995D02*
G01*
X11742927Y-2306065D01*
X11742927Y-2228087D01*
X11670284Y-2253995D02*
G01*
X11779250Y-2253995D01*
X12178284Y-3683000D02*
G01*
X12287250Y-3683000D01*
X12178284Y-3683000D02*
G01*
X12178284Y-3636263D01*
X12183363Y-3620770D01*
X12188697Y-3615436D01*
X12199111Y-3610355D01*
X12209525Y-3610355D01*
X12219940Y-3615436D01*
X12225020Y-3620770D01*
X12230100Y-3636263D01*
X12230100Y-3683000D01*
X12230100Y-3646678D02*
G01*
X12287250Y-3610355D01*
X12178284Y-3513581D02*
G01*
X12178284Y-3565652D01*
X12225020Y-3570731D01*
X12219940Y-3565652D01*
X12214606Y-3549904D01*
X12214606Y-3534410D01*
X12219940Y-3518915D01*
X12230100Y-3508502D01*
X12245847Y-3503168D01*
X12256261Y-3503168D01*
X12271756Y-3508502D01*
X12282170Y-3518915D01*
X12287250Y-3534410D01*
X12287250Y-3549904D01*
X12282170Y-3565652D01*
X12277090Y-3570731D01*
X12266675Y-3576065D01*
X12178284Y-2413000D02*
G01*
X12287250Y-2413000D01*
X12178284Y-2413000D02*
G01*
X12178284Y-2366263D01*
X12183363Y-2350770D01*
X12188697Y-2345436D01*
X12199111Y-2340355D01*
X12209525Y-2340355D01*
X12219940Y-2345436D01*
X12225020Y-2350770D01*
X12230100Y-2366263D01*
X12230100Y-2413000D01*
X12230100Y-2376678D02*
G01*
X12287250Y-2340355D01*
X12193777Y-2243581D02*
G01*
X12183363Y-2248915D01*
X12178284Y-2264410D01*
X12178284Y-2274823D01*
X12183363Y-2290318D01*
X12199111Y-2300731D01*
X12225020Y-2306065D01*
X12250927Y-2306065D01*
X12271756Y-2300731D01*
X12282170Y-2290318D01*
X12287250Y-2274823D01*
X12287250Y-2269489D01*
X12282170Y-2253995D01*
X12271756Y-2243581D01*
X12256261Y-2238502D01*
X12250927Y-2238502D01*
X12235434Y-2243581D01*
X12225020Y-2253995D01*
X12219940Y-2269489D01*
X12219940Y-2274823D01*
X12225020Y-2290318D01*
X12235434Y-2300731D01*
X12250927Y-2306065D01*
X8509000Y4369815D02*
G01*
X8509000Y4260850D01*
X8509000Y4369815D02*
G01*
X8576563Y4369815D01*
X8509000Y4318000D02*
G01*
X8550656Y4318000D01*
X8509000Y4260850D02*
G01*
X8576563Y4260850D01*
X8683497Y4354321D02*
G01*
X8673084Y4364736D01*
X8657590Y4369815D01*
X8636761Y4369815D01*
X8621268Y4364736D01*
X8610854Y4354321D01*
X8610854Y4343907D01*
X8615934Y4333494D01*
X8621268Y4328160D01*
X8631681Y4323079D01*
X8662670Y4312665D01*
X8673084Y4307586D01*
X8678418Y4302252D01*
X8683497Y4291837D01*
X8683497Y4276344D01*
X8673084Y4265929D01*
X8657590Y4260850D01*
X8636761Y4260850D01*
X8621268Y4265929D01*
X8610854Y4276344D01*
X8795765Y4343907D02*
G01*
X8790686Y4354321D01*
X8780272Y4364736D01*
X8769858Y4369815D01*
X8749029Y4369815D01*
X8738615Y4364736D01*
X8728202Y4354321D01*
X8723122Y4343907D01*
X8717788Y4328160D01*
X8717788Y4302252D01*
X8723122Y4286757D01*
X8728202Y4276344D01*
X8738615Y4265929D01*
X8749029Y4260850D01*
X8769858Y4260850D01*
X8780272Y4265929D01*
X8790686Y4276344D01*
X8795765Y4286757D01*
X8830056Y4348987D02*
G01*
X8840470Y4354321D01*
X8855963Y4369815D01*
X8855963Y4260850D01*
X8509000Y3988815D02*
G01*
X8509000Y3879850D01*
X8509000Y3988815D02*
G01*
X8576563Y3988815D01*
X8509000Y3937000D02*
G01*
X8550656Y3937000D01*
X8509000Y3879850D02*
G01*
X8576563Y3879850D01*
X8683497Y3973321D02*
G01*
X8673084Y3983736D01*
X8657590Y3988815D01*
X8636761Y3988815D01*
X8621268Y3983736D01*
X8610854Y3973321D01*
X8610854Y3962907D01*
X8615934Y3952494D01*
X8621268Y3947160D01*
X8631681Y3942079D01*
X8662670Y3931665D01*
X8673084Y3926586D01*
X8678418Y3921252D01*
X8683497Y3910837D01*
X8683497Y3895344D01*
X8673084Y3884929D01*
X8657590Y3879850D01*
X8636761Y3879850D01*
X8621268Y3884929D01*
X8610854Y3895344D01*
X8795765Y3962907D02*
G01*
X8790686Y3973321D01*
X8780272Y3983736D01*
X8769858Y3988815D01*
X8749029Y3988815D01*
X8738615Y3983736D01*
X8728202Y3973321D01*
X8723122Y3962907D01*
X8717788Y3947160D01*
X8717788Y3921252D01*
X8723122Y3905757D01*
X8728202Y3895344D01*
X8738615Y3884929D01*
X8749029Y3879850D01*
X8769858Y3879850D01*
X8780272Y3884929D01*
X8790686Y3895344D01*
X8795765Y3905757D01*
X8835390Y3962907D02*
G01*
X8835390Y3967987D01*
X8840470Y3978402D01*
X8845550Y3983736D01*
X8855963Y3988815D01*
X8876791Y3988815D01*
X8887206Y3983736D01*
X8892540Y3978402D01*
X8897620Y3967987D01*
X8897620Y3957573D01*
X8892540Y3947160D01*
X8882125Y3931665D01*
X8830056Y3879850D01*
X8902700Y3879850D01*
X12140184Y254000D02*
G01*
X12249150Y254000D01*
X12140184Y254000D02*
G01*
X12140184Y300736D01*
X12145263Y316229D01*
X12150597Y321563D01*
X12161011Y326644D01*
X12171425Y326644D01*
X12181840Y321563D01*
X12186920Y316229D01*
X12192000Y300736D01*
X12192000Y254000D01*
X12192000Y290321D02*
G01*
X12249150Y326644D01*
X12140184Y360934D02*
G01*
X12249150Y360934D01*
X12140184Y360934D02*
G01*
X12140184Y428497D01*
X12192000Y360934D02*
G01*
X12192000Y402589D01*
X12249150Y360934D02*
G01*
X12249150Y428497D01*
X12166091Y540765D02*
G01*
X12155677Y535686D01*
X12145263Y525271D01*
X12140184Y514857D01*
X12140184Y494029D01*
X12145263Y483615D01*
X12155677Y473202D01*
X12166091Y468121D01*
X12181840Y462787D01*
X12207747Y462787D01*
X12223241Y468121D01*
X12233656Y473202D01*
X12244070Y483615D01*
X12249150Y494029D01*
X12249150Y514857D01*
X12244070Y525271D01*
X12233656Y535686D01*
X12223241Y540765D01*
X12140184Y575055D02*
G01*
X12249150Y575055D01*
X12140184Y575055D02*
G01*
X12140184Y642620D01*
X12192000Y575055D02*
G01*
X12192000Y616712D01*
X12249150Y575055D02*
G01*
X12249150Y642620D01*
X12140184Y676910D02*
G01*
X12249150Y676910D01*
X12140184Y711200D02*
G01*
X12249150Y752855D01*
X12140184Y794257D02*
G01*
X12249150Y752855D01*
X12140184Y828547D02*
G01*
X12249150Y828547D01*
X12140184Y828547D02*
G01*
X12140184Y896112D01*
X12192000Y828547D02*
G01*
X12192000Y870204D01*
X12249150Y828547D02*
G01*
X12249150Y896112D01*
X12140184Y930402D02*
G01*
X12249150Y930402D01*
X12140184Y930402D02*
G01*
X12140184Y977137D01*
X12145263Y992886D01*
X12150597Y997965D01*
X12161011Y1003300D01*
X12171425Y1003300D01*
X12181840Y997965D01*
X12186920Y992886D01*
X12192000Y977137D01*
X12192000Y930402D01*
X12192000Y966723D02*
G01*
X12249150Y1003300D01*
D10*
X12573000Y127000D02*
G01*
X12573000Y-127000D01*
X12065000Y-127000D01*
X12065000Y127000D01*
X12573000Y127000D01*
X11176000Y-127000D02*
G01*
X11176000Y127000D01*
X11684000Y127000D01*
X11684000Y-127000D01*
X11176000Y-127000D01*
D15*
X11430000Y3175000D02*
G01*
X11684000Y3175000D01*
X11684000Y1905000D01*
X11430000Y1905000D01*
X11430000Y3175000D01*
D16*
X5080000Y2032000D02*
G01*
X4826000Y2032000D01*
X4826000Y3048000D01*
X5080000Y3048000D01*
X5080000Y2857500D01*
D17*
X5080000Y2032000D02*
G01*
X5080000Y2857500D01*
D16*
X12319000Y-4445000D02*
G01*
X12319000Y-4699000D01*
X11303000Y-4699000D01*
X11303000Y-4445000D01*
X11493500Y-4445000D01*
D17*
X12319000Y-4445000D02*
G01*
X11493500Y-4445000D01*
D15*
X5080000Y-508000D02*
G01*
X4572000Y-508000D01*
X4572000Y508000D01*
X5080000Y508000D01*
X5080000Y-508000D01*
D10*
X11549379Y-3997960D02*
G01*
X11310620Y-3997960D01*
X11310620Y-3997960D02*
G01*
X11310620Y-3368039D01*
X11310620Y-3368039D02*
G01*
X11549379Y-3368039D01*
X11549379Y-3368039D02*
G01*
X11549379Y-3997960D01*
X11549379Y-2727960D02*
G01*
X11310620Y-2727960D01*
X11310620Y-2727960D02*
G01*
X11310620Y-2098039D01*
X11310620Y-2098039D02*
G01*
X11549379Y-2098039D01*
X11549379Y-2098039D02*
G01*
X11549379Y-2727960D01*
X12057379Y-3997960D02*
G01*
X11818620Y-3997960D01*
X11818620Y-3997960D02*
G01*
X11818620Y-3368039D01*
X11818620Y-3368039D02*
G01*
X12057379Y-3368039D01*
X12057379Y-3368039D02*
G01*
X12057379Y-3997960D01*
X12057379Y-2727960D02*
G01*
X11818620Y-2727960D01*
X11818620Y-2727960D02*
G01*
X11818620Y-2098039D01*
X11818620Y-2098039D02*
G01*
X12057379Y-2098039D01*
X12057379Y-2098039D02*
G01*
X12057379Y-2727960D01*
X12565379Y-3997960D02*
G01*
X12326620Y-3997960D01*
X12326620Y-3997960D02*
G01*
X12326620Y-3368039D01*
X12326620Y-3368039D02*
G01*
X12565379Y-3368039D01*
X12565379Y-3368039D02*
G01*
X12565379Y-3997960D01*
X12565379Y-2727960D02*
G01*
X12326620Y-2727960D01*
X12326620Y-2727960D02*
G01*
X12326620Y-2098039D01*
X12326620Y-2098039D02*
G01*
X12565379Y-2098039D01*
X12565379Y-2098039D02*
G01*
X12565379Y-2727960D01*
X8382000Y4191000D02*
G01*
X7620000Y4191000D01*
X7620000Y4445000D01*
X8382000Y4445000D01*
X8382000Y4191000D01*
X8382000Y3810000D02*
G01*
X7620000Y3810000D01*
X7620000Y4064000D01*
X8382000Y4064000D01*
X8382000Y3810000D01*
X12065000Y127000D02*
G01*
X12065000Y-1397000D01*
X11811000Y-1397000D01*
X11811000Y127000D01*
X12065000Y127000D01*
M02*
