G04 Layer: TopLayer*
G04 EasyEDA v6.4.25, 2021-11-05T19:22:01+05:30*
G04 61bcb772547544e299bc8c975d1ae397,5cb069c284564e3e9aa1642b0c72b42d,10*
G04 Gerber Generator version 0.2*
G04 Scale: 100 percent, Rotated: No, Reflected: No *
G04 Dimensions in millimeters *
G04 leading zeros omitted , absolute positions ,4 integer and 5 decimal *
%FSLAX45Y45*%
%MOMM*%

%ADD10C,0.2540*%
%ADD11C,1.5240*%
%ADD12C,1.7780*%
%ADD13R,1.7780X1.7780*%
%ADD14C,1.8796*%

%LPD*%
G36*
X4100068Y-4800092D02*
G01*
X4096156Y-4799330D01*
X4092905Y-4797094D01*
X4090670Y-4793843D01*
X4089908Y-4789932D01*
X4089908Y4662932D01*
X4090670Y4666843D01*
X4092905Y4670094D01*
X4096156Y4672330D01*
X4100068Y4673092D01*
X13044932Y4673092D01*
X13048843Y4672330D01*
X13052094Y4670094D01*
X13054330Y4666843D01*
X13055092Y4662932D01*
X13055092Y-4789932D01*
X13054330Y-4793843D01*
X13052094Y-4797094D01*
X13048843Y-4799330D01*
X13044932Y-4800092D01*
G37*

%LPC*%
G36*
X12184786Y-4686554D02*
G01*
X12199213Y-4686554D01*
X12213488Y-4684776D01*
X12227458Y-4681169D01*
X12240869Y-4675886D01*
X12253518Y-4668926D01*
X12265152Y-4660442D01*
X12275667Y-4650587D01*
X12284862Y-4639462D01*
X12292584Y-4627321D01*
X12298730Y-4614265D01*
X12303201Y-4600549D01*
X12305893Y-4586376D01*
X12306808Y-4572000D01*
X12305893Y-4557623D01*
X12303201Y-4543450D01*
X12298730Y-4529734D01*
X12292584Y-4516678D01*
X12284862Y-4504537D01*
X12275667Y-4493412D01*
X12265152Y-4483557D01*
X12253518Y-4475073D01*
X12240869Y-4468114D01*
X12227458Y-4462830D01*
X12213488Y-4459224D01*
X12199213Y-4457446D01*
X12184786Y-4457446D01*
X12170511Y-4459224D01*
X12156541Y-4462830D01*
X12143130Y-4468114D01*
X12130481Y-4475073D01*
X12118848Y-4483557D01*
X12108332Y-4493412D01*
X12099137Y-4504537D01*
X12091416Y-4516678D01*
X12085269Y-4529734D01*
X12080798Y-4543450D01*
X12078106Y-4557623D01*
X12077192Y-4572000D01*
X12078106Y-4586376D01*
X12080798Y-4600549D01*
X12085269Y-4614265D01*
X12091416Y-4627321D01*
X12099137Y-4639462D01*
X12108332Y-4650587D01*
X12118848Y-4660442D01*
X12130481Y-4668926D01*
X12143130Y-4675886D01*
X12156541Y-4681169D01*
X12170511Y-4684776D01*
G37*
G36*
X11930786Y-4686554D02*
G01*
X11945213Y-4686554D01*
X11959488Y-4684776D01*
X11973458Y-4681169D01*
X11986869Y-4675886D01*
X11999518Y-4668926D01*
X12011152Y-4660442D01*
X12021667Y-4650587D01*
X12030862Y-4639462D01*
X12038584Y-4627321D01*
X12044730Y-4614265D01*
X12049201Y-4600549D01*
X12051893Y-4586376D01*
X12052808Y-4572000D01*
X12051893Y-4557623D01*
X12049201Y-4543450D01*
X12044730Y-4529734D01*
X12038584Y-4516678D01*
X12030862Y-4504537D01*
X12021667Y-4493412D01*
X12011152Y-4483557D01*
X11999518Y-4475073D01*
X11986869Y-4468114D01*
X11973458Y-4462830D01*
X11959488Y-4459224D01*
X11945213Y-4457446D01*
X11930786Y-4457446D01*
X11916511Y-4459224D01*
X11902541Y-4462830D01*
X11889130Y-4468114D01*
X11876481Y-4475073D01*
X11864848Y-4483557D01*
X11854332Y-4493412D01*
X11845137Y-4504537D01*
X11837416Y-4516678D01*
X11831269Y-4529734D01*
X11826798Y-4543450D01*
X11824106Y-4557623D01*
X11823192Y-4572000D01*
X11824106Y-4586376D01*
X11826798Y-4600549D01*
X11831269Y-4614265D01*
X11837416Y-4627321D01*
X11845137Y-4639462D01*
X11854332Y-4650587D01*
X11864848Y-4660442D01*
X11876481Y-4668926D01*
X11889130Y-4675886D01*
X11902541Y-4681169D01*
X11916511Y-4684776D01*
G37*
G36*
X11676786Y-4686554D02*
G01*
X11691213Y-4686554D01*
X11705488Y-4684776D01*
X11719458Y-4681169D01*
X11732869Y-4675886D01*
X11745518Y-4668926D01*
X11757152Y-4660442D01*
X11767667Y-4650587D01*
X11776862Y-4639462D01*
X11784584Y-4627321D01*
X11790730Y-4614265D01*
X11795201Y-4600549D01*
X11797893Y-4586376D01*
X11798808Y-4572000D01*
X11797893Y-4557623D01*
X11795201Y-4543450D01*
X11790730Y-4529734D01*
X11784584Y-4516678D01*
X11776862Y-4504537D01*
X11767667Y-4493412D01*
X11757152Y-4483557D01*
X11745518Y-4475073D01*
X11732869Y-4468114D01*
X11719458Y-4462830D01*
X11705488Y-4459224D01*
X11691213Y-4457446D01*
X11676786Y-4457446D01*
X11662511Y-4459224D01*
X11648541Y-4462830D01*
X11635130Y-4468114D01*
X11622481Y-4475073D01*
X11610848Y-4483557D01*
X11600332Y-4493412D01*
X11591137Y-4504537D01*
X11583416Y-4516678D01*
X11577269Y-4529734D01*
X11572798Y-4543450D01*
X11570106Y-4557623D01*
X11569192Y-4572000D01*
X11570106Y-4586376D01*
X11572798Y-4600549D01*
X11577269Y-4614265D01*
X11583416Y-4627321D01*
X11591137Y-4639462D01*
X11600332Y-4650587D01*
X11610848Y-4660442D01*
X11622481Y-4668926D01*
X11635130Y-4675886D01*
X11648541Y-4681169D01*
X11662511Y-4684776D01*
G37*
G36*
X11379200Y-4674819D02*
G01*
X11379200Y-4622800D01*
X11327282Y-4622800D01*
X11329416Y-4627321D01*
X11337137Y-4639462D01*
X11346332Y-4650587D01*
X11356848Y-4660442D01*
X11368481Y-4668926D01*
G37*
G36*
X11480800Y-4674819D02*
G01*
X11491518Y-4668926D01*
X11503152Y-4660442D01*
X11513667Y-4650587D01*
X11522862Y-4639462D01*
X11530584Y-4627321D01*
X11532717Y-4622800D01*
X11480800Y-4622800D01*
G37*
G36*
X12704521Y-4620818D02*
G01*
X12722606Y-4619447D01*
X12740386Y-4616196D01*
X12757810Y-4611116D01*
X12774574Y-4604308D01*
X12790525Y-4595774D01*
X12805562Y-4585665D01*
X12819481Y-4574082D01*
X12832130Y-4561128D01*
X12843357Y-4546904D01*
X12853060Y-4531614D01*
X12861188Y-4515459D01*
X12867538Y-4498492D01*
X12872161Y-4480966D01*
X12874955Y-4463084D01*
X12875869Y-4445000D01*
X12874955Y-4426915D01*
X12872161Y-4409033D01*
X12867538Y-4391507D01*
X12861188Y-4374540D01*
X12853060Y-4358386D01*
X12843357Y-4343095D01*
X12832130Y-4328871D01*
X12819481Y-4315917D01*
X12805562Y-4304334D01*
X12790525Y-4294225D01*
X12774574Y-4285691D01*
X12757810Y-4278884D01*
X12740386Y-4273804D01*
X12722606Y-4270552D01*
X12704521Y-4269181D01*
X12686436Y-4269638D01*
X12668453Y-4271975D01*
X12650825Y-4276090D01*
X12633756Y-4282084D01*
X12617348Y-4289755D01*
X12601803Y-4299051D01*
X12587325Y-4309922D01*
X12574016Y-4322216D01*
X12562078Y-4335830D01*
X12551562Y-4350613D01*
X12542672Y-4366361D01*
X12535408Y-4382973D01*
X12529921Y-4400194D01*
X12526213Y-4417923D01*
X12524333Y-4435957D01*
X12524333Y-4454042D01*
X12526213Y-4472076D01*
X12529921Y-4489805D01*
X12535408Y-4507026D01*
X12542672Y-4523638D01*
X12551562Y-4539386D01*
X12562078Y-4554169D01*
X12574016Y-4567783D01*
X12587325Y-4580077D01*
X12601803Y-4590948D01*
X12617348Y-4600244D01*
X12633756Y-4607915D01*
X12650825Y-4613910D01*
X12668453Y-4618024D01*
X12686436Y-4620361D01*
G37*
G36*
X4449521Y-4620818D02*
G01*
X4467606Y-4619447D01*
X4485386Y-4616196D01*
X4502810Y-4611116D01*
X4519574Y-4604308D01*
X4535525Y-4595774D01*
X4550562Y-4585665D01*
X4564481Y-4574082D01*
X4577130Y-4561128D01*
X4588357Y-4546904D01*
X4598060Y-4531614D01*
X4606188Y-4515459D01*
X4612538Y-4498492D01*
X4617161Y-4480966D01*
X4619955Y-4463084D01*
X4620869Y-4445000D01*
X4619955Y-4426915D01*
X4617161Y-4409033D01*
X4612538Y-4391507D01*
X4606188Y-4374540D01*
X4598060Y-4358386D01*
X4588357Y-4343095D01*
X4577130Y-4328871D01*
X4564481Y-4315917D01*
X4550562Y-4304334D01*
X4535525Y-4294225D01*
X4519574Y-4285691D01*
X4502810Y-4278884D01*
X4485386Y-4273804D01*
X4467606Y-4270552D01*
X4449521Y-4269181D01*
X4431436Y-4269638D01*
X4413453Y-4271975D01*
X4395825Y-4276090D01*
X4378756Y-4282084D01*
X4362348Y-4289755D01*
X4346803Y-4299051D01*
X4332325Y-4309922D01*
X4319016Y-4322216D01*
X4307078Y-4335830D01*
X4296562Y-4350613D01*
X4287672Y-4366361D01*
X4280408Y-4382973D01*
X4274921Y-4400194D01*
X4271213Y-4417923D01*
X4269333Y-4435957D01*
X4269333Y-4454042D01*
X4271213Y-4472076D01*
X4274921Y-4489805D01*
X4280408Y-4507026D01*
X4287672Y-4523638D01*
X4296562Y-4539386D01*
X4307078Y-4554169D01*
X4319016Y-4567783D01*
X4332325Y-4580077D01*
X4346803Y-4590948D01*
X4362348Y-4600244D01*
X4378756Y-4607915D01*
X4395825Y-4613910D01*
X4413453Y-4618024D01*
X4431436Y-4620361D01*
G37*
G36*
X11480800Y-4521200D02*
G01*
X11532717Y-4521200D01*
X11530584Y-4516678D01*
X11522862Y-4504537D01*
X11513667Y-4493412D01*
X11503152Y-4483557D01*
X11491518Y-4475073D01*
X11480800Y-4469180D01*
G37*
G36*
X11327282Y-4521200D02*
G01*
X11379200Y-4521200D01*
X11379200Y-4469180D01*
X11368481Y-4475073D01*
X11356848Y-4483557D01*
X11346332Y-4493412D01*
X11337137Y-4504537D01*
X11329416Y-4516678D01*
G37*
G36*
X11422634Y-4310634D02*
G01*
X11437366Y-4310634D01*
X11452047Y-4308805D01*
X11466322Y-4305249D01*
X11480088Y-4299915D01*
X11493093Y-4292904D01*
X11505133Y-4284370D01*
X11516055Y-4274464D01*
X11525656Y-4263237D01*
X11533784Y-4250944D01*
X11540388Y-4237736D01*
X11545316Y-4223816D01*
X11548465Y-4209389D01*
X11549837Y-4194708D01*
X11549380Y-4179925D01*
X11547094Y-4165346D01*
X11543030Y-4151172D01*
X11537289Y-4137558D01*
X11529923Y-4124807D01*
X11521033Y-4113022D01*
X11510772Y-4102404D01*
X11499240Y-4093159D01*
X11486692Y-4085386D01*
X11473281Y-4079240D01*
X11459260Y-4074769D01*
X11444732Y-4072026D01*
X11430000Y-4071112D01*
X11415268Y-4072026D01*
X11400739Y-4074769D01*
X11386718Y-4079240D01*
X11373307Y-4085386D01*
X11360759Y-4093159D01*
X11349228Y-4102404D01*
X11338966Y-4113022D01*
X11330076Y-4124807D01*
X11322710Y-4137558D01*
X11316970Y-4151172D01*
X11312906Y-4165346D01*
X11310620Y-4179925D01*
X11310213Y-4194708D01*
X11311534Y-4209389D01*
X11314684Y-4223816D01*
X11319611Y-4237736D01*
X11326215Y-4250944D01*
X11334343Y-4263237D01*
X11343944Y-4274464D01*
X11354866Y-4284370D01*
X11366906Y-4292904D01*
X11379911Y-4299915D01*
X11393678Y-4305249D01*
X11407952Y-4308805D01*
G37*
G36*
X11930634Y-4310634D02*
G01*
X11945366Y-4310634D01*
X11960047Y-4308805D01*
X11974322Y-4305249D01*
X11988088Y-4299915D01*
X12001093Y-4292904D01*
X12013133Y-4284370D01*
X12024055Y-4274464D01*
X12033656Y-4263237D01*
X12041784Y-4250944D01*
X12048388Y-4237736D01*
X12053316Y-4223816D01*
X12056465Y-4209389D01*
X12057837Y-4194708D01*
X12057380Y-4179925D01*
X12055094Y-4165346D01*
X12051030Y-4151172D01*
X12045289Y-4137558D01*
X12037923Y-4124807D01*
X12029033Y-4113022D01*
X12018772Y-4102404D01*
X12007240Y-4093159D01*
X11994692Y-4085386D01*
X11981281Y-4079240D01*
X11967260Y-4074769D01*
X11952732Y-4072026D01*
X11938000Y-4071112D01*
X11923268Y-4072026D01*
X11908739Y-4074769D01*
X11894718Y-4079240D01*
X11881307Y-4085386D01*
X11868759Y-4093159D01*
X11857228Y-4102404D01*
X11846966Y-4113022D01*
X11838076Y-4124807D01*
X11830710Y-4137558D01*
X11824970Y-4151172D01*
X11820906Y-4165346D01*
X11818620Y-4179925D01*
X11818213Y-4194708D01*
X11819534Y-4209389D01*
X11822684Y-4223816D01*
X11827611Y-4237736D01*
X11834215Y-4250944D01*
X11842343Y-4263237D01*
X11851944Y-4274464D01*
X11862866Y-4284370D01*
X11874906Y-4292904D01*
X11887911Y-4299915D01*
X11901678Y-4305249D01*
X11915952Y-4308805D01*
G37*
G36*
X12438634Y-4310634D02*
G01*
X12453366Y-4310634D01*
X12468047Y-4308805D01*
X12482322Y-4305249D01*
X12496088Y-4299915D01*
X12509093Y-4292904D01*
X12521133Y-4284370D01*
X12532055Y-4274464D01*
X12541656Y-4263237D01*
X12549784Y-4250944D01*
X12556388Y-4237736D01*
X12561316Y-4223816D01*
X12564465Y-4209389D01*
X12565837Y-4194708D01*
X12565380Y-4179925D01*
X12563094Y-4165346D01*
X12559030Y-4151172D01*
X12553289Y-4137558D01*
X12545923Y-4124807D01*
X12537033Y-4113022D01*
X12526772Y-4102404D01*
X12515240Y-4093159D01*
X12502692Y-4085386D01*
X12489281Y-4079240D01*
X12475260Y-4074769D01*
X12460732Y-4072026D01*
X12446000Y-4071112D01*
X12431268Y-4072026D01*
X12416739Y-4074769D01*
X12402718Y-4079240D01*
X12389307Y-4085386D01*
X12376759Y-4093159D01*
X12365228Y-4102404D01*
X12354966Y-4113022D01*
X12346076Y-4124807D01*
X12338710Y-4137558D01*
X12332970Y-4151172D01*
X12328906Y-4165346D01*
X12326620Y-4179925D01*
X12326213Y-4194708D01*
X12327534Y-4209389D01*
X12330684Y-4223816D01*
X12335611Y-4237736D01*
X12342215Y-4250944D01*
X12350343Y-4263237D01*
X12359944Y-4274464D01*
X12370866Y-4284370D01*
X12382906Y-4292904D01*
X12395911Y-4299915D01*
X12409678Y-4305249D01*
X12423952Y-4308805D01*
G37*
G36*
X12438634Y-3294634D02*
G01*
X12453366Y-3294634D01*
X12468047Y-3292805D01*
X12482322Y-3289249D01*
X12496088Y-3283915D01*
X12509093Y-3276904D01*
X12521133Y-3268370D01*
X12532055Y-3258464D01*
X12541656Y-3247237D01*
X12549784Y-3234944D01*
X12556388Y-3221736D01*
X12561316Y-3207816D01*
X12564465Y-3193389D01*
X12565837Y-3178708D01*
X12565380Y-3163925D01*
X12563094Y-3149346D01*
X12559030Y-3135172D01*
X12553289Y-3121558D01*
X12545923Y-3108807D01*
X12537033Y-3097022D01*
X12526772Y-3086404D01*
X12515240Y-3077159D01*
X12502692Y-3069386D01*
X12489281Y-3063240D01*
X12475260Y-3058769D01*
X12471247Y-3058007D01*
X12467640Y-3056585D01*
X12464796Y-3053842D01*
X12463221Y-3050286D01*
X12463119Y-3046374D01*
X12464440Y-3042716D01*
X12467132Y-3039821D01*
X12470638Y-3038144D01*
X12482322Y-3035249D01*
X12496088Y-3029915D01*
X12509093Y-3022904D01*
X12521133Y-3014370D01*
X12532055Y-3004464D01*
X12541656Y-2993237D01*
X12549784Y-2980944D01*
X12556388Y-2967736D01*
X12561316Y-2953816D01*
X12564465Y-2939389D01*
X12565837Y-2924708D01*
X12565380Y-2909925D01*
X12563094Y-2895346D01*
X12559030Y-2881172D01*
X12553289Y-2867558D01*
X12545923Y-2854807D01*
X12537033Y-2843022D01*
X12526772Y-2832404D01*
X12515240Y-2823159D01*
X12502692Y-2815386D01*
X12489281Y-2809240D01*
X12475260Y-2804769D01*
X12460732Y-2802026D01*
X12446000Y-2801112D01*
X12431268Y-2802026D01*
X12416739Y-2804769D01*
X12402718Y-2809240D01*
X12389307Y-2815386D01*
X12376759Y-2823159D01*
X12365228Y-2832404D01*
X12354966Y-2843022D01*
X12346076Y-2854807D01*
X12338710Y-2867558D01*
X12332970Y-2881172D01*
X12328906Y-2895346D01*
X12326620Y-2909925D01*
X12326213Y-2924708D01*
X12327534Y-2939389D01*
X12330684Y-2953816D01*
X12335611Y-2967736D01*
X12342215Y-2980944D01*
X12350343Y-2993237D01*
X12359944Y-3004464D01*
X12370866Y-3014370D01*
X12382906Y-3022904D01*
X12395911Y-3029915D01*
X12409678Y-3035249D01*
X12421362Y-3038144D01*
X12424867Y-3039821D01*
X12427559Y-3042716D01*
X12428880Y-3046374D01*
X12428778Y-3050286D01*
X12427204Y-3053842D01*
X12424359Y-3056585D01*
X12420752Y-3058007D01*
X12416739Y-3058769D01*
X12402718Y-3063240D01*
X12389307Y-3069386D01*
X12376759Y-3077159D01*
X12365228Y-3086404D01*
X12354966Y-3097022D01*
X12346076Y-3108807D01*
X12338710Y-3121558D01*
X12332970Y-3135172D01*
X12328906Y-3149346D01*
X12326620Y-3163925D01*
X12326213Y-3178708D01*
X12327534Y-3193389D01*
X12330684Y-3207816D01*
X12335611Y-3221736D01*
X12342215Y-3234944D01*
X12350343Y-3247237D01*
X12359944Y-3258464D01*
X12370866Y-3268370D01*
X12382906Y-3276904D01*
X12395911Y-3283915D01*
X12409678Y-3289249D01*
X12423952Y-3292805D01*
G37*
G36*
X11930634Y-3294634D02*
G01*
X11945366Y-3294634D01*
X11960047Y-3292805D01*
X11974322Y-3289249D01*
X11988088Y-3283915D01*
X12001093Y-3276904D01*
X12013133Y-3268370D01*
X12024055Y-3258464D01*
X12033656Y-3247237D01*
X12041784Y-3234944D01*
X12048388Y-3221736D01*
X12053316Y-3207816D01*
X12056465Y-3193389D01*
X12057837Y-3178708D01*
X12057380Y-3163925D01*
X12055094Y-3149346D01*
X12051030Y-3135172D01*
X12045289Y-3121558D01*
X12037923Y-3108807D01*
X12029033Y-3097022D01*
X12018772Y-3086404D01*
X12007240Y-3077159D01*
X11994692Y-3069386D01*
X11981281Y-3063240D01*
X11967260Y-3058769D01*
X11963247Y-3058007D01*
X11959640Y-3056585D01*
X11956796Y-3053842D01*
X11955221Y-3050286D01*
X11955119Y-3046374D01*
X11956440Y-3042716D01*
X11959132Y-3039821D01*
X11962638Y-3038144D01*
X11974322Y-3035249D01*
X11988088Y-3029915D01*
X12001093Y-3022904D01*
X12013133Y-3014370D01*
X12024055Y-3004464D01*
X12033656Y-2993237D01*
X12041784Y-2980944D01*
X12048388Y-2967736D01*
X12053316Y-2953816D01*
X12056465Y-2939389D01*
X12057837Y-2924708D01*
X12057380Y-2909925D01*
X12055094Y-2895346D01*
X12051030Y-2881172D01*
X12045289Y-2867558D01*
X12037923Y-2854807D01*
X12029033Y-2843022D01*
X12018772Y-2832404D01*
X12007240Y-2823159D01*
X11994692Y-2815386D01*
X11981281Y-2809240D01*
X11967260Y-2804769D01*
X11952732Y-2802026D01*
X11938000Y-2801112D01*
X11923268Y-2802026D01*
X11908739Y-2804769D01*
X11894718Y-2809240D01*
X11881307Y-2815386D01*
X11868759Y-2823159D01*
X11857228Y-2832404D01*
X11846966Y-2843022D01*
X11838076Y-2854807D01*
X11830710Y-2867558D01*
X11824970Y-2881172D01*
X11820906Y-2895346D01*
X11818620Y-2909925D01*
X11818213Y-2924708D01*
X11819534Y-2939389D01*
X11822684Y-2953816D01*
X11827611Y-2967736D01*
X11834215Y-2980944D01*
X11842343Y-2993237D01*
X11851944Y-3004464D01*
X11862866Y-3014370D01*
X11874906Y-3022904D01*
X11887911Y-3029915D01*
X11901678Y-3035249D01*
X11913362Y-3038144D01*
X11916867Y-3039821D01*
X11919559Y-3042716D01*
X11920880Y-3046374D01*
X11920778Y-3050286D01*
X11919204Y-3053842D01*
X11916359Y-3056585D01*
X11912752Y-3058007D01*
X11908739Y-3058769D01*
X11894718Y-3063240D01*
X11881307Y-3069386D01*
X11868759Y-3077159D01*
X11857228Y-3086404D01*
X11846966Y-3097022D01*
X11838076Y-3108807D01*
X11830710Y-3121558D01*
X11824970Y-3135172D01*
X11820906Y-3149346D01*
X11818620Y-3163925D01*
X11818213Y-3178708D01*
X11819534Y-3193389D01*
X11822684Y-3207816D01*
X11827611Y-3221736D01*
X11834215Y-3234944D01*
X11842343Y-3247237D01*
X11851944Y-3258464D01*
X11862866Y-3268370D01*
X11874906Y-3276904D01*
X11887911Y-3283915D01*
X11901678Y-3289249D01*
X11915952Y-3292805D01*
G37*
G36*
X11422634Y-3294634D02*
G01*
X11437366Y-3294634D01*
X11452047Y-3292805D01*
X11466322Y-3289249D01*
X11480088Y-3283915D01*
X11493093Y-3276904D01*
X11505133Y-3268370D01*
X11516055Y-3258464D01*
X11525656Y-3247237D01*
X11533784Y-3234944D01*
X11540388Y-3221736D01*
X11545316Y-3207816D01*
X11548465Y-3193389D01*
X11549837Y-3178708D01*
X11549380Y-3163925D01*
X11547094Y-3149346D01*
X11543030Y-3135172D01*
X11537289Y-3121558D01*
X11529923Y-3108807D01*
X11521033Y-3097022D01*
X11510772Y-3086404D01*
X11499240Y-3077159D01*
X11486692Y-3069386D01*
X11473281Y-3063240D01*
X11459260Y-3058769D01*
X11455247Y-3058007D01*
X11451640Y-3056585D01*
X11448796Y-3053842D01*
X11447221Y-3050286D01*
X11447119Y-3046374D01*
X11448440Y-3042716D01*
X11451132Y-3039821D01*
X11454638Y-3038144D01*
X11466322Y-3035249D01*
X11480088Y-3029915D01*
X11493093Y-3022904D01*
X11505133Y-3014370D01*
X11516055Y-3004464D01*
X11525656Y-2993237D01*
X11533784Y-2980944D01*
X11540388Y-2967736D01*
X11545316Y-2953816D01*
X11548465Y-2939389D01*
X11549837Y-2924708D01*
X11549380Y-2909925D01*
X11547094Y-2895346D01*
X11543030Y-2881172D01*
X11537289Y-2867558D01*
X11529923Y-2854807D01*
X11521033Y-2843022D01*
X11510772Y-2832404D01*
X11499240Y-2823159D01*
X11486692Y-2815386D01*
X11473281Y-2809240D01*
X11459260Y-2804769D01*
X11444732Y-2802026D01*
X11430000Y-2801112D01*
X11415268Y-2802026D01*
X11400739Y-2804769D01*
X11386718Y-2809240D01*
X11373307Y-2815386D01*
X11360759Y-2823159D01*
X11349228Y-2832404D01*
X11338966Y-2843022D01*
X11330076Y-2854807D01*
X11322710Y-2867558D01*
X11316970Y-2881172D01*
X11312906Y-2895346D01*
X11310620Y-2909925D01*
X11310213Y-2924708D01*
X11311534Y-2939389D01*
X11314684Y-2953816D01*
X11319611Y-2967736D01*
X11326215Y-2980944D01*
X11334343Y-2993237D01*
X11343944Y-3004464D01*
X11354866Y-3014370D01*
X11366906Y-3022904D01*
X11379911Y-3029915D01*
X11393678Y-3035249D01*
X11405362Y-3038144D01*
X11408867Y-3039821D01*
X11411559Y-3042716D01*
X11412880Y-3046374D01*
X11412778Y-3050286D01*
X11411204Y-3053842D01*
X11408359Y-3056585D01*
X11404752Y-3058007D01*
X11400739Y-3058769D01*
X11386718Y-3063240D01*
X11373307Y-3069386D01*
X11360759Y-3077159D01*
X11349228Y-3086404D01*
X11338966Y-3097022D01*
X11330076Y-3108807D01*
X11322710Y-3121558D01*
X11316970Y-3135172D01*
X11312906Y-3149346D01*
X11310620Y-3163925D01*
X11310213Y-3178708D01*
X11311534Y-3193389D01*
X11314684Y-3207816D01*
X11319611Y-3221736D01*
X11326215Y-3234944D01*
X11334343Y-3247237D01*
X11343944Y-3258464D01*
X11354866Y-3268370D01*
X11366906Y-3276904D01*
X11379911Y-3283915D01*
X11393678Y-3289249D01*
X11407952Y-3292805D01*
G37*
G36*
X11884660Y-2012137D02*
G01*
X11884660Y-1958339D01*
X11830913Y-1958339D01*
X11834215Y-1964943D01*
X11842343Y-1977237D01*
X11851944Y-1988464D01*
X11862866Y-1998370D01*
X11874906Y-2006904D01*
G37*
G36*
X12392660Y-2012137D02*
G01*
X12392660Y-1958339D01*
X12338913Y-1958339D01*
X12342215Y-1964943D01*
X12350343Y-1977237D01*
X12359944Y-1988464D01*
X12370866Y-1998370D01*
X12382906Y-2006904D01*
G37*
G36*
X11376660Y-2012137D02*
G01*
X11376660Y-1958339D01*
X11322913Y-1958339D01*
X11326215Y-1964943D01*
X11334343Y-1977237D01*
X11343944Y-1988464D01*
X11354866Y-1998370D01*
X11366906Y-2006904D01*
G37*
G36*
X11991340Y-2012137D02*
G01*
X12001093Y-2006904D01*
X12013133Y-1998370D01*
X12024055Y-1988464D01*
X12033656Y-1977237D01*
X12041784Y-1964943D01*
X12045086Y-1958339D01*
X11991340Y-1958339D01*
G37*
G36*
X11483340Y-2012137D02*
G01*
X11493093Y-2006904D01*
X11505133Y-1998370D01*
X11516055Y-1988464D01*
X11525656Y-1977237D01*
X11533784Y-1964943D01*
X11537086Y-1958339D01*
X11483340Y-1958339D01*
G37*
G36*
X12499340Y-2012137D02*
G01*
X12509093Y-2006904D01*
X12521133Y-1998370D01*
X12532055Y-1988464D01*
X12541656Y-1977237D01*
X12549784Y-1964943D01*
X12553086Y-1958339D01*
X12499340Y-1958339D01*
G37*
G36*
X11991340Y-1851660D02*
G01*
X12045340Y-1851660D01*
X12037923Y-1838807D01*
X12029033Y-1827022D01*
X12018772Y-1816404D01*
X12007240Y-1807159D01*
X11994692Y-1799386D01*
X11991340Y-1797862D01*
G37*
G36*
X11483340Y-1851660D02*
G01*
X11537340Y-1851660D01*
X11529923Y-1838807D01*
X11521033Y-1827022D01*
X11510772Y-1816404D01*
X11499240Y-1807159D01*
X11486692Y-1799386D01*
X11483340Y-1797862D01*
G37*
G36*
X12499340Y-1851660D02*
G01*
X12553340Y-1851660D01*
X12545923Y-1838807D01*
X12537033Y-1827022D01*
X12526772Y-1816404D01*
X12515240Y-1807159D01*
X12502692Y-1799386D01*
X12499340Y-1797862D01*
G37*
G36*
X11830659Y-1851660D02*
G01*
X11884660Y-1851660D01*
X11884660Y-1797862D01*
X11881307Y-1799386D01*
X11868759Y-1807159D01*
X11857228Y-1816404D01*
X11846966Y-1827022D01*
X11838076Y-1838807D01*
G37*
G36*
X12338659Y-1851660D02*
G01*
X12392660Y-1851660D01*
X12392660Y-1797862D01*
X12389307Y-1799386D01*
X12376759Y-1807159D01*
X12365228Y-1816404D01*
X12354966Y-1827022D01*
X12346076Y-1838807D01*
G37*
G36*
X11322659Y-1851660D02*
G01*
X11376660Y-1851660D01*
X11376660Y-1797862D01*
X11373307Y-1799386D01*
X11360759Y-1807159D01*
X11349228Y-1816404D01*
X11338966Y-1827022D01*
X11330076Y-1838807D01*
G37*
G36*
X5753404Y-1765807D02*
G01*
X5930595Y-1765807D01*
X5945276Y-1764893D01*
X5959449Y-1762201D01*
X5973165Y-1757730D01*
X5986221Y-1751584D01*
X5998362Y-1743862D01*
X6009487Y-1734667D01*
X6019342Y-1724152D01*
X6027826Y-1712518D01*
X6034786Y-1699869D01*
X6040069Y-1686458D01*
X6043676Y-1672488D01*
X6045454Y-1658213D01*
X6045454Y-1643786D01*
X6043676Y-1629511D01*
X6040069Y-1615541D01*
X6034786Y-1602130D01*
X6027826Y-1589481D01*
X6019342Y-1577848D01*
X6009487Y-1567332D01*
X5998362Y-1558137D01*
X5986221Y-1550416D01*
X5973165Y-1544269D01*
X5959449Y-1539798D01*
X5945276Y-1537106D01*
X5930595Y-1536192D01*
X5753404Y-1536192D01*
X5738723Y-1537106D01*
X5724550Y-1539798D01*
X5710834Y-1544269D01*
X5697778Y-1550416D01*
X5685637Y-1558137D01*
X5674512Y-1567332D01*
X5664657Y-1577848D01*
X5656173Y-1589481D01*
X5649214Y-1602130D01*
X5643930Y-1615541D01*
X5640324Y-1629511D01*
X5638546Y-1643786D01*
X5638546Y-1658213D01*
X5640324Y-1672488D01*
X5643930Y-1686458D01*
X5649214Y-1699869D01*
X5656173Y-1712518D01*
X5664657Y-1724152D01*
X5674512Y-1734667D01*
X5685637Y-1743862D01*
X5697778Y-1751584D01*
X5710834Y-1757730D01*
X5724550Y-1762201D01*
X5738723Y-1764893D01*
G37*
G36*
X9017508Y-1562608D02*
G01*
X11429492Y-1562608D01*
X11437518Y-1561795D01*
X11444732Y-1559610D01*
X11451437Y-1556054D01*
X11457635Y-1550924D01*
X11894007Y-1114602D01*
X11897106Y-1112469D01*
X11900763Y-1111656D01*
X11904522Y-1112215D01*
X11911025Y-1114450D01*
X11924385Y-1117193D01*
X11938000Y-1118108D01*
X11951614Y-1117193D01*
X11964974Y-1114450D01*
X11977878Y-1109980D01*
X11990019Y-1103833D01*
X12001246Y-1096111D01*
X12011406Y-1086967D01*
X12020194Y-1076553D01*
X12027509Y-1065072D01*
X12033250Y-1052677D01*
X12037314Y-1039672D01*
X12039549Y-1026210D01*
X12040006Y-1012596D01*
X12038685Y-999032D01*
X12035485Y-985774D01*
X12030608Y-973023D01*
X12024055Y-961085D01*
X12015978Y-950112D01*
X12006478Y-940308D01*
X11995759Y-931824D01*
X11984024Y-924864D01*
X11971477Y-919581D01*
X11958320Y-915974D01*
X11944807Y-914146D01*
X11931192Y-914146D01*
X11917680Y-915974D01*
X11904522Y-919581D01*
X11891975Y-924864D01*
X11880240Y-931824D01*
X11869521Y-940308D01*
X11860022Y-950112D01*
X11851944Y-961085D01*
X11845391Y-973023D01*
X11840514Y-985774D01*
X11837314Y-999032D01*
X11835993Y-1012596D01*
X11836450Y-1026210D01*
X11838686Y-1039672D01*
X11841835Y-1049883D01*
X11842292Y-1053490D01*
X11841429Y-1057046D01*
X11839346Y-1060043D01*
X11416995Y-1482394D01*
X11413693Y-1484630D01*
X11409781Y-1485392D01*
X9037218Y-1485392D01*
X9033306Y-1484630D01*
X9030004Y-1482394D01*
X6885635Y661924D01*
X6879437Y667054D01*
X6872731Y670610D01*
X6865518Y672795D01*
X6857492Y673608D01*
X6045708Y673608D01*
X6041796Y674420D01*
X6038494Y676656D01*
X6036310Y680008D01*
X6034786Y683869D01*
X6027826Y696518D01*
X6019342Y708152D01*
X6009487Y718667D01*
X5998362Y727862D01*
X5986221Y735584D01*
X5973165Y741730D01*
X5959449Y746201D01*
X5945276Y748893D01*
X5930595Y749808D01*
X5753404Y749808D01*
X5738723Y748893D01*
X5724550Y746201D01*
X5710834Y741730D01*
X5697778Y735584D01*
X5685637Y727862D01*
X5674512Y718667D01*
X5664657Y708152D01*
X5656173Y696518D01*
X5649214Y683869D01*
X5643930Y670458D01*
X5640324Y656488D01*
X5638546Y642213D01*
X5638546Y627786D01*
X5640324Y613511D01*
X5643930Y599541D01*
X5649214Y586130D01*
X5656173Y573481D01*
X5664657Y561848D01*
X5674512Y551332D01*
X5685637Y542137D01*
X5697778Y534416D01*
X5710834Y528269D01*
X5724550Y523798D01*
X5738723Y521106D01*
X5753404Y520192D01*
X5930595Y520192D01*
X5945276Y521106D01*
X5959449Y523798D01*
X5973165Y528269D01*
X5986221Y534416D01*
X5998362Y542137D01*
X6009487Y551332D01*
X6019342Y561848D01*
X6027826Y573481D01*
X6034786Y586130D01*
X6036310Y589991D01*
X6038494Y593344D01*
X6041796Y595579D01*
X6045708Y596392D01*
X6837781Y596392D01*
X6841693Y595630D01*
X6844995Y593394D01*
X8989364Y-1550924D01*
X8995562Y-1556054D01*
X9002268Y-1559610D01*
X9009481Y-1561795D01*
G37*
G36*
X5753404Y-1511808D02*
G01*
X5930595Y-1511808D01*
X5945276Y-1510893D01*
X5959449Y-1508201D01*
X5973165Y-1503730D01*
X5986221Y-1497584D01*
X5998362Y-1489862D01*
X6009487Y-1480667D01*
X6019342Y-1470152D01*
X6027826Y-1458518D01*
X6034786Y-1445869D01*
X6040069Y-1432458D01*
X6043676Y-1418488D01*
X6045454Y-1404213D01*
X6045454Y-1389786D01*
X6043676Y-1375511D01*
X6040069Y-1361541D01*
X6034786Y-1348130D01*
X6027826Y-1335481D01*
X6019342Y-1323848D01*
X6009487Y-1313332D01*
X5998362Y-1304137D01*
X5986221Y-1296416D01*
X5973165Y-1290269D01*
X5959449Y-1285798D01*
X5945276Y-1283106D01*
X5930595Y-1282192D01*
X5753404Y-1282192D01*
X5738723Y-1283106D01*
X5724550Y-1285798D01*
X5710834Y-1290269D01*
X5697778Y-1296416D01*
X5685637Y-1304137D01*
X5674512Y-1313332D01*
X5664657Y-1323848D01*
X5656173Y-1335481D01*
X5649214Y-1348130D01*
X5643930Y-1361541D01*
X5640324Y-1375511D01*
X5638546Y-1389786D01*
X5638546Y-1404213D01*
X5640324Y-1418488D01*
X5643930Y-1432458D01*
X5649214Y-1445869D01*
X5656173Y-1458518D01*
X5664657Y-1470152D01*
X5674512Y-1480667D01*
X5685637Y-1489862D01*
X5697778Y-1497584D01*
X5710834Y-1503730D01*
X5724550Y-1508201D01*
X5738723Y-1510893D01*
G37*
G36*
X11938000Y-1372108D02*
G01*
X11951614Y-1371193D01*
X11964974Y-1368450D01*
X11977878Y-1363980D01*
X11990019Y-1357833D01*
X12001246Y-1350111D01*
X12011406Y-1340967D01*
X12020194Y-1330553D01*
X12027509Y-1319072D01*
X12033250Y-1306677D01*
X12037314Y-1293672D01*
X12039549Y-1280210D01*
X12040006Y-1266596D01*
X12038685Y-1253032D01*
X12035485Y-1239774D01*
X12030608Y-1227023D01*
X12024055Y-1215085D01*
X12015978Y-1204112D01*
X12006478Y-1194308D01*
X11995759Y-1185824D01*
X11984024Y-1178864D01*
X11971477Y-1173581D01*
X11958320Y-1169974D01*
X11944807Y-1168146D01*
X11931192Y-1168146D01*
X11917680Y-1169974D01*
X11904522Y-1173581D01*
X11891975Y-1178864D01*
X11880240Y-1185824D01*
X11869521Y-1194308D01*
X11860022Y-1204112D01*
X11851944Y-1215085D01*
X11845391Y-1227023D01*
X11840514Y-1239774D01*
X11837314Y-1253032D01*
X11835993Y-1266596D01*
X11836450Y-1280210D01*
X11838686Y-1293672D01*
X11842750Y-1306677D01*
X11848490Y-1319072D01*
X11855805Y-1330553D01*
X11864594Y-1340967D01*
X11874754Y-1350111D01*
X11885980Y-1357833D01*
X11898122Y-1363980D01*
X11911025Y-1368450D01*
X11924385Y-1371193D01*
G37*
G36*
X9144508Y-1308608D02*
G01*
X11175492Y-1308608D01*
X11183518Y-1307795D01*
X11190732Y-1305610D01*
X11197437Y-1302054D01*
X11203635Y-1296924D01*
X11894007Y-606602D01*
X11897106Y-604469D01*
X11900763Y-603656D01*
X11904522Y-604215D01*
X11911025Y-606450D01*
X11924385Y-609193D01*
X11938000Y-610108D01*
X11951614Y-609193D01*
X11964974Y-606450D01*
X11977878Y-601980D01*
X11990019Y-595833D01*
X12001246Y-588111D01*
X12011406Y-578967D01*
X12020194Y-568553D01*
X12027509Y-557072D01*
X12033250Y-544677D01*
X12037314Y-531672D01*
X12039549Y-518210D01*
X12040006Y-504596D01*
X12038685Y-491032D01*
X12035485Y-477774D01*
X12030608Y-465023D01*
X12024055Y-453085D01*
X12015978Y-442112D01*
X12006478Y-432308D01*
X11995759Y-423824D01*
X11984024Y-416864D01*
X11971477Y-411581D01*
X11958320Y-407974D01*
X11944807Y-406146D01*
X11931192Y-406146D01*
X11917680Y-407974D01*
X11904522Y-411581D01*
X11891975Y-416864D01*
X11880240Y-423824D01*
X11869521Y-432308D01*
X11860022Y-442112D01*
X11851944Y-453085D01*
X11845391Y-465023D01*
X11840514Y-477774D01*
X11837314Y-491032D01*
X11835993Y-504596D01*
X11836450Y-518210D01*
X11838686Y-531672D01*
X11841835Y-541883D01*
X11842292Y-545490D01*
X11841429Y-549046D01*
X11839346Y-552043D01*
X11162995Y-1228394D01*
X11159693Y-1230630D01*
X11155781Y-1231392D01*
X9164218Y-1231392D01*
X9160306Y-1230630D01*
X9157004Y-1228394D01*
X6860235Y1068324D01*
X6854037Y1073454D01*
X6847331Y1077010D01*
X6840118Y1079195D01*
X6832092Y1080008D01*
X6045708Y1080008D01*
X6041796Y1080820D01*
X6038494Y1083056D01*
X6036310Y1086408D01*
X6034786Y1090269D01*
X6027826Y1102918D01*
X6019342Y1114552D01*
X6009487Y1125067D01*
X5998362Y1134262D01*
X5986221Y1141984D01*
X5973165Y1148130D01*
X5959449Y1152601D01*
X5945276Y1155293D01*
X5930595Y1156208D01*
X5753404Y1156208D01*
X5738723Y1155293D01*
X5724550Y1152601D01*
X5710834Y1148130D01*
X5697778Y1141984D01*
X5685637Y1134262D01*
X5674512Y1125067D01*
X5664657Y1114552D01*
X5656173Y1102918D01*
X5649214Y1090269D01*
X5643930Y1076858D01*
X5640324Y1062888D01*
X5638546Y1048613D01*
X5638546Y1034186D01*
X5640324Y1019911D01*
X5643930Y1005941D01*
X5649214Y992530D01*
X5656173Y979881D01*
X5664657Y968248D01*
X5674512Y957732D01*
X5685637Y948537D01*
X5697778Y940816D01*
X5710834Y934669D01*
X5724550Y930198D01*
X5738723Y927506D01*
X5753404Y926592D01*
X5930595Y926592D01*
X5945276Y927506D01*
X5959449Y930198D01*
X5973165Y934669D01*
X5986221Y940816D01*
X5998362Y948537D01*
X6009487Y957732D01*
X6019342Y968248D01*
X6027826Y979881D01*
X6034786Y992530D01*
X6036310Y996391D01*
X6038494Y999744D01*
X6041796Y1001979D01*
X6045708Y1002792D01*
X6812381Y1002792D01*
X6816293Y1002030D01*
X6819595Y999794D01*
X9116364Y-1296924D01*
X9122562Y-1302054D01*
X9129268Y-1305610D01*
X9136481Y-1307795D01*
G37*
G36*
X5753404Y-1257808D02*
G01*
X5930595Y-1257808D01*
X5945276Y-1256893D01*
X5959449Y-1254201D01*
X5973165Y-1249730D01*
X5986221Y-1243584D01*
X5998362Y-1235862D01*
X6009487Y-1226667D01*
X6019342Y-1216152D01*
X6027826Y-1204518D01*
X6034786Y-1191869D01*
X6040069Y-1178458D01*
X6043676Y-1164488D01*
X6045454Y-1150213D01*
X6045454Y-1135786D01*
X6043676Y-1121511D01*
X6040069Y-1107541D01*
X6034786Y-1094130D01*
X6027826Y-1081481D01*
X6019342Y-1069848D01*
X6009487Y-1059332D01*
X5998362Y-1050137D01*
X5986221Y-1042416D01*
X5973165Y-1036269D01*
X5959449Y-1031798D01*
X5945276Y-1029106D01*
X5930595Y-1028192D01*
X5753404Y-1028192D01*
X5738723Y-1029106D01*
X5724550Y-1031798D01*
X5710834Y-1036269D01*
X5697778Y-1042416D01*
X5685637Y-1050137D01*
X5674512Y-1059332D01*
X5664657Y-1069848D01*
X5656173Y-1081481D01*
X5649214Y-1094130D01*
X5643930Y-1107541D01*
X5640324Y-1121511D01*
X5638546Y-1135786D01*
X5638546Y-1150213D01*
X5640324Y-1164488D01*
X5643930Y-1178458D01*
X5649214Y-1191869D01*
X5656173Y-1204518D01*
X5664657Y-1216152D01*
X5674512Y-1226667D01*
X5685637Y-1235862D01*
X5697778Y-1243584D01*
X5710834Y-1249730D01*
X5724550Y-1254201D01*
X5738723Y-1256893D01*
G37*
G36*
X4445508Y-1054608D02*
G01*
X5206492Y-1054608D01*
X5214518Y-1053795D01*
X5221732Y-1051610D01*
X5228437Y-1048054D01*
X5234635Y-1042924D01*
X5601004Y-676605D01*
X5604306Y-674370D01*
X5608218Y-673608D01*
X5638292Y-673608D01*
X5642203Y-674420D01*
X5645505Y-676656D01*
X5647690Y-680008D01*
X5649214Y-683869D01*
X5656173Y-696518D01*
X5664657Y-708152D01*
X5674512Y-718667D01*
X5685637Y-727862D01*
X5697778Y-735584D01*
X5710834Y-741730D01*
X5724550Y-746201D01*
X5738723Y-748893D01*
X5753404Y-749808D01*
X5930595Y-749808D01*
X5945276Y-748893D01*
X5959449Y-746201D01*
X5973165Y-741730D01*
X5986221Y-735584D01*
X5998362Y-727862D01*
X6009487Y-718667D01*
X6019342Y-708152D01*
X6027826Y-696518D01*
X6034786Y-683869D01*
X6040069Y-670458D01*
X6043676Y-656488D01*
X6045454Y-642213D01*
X6045454Y-627786D01*
X6043676Y-613511D01*
X6040069Y-599541D01*
X6034786Y-586130D01*
X6027826Y-573481D01*
X6019342Y-561848D01*
X6009487Y-551332D01*
X5998362Y-542137D01*
X5986221Y-534416D01*
X5973165Y-528269D01*
X5959449Y-523798D01*
X5945276Y-521106D01*
X5930595Y-520192D01*
X5753404Y-520192D01*
X5738723Y-521106D01*
X5724550Y-523798D01*
X5710834Y-528269D01*
X5697778Y-534416D01*
X5685637Y-542137D01*
X5674512Y-551332D01*
X5664657Y-561848D01*
X5656173Y-573481D01*
X5649214Y-586130D01*
X5647690Y-589991D01*
X5645505Y-593344D01*
X5642203Y-595579D01*
X5638292Y-596392D01*
X5588508Y-596392D01*
X5580481Y-597204D01*
X5573268Y-599389D01*
X5566562Y-602945D01*
X5560364Y-608076D01*
X5193995Y-974394D01*
X5190693Y-976630D01*
X5186781Y-977392D01*
X4465218Y-977392D01*
X4461306Y-976630D01*
X4458004Y-974394D01*
X4359605Y-875995D01*
X4357370Y-872693D01*
X4356608Y-868781D01*
X4356608Y-528218D01*
X4357370Y-524306D01*
X4359605Y-521004D01*
X4645152Y-235458D01*
X4648352Y-233273D01*
X4652213Y-232511D01*
X4656074Y-233222D01*
X4663541Y-236169D01*
X4677511Y-239775D01*
X4691786Y-241554D01*
X4706213Y-241554D01*
X4720488Y-239775D01*
X4734458Y-236169D01*
X4747869Y-230886D01*
X4760518Y-223926D01*
X4772152Y-215442D01*
X4782667Y-205587D01*
X4791862Y-194462D01*
X4799584Y-182321D01*
X4805730Y-169265D01*
X4810201Y-155549D01*
X4812893Y-141376D01*
X4813808Y-127000D01*
X4812893Y-112623D01*
X4810201Y-98450D01*
X4805730Y-84734D01*
X4799584Y-71678D01*
X4791862Y-59537D01*
X4782667Y-48412D01*
X4772152Y-38557D01*
X4760518Y-30073D01*
X4747869Y-23114D01*
X4734458Y-17830D01*
X4720488Y-14224D01*
X4706213Y-12446D01*
X4691786Y-12446D01*
X4677511Y-14224D01*
X4663541Y-17830D01*
X4650130Y-23114D01*
X4637481Y-30073D01*
X4625848Y-38557D01*
X4615332Y-48412D01*
X4606137Y-59537D01*
X4598416Y-71678D01*
X4592269Y-84734D01*
X4587798Y-98450D01*
X4585106Y-112623D01*
X4584192Y-127000D01*
X4585106Y-141376D01*
X4587798Y-155549D01*
X4592370Y-169519D01*
X4593336Y-173532D01*
X4592624Y-177596D01*
X4590389Y-181000D01*
X4291076Y-480364D01*
X4285945Y-486562D01*
X4282389Y-493268D01*
X4280204Y-500481D01*
X4279392Y-508508D01*
X4279392Y-888492D01*
X4280204Y-896518D01*
X4282389Y-903732D01*
X4285945Y-910437D01*
X4291076Y-916635D01*
X4417364Y-1042924D01*
X4423562Y-1048054D01*
X4430268Y-1051610D01*
X4437481Y-1053795D01*
G37*
G36*
X9271508Y-1054608D02*
G01*
X10921492Y-1054608D01*
X10929518Y-1053795D01*
X10936732Y-1051610D01*
X10943437Y-1048054D01*
X10949635Y-1042924D01*
X11894007Y-98602D01*
X11897106Y-96469D01*
X11900763Y-95656D01*
X11904522Y-96215D01*
X11911025Y-98450D01*
X11924385Y-101193D01*
X11938000Y-102108D01*
X11951614Y-101193D01*
X11964974Y-98450D01*
X11977878Y-93980D01*
X11990019Y-87833D01*
X12001246Y-80111D01*
X12011406Y-70967D01*
X12020194Y-60553D01*
X12027509Y-49072D01*
X12033250Y-36677D01*
X12037314Y-23672D01*
X12039549Y-10210D01*
X12040006Y3403D01*
X12038685Y16967D01*
X12035485Y30226D01*
X12030608Y42976D01*
X12024055Y54914D01*
X12015978Y65887D01*
X12006478Y75692D01*
X11995759Y84175D01*
X11984024Y91135D01*
X11971477Y96418D01*
X11958320Y100025D01*
X11944807Y101854D01*
X11931192Y101854D01*
X11917680Y100025D01*
X11904522Y96418D01*
X11891975Y91135D01*
X11880240Y84175D01*
X11869521Y75692D01*
X11860022Y65887D01*
X11851944Y54914D01*
X11845391Y42976D01*
X11840514Y30226D01*
X11837314Y16967D01*
X11835993Y3403D01*
X11836450Y-10210D01*
X11838686Y-23672D01*
X11841835Y-33883D01*
X11842292Y-37490D01*
X11841429Y-41046D01*
X11839346Y-44043D01*
X10908995Y-974394D01*
X10905693Y-976630D01*
X10901781Y-977392D01*
X9291218Y-977392D01*
X9287306Y-976630D01*
X9284004Y-974394D01*
X6987235Y1322324D01*
X6981037Y1327454D01*
X6974331Y1331010D01*
X6967118Y1333195D01*
X6959092Y1334008D01*
X6045708Y1334008D01*
X6041796Y1334820D01*
X6038494Y1337056D01*
X6036310Y1340408D01*
X6034786Y1344269D01*
X6027826Y1356918D01*
X6019342Y1368552D01*
X6009487Y1379067D01*
X5998362Y1388262D01*
X5986221Y1395984D01*
X5973165Y1402130D01*
X5959449Y1406601D01*
X5945276Y1409293D01*
X5930595Y1410208D01*
X5753404Y1410208D01*
X5738723Y1409293D01*
X5724550Y1406601D01*
X5710834Y1402130D01*
X5697778Y1395984D01*
X5685637Y1388262D01*
X5674512Y1379067D01*
X5664657Y1368552D01*
X5656173Y1356918D01*
X5649214Y1344269D01*
X5643930Y1330858D01*
X5640324Y1316888D01*
X5638546Y1302613D01*
X5638546Y1288186D01*
X5640324Y1273911D01*
X5643930Y1259941D01*
X5649214Y1246530D01*
X5656173Y1233881D01*
X5664657Y1222248D01*
X5674512Y1211732D01*
X5685637Y1202537D01*
X5697778Y1194816D01*
X5710834Y1188669D01*
X5724550Y1184198D01*
X5738723Y1181506D01*
X5753404Y1180592D01*
X5930595Y1180592D01*
X5945276Y1181506D01*
X5959449Y1184198D01*
X5973165Y1188669D01*
X5986221Y1194816D01*
X5998362Y1202537D01*
X6009487Y1211732D01*
X6019342Y1222248D01*
X6027826Y1233881D01*
X6034786Y1246530D01*
X6036310Y1250391D01*
X6038494Y1253744D01*
X6041796Y1255979D01*
X6045708Y1256792D01*
X6939381Y1256792D01*
X6943293Y1256030D01*
X6946595Y1253794D01*
X9243364Y-1042924D01*
X9249562Y-1048054D01*
X9256268Y-1051610D01*
X9263481Y-1053795D01*
G37*
G36*
X5937250Y-1003401D02*
G01*
X5945276Y-1002893D01*
X5959449Y-1000201D01*
X5973165Y-995730D01*
X5986221Y-989584D01*
X5998362Y-981862D01*
X6009487Y-972667D01*
X6019342Y-962152D01*
X6027826Y-950518D01*
X6033719Y-939800D01*
X5937250Y-939800D01*
G37*
G36*
X5746750Y-1003401D02*
G01*
X5746750Y-939800D01*
X5650280Y-939800D01*
X5656173Y-950518D01*
X5664657Y-962152D01*
X5674512Y-972667D01*
X5685637Y-981862D01*
X5697778Y-989584D01*
X5710834Y-995730D01*
X5724550Y-1000201D01*
X5738723Y-1002893D01*
G37*
G36*
X4572508Y-927608D02*
G01*
X5079492Y-927608D01*
X5087518Y-926795D01*
X5094732Y-924610D01*
X5101437Y-921054D01*
X5107635Y-915924D01*
X5601004Y-422605D01*
X5604306Y-420370D01*
X5608218Y-419608D01*
X5638292Y-419608D01*
X5642203Y-420420D01*
X5645505Y-422656D01*
X5647690Y-426008D01*
X5649214Y-429869D01*
X5656173Y-442518D01*
X5664657Y-454151D01*
X5674512Y-464667D01*
X5685637Y-473862D01*
X5697778Y-481584D01*
X5710834Y-487730D01*
X5724550Y-492201D01*
X5738723Y-494893D01*
X5753404Y-495808D01*
X5930595Y-495808D01*
X5945276Y-494893D01*
X5959449Y-492201D01*
X5973165Y-487730D01*
X5986221Y-481584D01*
X5998362Y-473862D01*
X6009487Y-464667D01*
X6019342Y-454151D01*
X6027826Y-442518D01*
X6034786Y-429869D01*
X6040069Y-416458D01*
X6043676Y-402488D01*
X6045454Y-388213D01*
X6045454Y-373786D01*
X6043676Y-359511D01*
X6040069Y-345541D01*
X6034786Y-332130D01*
X6027826Y-319481D01*
X6019342Y-307848D01*
X6009487Y-297332D01*
X5998362Y-288137D01*
X5986221Y-280416D01*
X5973165Y-274269D01*
X5959449Y-269798D01*
X5945276Y-267106D01*
X5930595Y-266192D01*
X5753404Y-266192D01*
X5738723Y-267106D01*
X5724550Y-269798D01*
X5710834Y-274269D01*
X5697778Y-280416D01*
X5685637Y-288137D01*
X5674512Y-297332D01*
X5664657Y-307848D01*
X5656173Y-319481D01*
X5649214Y-332130D01*
X5647690Y-335991D01*
X5645505Y-339344D01*
X5642203Y-341579D01*
X5638292Y-342392D01*
X5588508Y-342392D01*
X5580481Y-343204D01*
X5573268Y-345389D01*
X5566562Y-348945D01*
X5560364Y-354076D01*
X5066995Y-847394D01*
X5063693Y-849630D01*
X5059781Y-850392D01*
X4592218Y-850392D01*
X4588306Y-849630D01*
X4585004Y-847394D01*
X4486605Y-748995D01*
X4484370Y-745693D01*
X4483608Y-741781D01*
X4483608Y-655218D01*
X4484370Y-651306D01*
X4486605Y-648004D01*
X4645152Y-489458D01*
X4648352Y-487273D01*
X4652213Y-486511D01*
X4656074Y-487222D01*
X4663541Y-490169D01*
X4677511Y-493776D01*
X4691786Y-495554D01*
X4706213Y-495554D01*
X4720488Y-493776D01*
X4734458Y-490169D01*
X4747869Y-484885D01*
X4760518Y-477926D01*
X4772152Y-469442D01*
X4782667Y-459587D01*
X4791862Y-448462D01*
X4799584Y-436321D01*
X4805730Y-423265D01*
X4810201Y-409549D01*
X4812893Y-395376D01*
X4813808Y-381000D01*
X4812893Y-366623D01*
X4810201Y-352450D01*
X4805730Y-338734D01*
X4799584Y-325678D01*
X4791862Y-313537D01*
X4782667Y-302412D01*
X4772152Y-292557D01*
X4760518Y-284073D01*
X4747869Y-277114D01*
X4734458Y-271830D01*
X4720488Y-268224D01*
X4706213Y-266446D01*
X4691786Y-266446D01*
X4677511Y-268224D01*
X4663541Y-271830D01*
X4650130Y-277114D01*
X4637481Y-284073D01*
X4625848Y-292557D01*
X4615332Y-302412D01*
X4606137Y-313537D01*
X4598416Y-325678D01*
X4592269Y-338734D01*
X4587798Y-352450D01*
X4585106Y-366623D01*
X4584192Y-381000D01*
X4585106Y-395376D01*
X4587798Y-409549D01*
X4592370Y-423519D01*
X4593336Y-427532D01*
X4592624Y-431596D01*
X4590389Y-435000D01*
X4418076Y-607364D01*
X4412945Y-613562D01*
X4409389Y-620268D01*
X4407204Y-627481D01*
X4406392Y-635508D01*
X4406392Y-761492D01*
X4407204Y-769518D01*
X4409389Y-776732D01*
X4412945Y-783437D01*
X4418076Y-789635D01*
X4544364Y-915924D01*
X4550562Y-921054D01*
X4557268Y-924610D01*
X4564481Y-926795D01*
G37*
G36*
X10579404Y-876808D02*
G01*
X10756595Y-876808D01*
X10771276Y-875893D01*
X10785449Y-873201D01*
X10799165Y-868730D01*
X10812221Y-862584D01*
X10824362Y-854862D01*
X10835487Y-845667D01*
X10845342Y-835152D01*
X10853826Y-823518D01*
X10860786Y-810869D01*
X10866069Y-797458D01*
X10869676Y-783488D01*
X10871454Y-769213D01*
X10871454Y-754786D01*
X10869676Y-740511D01*
X10866069Y-726541D01*
X10860786Y-713130D01*
X10853826Y-700481D01*
X10845342Y-688848D01*
X10835487Y-678332D01*
X10824362Y-669137D01*
X10812221Y-661416D01*
X10799165Y-655269D01*
X10785449Y-650798D01*
X10771276Y-648106D01*
X10756595Y-647192D01*
X10579404Y-647192D01*
X10564723Y-648106D01*
X10550550Y-650798D01*
X10536834Y-655269D01*
X10523778Y-661416D01*
X10511637Y-669137D01*
X10500512Y-678332D01*
X10490657Y-688848D01*
X10482173Y-700481D01*
X10475214Y-713130D01*
X10469930Y-726541D01*
X10466324Y-740511D01*
X10464546Y-754786D01*
X10464546Y-769213D01*
X10466324Y-783488D01*
X10469930Y-797458D01*
X10475214Y-810869D01*
X10482173Y-823518D01*
X10490657Y-835152D01*
X10500512Y-845667D01*
X10511637Y-854862D01*
X10523778Y-862584D01*
X10536834Y-868730D01*
X10550550Y-873201D01*
X10564723Y-875893D01*
G37*
G36*
X11938000Y-864108D02*
G01*
X11951614Y-863193D01*
X11964974Y-860450D01*
X11977878Y-855980D01*
X11990019Y-849833D01*
X12001246Y-842111D01*
X12011406Y-832967D01*
X12020194Y-822553D01*
X12027509Y-811072D01*
X12033250Y-798677D01*
X12037314Y-785672D01*
X12039549Y-772210D01*
X12040006Y-758596D01*
X12038685Y-745032D01*
X12035485Y-731774D01*
X12030608Y-719023D01*
X12024055Y-707085D01*
X12015978Y-696112D01*
X12006478Y-686308D01*
X11995759Y-677824D01*
X11984024Y-670864D01*
X11971477Y-665581D01*
X11958320Y-661974D01*
X11944807Y-660146D01*
X11931192Y-660146D01*
X11917680Y-661974D01*
X11904522Y-665581D01*
X11891975Y-670864D01*
X11880240Y-677824D01*
X11869521Y-686308D01*
X11860022Y-696112D01*
X11851944Y-707085D01*
X11845391Y-719023D01*
X11840514Y-731774D01*
X11837314Y-745032D01*
X11835993Y-758596D01*
X11836450Y-772210D01*
X11838686Y-785672D01*
X11842750Y-798677D01*
X11848490Y-811072D01*
X11855805Y-822553D01*
X11864594Y-832967D01*
X11874754Y-842111D01*
X11885980Y-849833D01*
X11898122Y-855980D01*
X11911025Y-860450D01*
X11924385Y-863193D01*
G37*
G36*
X5937250Y-838200D02*
G01*
X6033719Y-838200D01*
X6027826Y-827481D01*
X6019342Y-815848D01*
X6009487Y-805332D01*
X5998362Y-796137D01*
X5986221Y-788416D01*
X5973165Y-782269D01*
X5959449Y-777798D01*
X5945276Y-775106D01*
X5937250Y-774598D01*
G37*
G36*
X5650280Y-838200D02*
G01*
X5746750Y-838200D01*
X5746750Y-774598D01*
X5738723Y-775106D01*
X5724550Y-777798D01*
X5710834Y-782269D01*
X5697778Y-788416D01*
X5685637Y-796137D01*
X5674512Y-805332D01*
X5664657Y-815848D01*
X5656173Y-827481D01*
G37*
G36*
X10579404Y-622808D02*
G01*
X10756595Y-622808D01*
X10771276Y-621893D01*
X10785449Y-619201D01*
X10799165Y-614730D01*
X10812221Y-608584D01*
X10824362Y-600862D01*
X10835487Y-591667D01*
X10845342Y-581152D01*
X10853826Y-569518D01*
X10860786Y-556869D01*
X10866069Y-543458D01*
X10869676Y-529488D01*
X10871454Y-515213D01*
X10871454Y-500786D01*
X10869676Y-486511D01*
X10866069Y-472541D01*
X10860786Y-459130D01*
X10853826Y-446481D01*
X10845342Y-434848D01*
X10835487Y-424332D01*
X10824362Y-415137D01*
X10812221Y-407416D01*
X10799165Y-401269D01*
X10785449Y-396798D01*
X10771276Y-394106D01*
X10756595Y-393192D01*
X10579404Y-393192D01*
X10564723Y-394106D01*
X10550550Y-396798D01*
X10536834Y-401269D01*
X10523778Y-407416D01*
X10511637Y-415137D01*
X10500512Y-424332D01*
X10490657Y-434848D01*
X10482173Y-446481D01*
X10475214Y-459130D01*
X10469930Y-472541D01*
X10466324Y-486511D01*
X10464546Y-500786D01*
X10464546Y-515213D01*
X10466324Y-529488D01*
X10469930Y-543458D01*
X10475214Y-556869D01*
X10482173Y-569518D01*
X10490657Y-581152D01*
X10500512Y-591667D01*
X10511637Y-600862D01*
X10523778Y-608584D01*
X10536834Y-614730D01*
X10550550Y-619201D01*
X10564723Y-621893D01*
G37*
G36*
X4864658Y-495808D02*
G01*
X5041341Y-495808D01*
X5047640Y-495096D01*
X5053126Y-493166D01*
X5058003Y-490118D01*
X5062118Y-486003D01*
X5065166Y-481126D01*
X5067096Y-475640D01*
X5067808Y-469341D01*
X5067808Y-292658D01*
X5067096Y-286359D01*
X5065166Y-280873D01*
X5062118Y-275996D01*
X5058003Y-271881D01*
X5053126Y-268833D01*
X5047640Y-266903D01*
X5041341Y-266192D01*
X4864658Y-266192D01*
X4858359Y-266903D01*
X4852873Y-268833D01*
X4847996Y-271881D01*
X4843881Y-275996D01*
X4840833Y-280873D01*
X4838903Y-286359D01*
X4838192Y-292658D01*
X4838192Y-469341D01*
X4838903Y-475640D01*
X4840833Y-481126D01*
X4843881Y-486003D01*
X4847996Y-490118D01*
X4852873Y-493166D01*
X4858359Y-495096D01*
G37*
G36*
X10579404Y-368808D02*
G01*
X10756595Y-368808D01*
X10771276Y-367893D01*
X10785449Y-365201D01*
X10799165Y-360730D01*
X10812221Y-354584D01*
X10824362Y-346862D01*
X10835487Y-337667D01*
X10845342Y-327152D01*
X10853826Y-315518D01*
X10860786Y-302869D01*
X10866069Y-289458D01*
X10869676Y-275488D01*
X10871454Y-261213D01*
X10871454Y-246786D01*
X10869676Y-232511D01*
X10866069Y-218541D01*
X10860786Y-205130D01*
X10853826Y-192481D01*
X10845342Y-180848D01*
X10835487Y-170332D01*
X10824362Y-161137D01*
X10812221Y-153416D01*
X10799165Y-147269D01*
X10785449Y-142798D01*
X10771276Y-140106D01*
X10756595Y-139192D01*
X10579404Y-139192D01*
X10564723Y-140106D01*
X10550550Y-142798D01*
X10536834Y-147269D01*
X10523778Y-153416D01*
X10511637Y-161137D01*
X10500512Y-170332D01*
X10490657Y-180848D01*
X10482173Y-192481D01*
X10475214Y-205130D01*
X10469930Y-218541D01*
X10466324Y-232511D01*
X10464546Y-246786D01*
X10464546Y-261213D01*
X10466324Y-275488D01*
X10469930Y-289458D01*
X10475214Y-302869D01*
X10482173Y-315518D01*
X10490657Y-327152D01*
X10500512Y-337667D01*
X10511637Y-346862D01*
X10523778Y-354584D01*
X10536834Y-360730D01*
X10550550Y-365201D01*
X10564723Y-367893D01*
G37*
G36*
X11938000Y-356108D02*
G01*
X11951614Y-355193D01*
X11964974Y-352450D01*
X11977878Y-347980D01*
X11990019Y-341833D01*
X12001246Y-334111D01*
X12011406Y-324967D01*
X12020194Y-314553D01*
X12027509Y-303072D01*
X12033250Y-290677D01*
X12037314Y-277672D01*
X12039549Y-264210D01*
X12040006Y-250596D01*
X12038685Y-237032D01*
X12035485Y-223774D01*
X12030608Y-211023D01*
X12024055Y-199085D01*
X12015978Y-188112D01*
X12006478Y-178308D01*
X11995759Y-169824D01*
X11984024Y-162864D01*
X11971477Y-157581D01*
X11958320Y-153974D01*
X11944807Y-152146D01*
X11931192Y-152146D01*
X11917680Y-153974D01*
X11904522Y-157581D01*
X11891975Y-162864D01*
X11880240Y-169824D01*
X11869521Y-178308D01*
X11860022Y-188112D01*
X11851944Y-199085D01*
X11845391Y-211023D01*
X11840514Y-223774D01*
X11837314Y-237032D01*
X11835993Y-250596D01*
X11836450Y-264210D01*
X11838686Y-277672D01*
X11842750Y-290677D01*
X11848490Y-303072D01*
X11855805Y-314553D01*
X11864594Y-324967D01*
X11874754Y-334111D01*
X11885980Y-341833D01*
X11898122Y-347980D01*
X11911025Y-352450D01*
X11924385Y-355193D01*
G37*
G36*
X5753404Y-241808D02*
G01*
X5930595Y-241808D01*
X5945276Y-240893D01*
X5959449Y-238201D01*
X5973165Y-233730D01*
X5986221Y-227584D01*
X5998362Y-219862D01*
X6009487Y-210667D01*
X6019342Y-200152D01*
X6027826Y-188518D01*
X6034786Y-175869D01*
X6040069Y-162458D01*
X6043676Y-148488D01*
X6045454Y-134213D01*
X6045454Y-119786D01*
X6043676Y-105511D01*
X6040069Y-91541D01*
X6034786Y-78130D01*
X6027826Y-65481D01*
X6019342Y-53848D01*
X6009487Y-43332D01*
X5998362Y-34137D01*
X5986221Y-26416D01*
X5973165Y-20269D01*
X5959449Y-15798D01*
X5945276Y-13106D01*
X5930595Y-12192D01*
X5753404Y-12192D01*
X5738723Y-13106D01*
X5724550Y-15798D01*
X5710834Y-20269D01*
X5697778Y-26416D01*
X5685637Y-34137D01*
X5674512Y-43332D01*
X5664657Y-53848D01*
X5656173Y-65481D01*
X5649214Y-78130D01*
X5647690Y-81991D01*
X5645505Y-85344D01*
X5642203Y-87579D01*
X5638292Y-88392D01*
X5067909Y-88392D01*
X5064150Y-87680D01*
X5060950Y-85648D01*
X5058714Y-82550D01*
X5053584Y-71678D01*
X5045862Y-59537D01*
X5036667Y-48412D01*
X5026152Y-38557D01*
X5014518Y-30073D01*
X5001869Y-23114D01*
X4988458Y-17830D01*
X4974488Y-14224D01*
X4960213Y-12446D01*
X4945786Y-12446D01*
X4931511Y-14224D01*
X4917541Y-17830D01*
X4904130Y-23114D01*
X4891481Y-30073D01*
X4879848Y-38557D01*
X4869332Y-48412D01*
X4860137Y-59537D01*
X4852416Y-71678D01*
X4846269Y-84734D01*
X4841798Y-98450D01*
X4839106Y-112623D01*
X4838192Y-127000D01*
X4839106Y-141376D01*
X4841798Y-155549D01*
X4846269Y-169265D01*
X4852416Y-182321D01*
X4860137Y-194462D01*
X4869332Y-205587D01*
X4879848Y-215442D01*
X4891481Y-223926D01*
X4904130Y-230886D01*
X4917541Y-236169D01*
X4931511Y-239775D01*
X4945786Y-241554D01*
X4960213Y-241554D01*
X4974488Y-239775D01*
X4988458Y-236169D01*
X5001869Y-230886D01*
X5014518Y-223926D01*
X5026152Y-215442D01*
X5036667Y-205587D01*
X5045862Y-194462D01*
X5053584Y-182321D01*
X5058714Y-171450D01*
X5060950Y-168351D01*
X5064150Y-166319D01*
X5067909Y-165608D01*
X5638292Y-165608D01*
X5642203Y-166420D01*
X5645505Y-168656D01*
X5647690Y-172008D01*
X5649214Y-175869D01*
X5656173Y-188518D01*
X5664657Y-200152D01*
X5674512Y-210667D01*
X5685637Y-219862D01*
X5697778Y-227584D01*
X5710834Y-233730D01*
X5724550Y-238201D01*
X5738723Y-240893D01*
G37*
G36*
X10579404Y-114808D02*
G01*
X10756595Y-114808D01*
X10771276Y-113893D01*
X10785449Y-111201D01*
X10799165Y-106730D01*
X10812221Y-100584D01*
X10824362Y-92862D01*
X10835487Y-83667D01*
X10845342Y-73152D01*
X10853826Y-61518D01*
X10860786Y-48869D01*
X10866069Y-35458D01*
X10869676Y-21488D01*
X10871454Y-7213D01*
X10871454Y7213D01*
X10869676Y21488D01*
X10866069Y35458D01*
X10860786Y48869D01*
X10853826Y61518D01*
X10845342Y73152D01*
X10835487Y83667D01*
X10824362Y92862D01*
X10812221Y100584D01*
X10799165Y106730D01*
X10785449Y111201D01*
X10771276Y113893D01*
X10756595Y114808D01*
X10579404Y114808D01*
X10564723Y113893D01*
X10550550Y111201D01*
X10536834Y106730D01*
X10523778Y100584D01*
X10511637Y92862D01*
X10500512Y83667D01*
X10490657Y73152D01*
X10482173Y61518D01*
X10475214Y48869D01*
X10469930Y35458D01*
X10466324Y21488D01*
X10464546Y7213D01*
X10464546Y-7213D01*
X10466324Y-21488D01*
X10469930Y-35458D01*
X10475214Y-48869D01*
X10482173Y-61518D01*
X10490657Y-73152D01*
X10500512Y-83667D01*
X10511637Y-92862D01*
X10523778Y-100584D01*
X10536834Y-106730D01*
X10550550Y-111201D01*
X10564723Y-113893D01*
G37*
G36*
X12192000Y-102108D02*
G01*
X12205614Y-101193D01*
X12218974Y-98450D01*
X12231878Y-93980D01*
X12244019Y-87833D01*
X12255246Y-80111D01*
X12265406Y-70967D01*
X12274194Y-60553D01*
X12281509Y-49072D01*
X12287250Y-36677D01*
X12291314Y-23672D01*
X12293549Y-10210D01*
X12294006Y3403D01*
X12292685Y16967D01*
X12289485Y30226D01*
X12284608Y42976D01*
X12278055Y54914D01*
X12269978Y65887D01*
X12260478Y75692D01*
X12249759Y84175D01*
X12238024Y91135D01*
X12225477Y96418D01*
X12212320Y100025D01*
X12198807Y101854D01*
X12185192Y101854D01*
X12171680Y100025D01*
X12158522Y96418D01*
X12145975Y91135D01*
X12134240Y84175D01*
X12123521Y75692D01*
X12114022Y65887D01*
X12105944Y54914D01*
X12099391Y42976D01*
X12094514Y30226D01*
X12091314Y16967D01*
X12089993Y3403D01*
X12090450Y-10210D01*
X12092686Y-23672D01*
X12096750Y-36677D01*
X12102490Y-49072D01*
X12109805Y-60553D01*
X12118594Y-70967D01*
X12128754Y-80111D01*
X12139980Y-87833D01*
X12152122Y-93980D01*
X12165025Y-98450D01*
X12178385Y-101193D01*
G37*
G36*
X11550192Y-101854D02*
G01*
X11563807Y-101854D01*
X11577320Y-100025D01*
X11590477Y-96418D01*
X11603024Y-91135D01*
X11614759Y-84175D01*
X11625478Y-75692D01*
X11634978Y-65887D01*
X11643055Y-54914D01*
X11649608Y-42976D01*
X11654485Y-30226D01*
X11657685Y-16967D01*
X11659006Y-3403D01*
X11658549Y10210D01*
X11656314Y23672D01*
X11652250Y36677D01*
X11646509Y49072D01*
X11639194Y60553D01*
X11630406Y70967D01*
X11620246Y80111D01*
X11609019Y87833D01*
X11596878Y93980D01*
X11583974Y98450D01*
X11570614Y101193D01*
X11557000Y102108D01*
X11543385Y101193D01*
X11530025Y98450D01*
X11517122Y93980D01*
X11504980Y87833D01*
X11493754Y80111D01*
X11483594Y70967D01*
X11474805Y60553D01*
X11467490Y49072D01*
X11461750Y36677D01*
X11457686Y23672D01*
X11455450Y10210D01*
X11454993Y-3403D01*
X11456314Y-16967D01*
X11459514Y-30226D01*
X11464391Y-42976D01*
X11470944Y-54914D01*
X11479022Y-65887D01*
X11488521Y-75692D01*
X11499240Y-84175D01*
X11510975Y-91135D01*
X11523522Y-96418D01*
X11536680Y-100025D01*
G37*
G36*
X11296192Y-101854D02*
G01*
X11309807Y-101854D01*
X11323320Y-100025D01*
X11336477Y-96418D01*
X11349024Y-91135D01*
X11360759Y-84175D01*
X11371478Y-75692D01*
X11380978Y-65887D01*
X11389055Y-54914D01*
X11395608Y-42976D01*
X11400485Y-30226D01*
X11403685Y-16967D01*
X11405006Y-3403D01*
X11404549Y10210D01*
X11402314Y23672D01*
X11398250Y36677D01*
X11392509Y49072D01*
X11385194Y60553D01*
X11376406Y70967D01*
X11366246Y80111D01*
X11355019Y87833D01*
X11342878Y93980D01*
X11329974Y98450D01*
X11316614Y101193D01*
X11303000Y102108D01*
X11289385Y101193D01*
X11276025Y98450D01*
X11263122Y93980D01*
X11250980Y87833D01*
X11239754Y80111D01*
X11229594Y70967D01*
X11220805Y60553D01*
X11213490Y49072D01*
X11207750Y36677D01*
X11203686Y23672D01*
X11201450Y10210D01*
X11200993Y-3403D01*
X11202314Y-16967D01*
X11205514Y-30226D01*
X11210391Y-42976D01*
X11216944Y-54914D01*
X11225022Y-65887D01*
X11234521Y-75692D01*
X11245240Y-84175D01*
X11256975Y-91135D01*
X11269522Y-96418D01*
X11282680Y-100025D01*
G37*
G36*
X12401550Y-91643D02*
G01*
X12401550Y-44450D01*
X12354356Y-44450D01*
X12356490Y-49072D01*
X12363805Y-60553D01*
X12372594Y-70967D01*
X12382754Y-80111D01*
X12393980Y-87833D01*
G37*
G36*
X12490450Y-91643D02*
G01*
X12498019Y-87833D01*
X12509246Y-80111D01*
X12519406Y-70967D01*
X12528194Y-60553D01*
X12535509Y-49072D01*
X12537643Y-44450D01*
X12490450Y-44450D01*
G37*
G36*
X5753404Y12192D02*
G01*
X5930595Y12192D01*
X5945276Y13106D01*
X5959449Y15798D01*
X5973165Y20269D01*
X5986221Y26416D01*
X5998362Y34137D01*
X6009487Y43332D01*
X6019342Y53848D01*
X6027826Y65481D01*
X6034786Y78130D01*
X6040069Y91541D01*
X6043676Y105511D01*
X6045454Y119786D01*
X6045454Y134213D01*
X6043676Y148488D01*
X6040069Y162458D01*
X6034786Y175869D01*
X6027826Y188518D01*
X6019342Y200152D01*
X6009487Y210667D01*
X5998362Y219862D01*
X5986221Y227584D01*
X5973165Y233730D01*
X5959449Y238201D01*
X5945276Y240893D01*
X5930595Y241808D01*
X5753404Y241808D01*
X5738723Y240893D01*
X5724550Y238201D01*
X5710834Y233730D01*
X5697778Y227584D01*
X5685637Y219862D01*
X5674512Y210667D01*
X5664657Y200152D01*
X5656173Y188518D01*
X5649214Y175869D01*
X5647690Y172008D01*
X5645505Y168656D01*
X5642203Y166420D01*
X5638292Y165608D01*
X5067909Y165608D01*
X5064150Y166319D01*
X5060950Y168351D01*
X5058714Y171450D01*
X5053584Y182321D01*
X5045862Y194462D01*
X5036667Y205587D01*
X5026152Y215442D01*
X5014518Y223926D01*
X5001869Y230886D01*
X4988458Y236169D01*
X4974488Y239775D01*
X4960213Y241554D01*
X4945786Y241554D01*
X4931511Y239775D01*
X4917541Y236169D01*
X4904130Y230886D01*
X4891481Y223926D01*
X4879848Y215442D01*
X4869332Y205587D01*
X4860137Y194462D01*
X4852416Y182321D01*
X4846269Y169265D01*
X4841798Y155549D01*
X4839106Y141376D01*
X4838192Y127000D01*
X4839106Y112623D01*
X4841798Y98450D01*
X4846269Y84734D01*
X4852416Y71678D01*
X4860137Y59537D01*
X4869332Y48412D01*
X4879848Y38557D01*
X4891481Y30073D01*
X4904130Y23114D01*
X4917541Y17830D01*
X4931511Y14224D01*
X4945786Y12446D01*
X4960213Y12446D01*
X4974488Y14224D01*
X4988458Y17830D01*
X5001869Y23114D01*
X5014518Y30073D01*
X5026152Y38557D01*
X5036667Y48412D01*
X5045862Y59537D01*
X5053584Y71678D01*
X5058714Y82550D01*
X5060950Y85648D01*
X5064150Y87680D01*
X5067909Y88392D01*
X5638292Y88392D01*
X5642203Y87579D01*
X5645505Y85344D01*
X5647690Y81991D01*
X5649214Y78130D01*
X5656173Y65481D01*
X5664657Y53848D01*
X5674512Y43332D01*
X5685637Y34137D01*
X5697778Y26416D01*
X5710834Y20269D01*
X5724550Y15798D01*
X5738723Y13106D01*
G37*
G36*
X4691786Y12446D02*
G01*
X4706213Y12446D01*
X4720488Y14224D01*
X4734458Y17830D01*
X4747869Y23114D01*
X4760518Y30073D01*
X4772152Y38557D01*
X4782667Y48412D01*
X4791862Y59537D01*
X4799584Y71678D01*
X4805730Y84734D01*
X4810201Y98450D01*
X4812893Y112623D01*
X4813808Y127000D01*
X4812893Y141376D01*
X4810201Y155549D01*
X4805730Y169265D01*
X4799584Y182321D01*
X4791862Y194462D01*
X4782667Y205587D01*
X4772152Y215442D01*
X4760518Y223926D01*
X4747869Y230886D01*
X4734458Y236169D01*
X4720488Y239775D01*
X4706213Y241554D01*
X4691786Y241554D01*
X4677511Y239775D01*
X4663541Y236169D01*
X4656074Y233222D01*
X4652213Y232511D01*
X4648352Y233273D01*
X4645152Y235458D01*
X4486605Y394004D01*
X4484370Y397306D01*
X4483608Y401218D01*
X4483608Y487781D01*
X4484370Y491693D01*
X4486605Y494995D01*
X4585004Y593394D01*
X4588306Y595630D01*
X4592218Y596392D01*
X5059781Y596392D01*
X5063693Y595630D01*
X5066995Y593394D01*
X5306364Y354076D01*
X5312562Y348945D01*
X5319268Y345389D01*
X5326481Y343204D01*
X5334508Y342392D01*
X5638292Y342392D01*
X5642203Y341579D01*
X5645505Y339344D01*
X5647690Y335991D01*
X5649214Y332130D01*
X5656173Y319481D01*
X5664657Y307848D01*
X5674512Y297332D01*
X5685637Y288137D01*
X5697778Y280416D01*
X5710834Y274269D01*
X5724550Y269798D01*
X5738723Y267106D01*
X5753404Y266192D01*
X5930595Y266192D01*
X5945276Y267106D01*
X5959449Y269798D01*
X5973165Y274269D01*
X5986221Y280416D01*
X5998362Y288137D01*
X6009487Y297332D01*
X6019342Y307848D01*
X6027826Y319481D01*
X6034786Y332130D01*
X6040069Y345541D01*
X6043676Y359511D01*
X6045454Y373786D01*
X6045454Y388213D01*
X6043676Y402488D01*
X6040069Y416458D01*
X6034786Y429869D01*
X6027826Y442518D01*
X6019342Y454151D01*
X6009487Y464667D01*
X5998362Y473862D01*
X5986221Y481584D01*
X5973165Y487730D01*
X5959449Y492201D01*
X5945276Y494893D01*
X5930595Y495808D01*
X5753404Y495808D01*
X5738723Y494893D01*
X5724550Y492201D01*
X5710834Y487730D01*
X5697778Y481584D01*
X5685637Y473862D01*
X5674512Y464667D01*
X5664657Y454151D01*
X5656173Y442518D01*
X5649214Y429869D01*
X5647690Y426008D01*
X5645505Y422656D01*
X5642203Y420420D01*
X5638292Y419608D01*
X5354218Y419608D01*
X5350306Y420370D01*
X5347004Y422605D01*
X5107635Y661924D01*
X5101437Y667054D01*
X5094732Y670610D01*
X5087518Y672795D01*
X5079492Y673608D01*
X4572508Y673608D01*
X4564481Y672795D01*
X4557268Y670610D01*
X4550562Y667054D01*
X4544364Y661924D01*
X4418076Y535635D01*
X4412945Y529437D01*
X4409389Y522732D01*
X4407204Y515518D01*
X4406392Y507492D01*
X4406392Y381508D01*
X4407204Y373481D01*
X4409389Y366268D01*
X4412945Y359562D01*
X4418076Y353364D01*
X4590389Y181000D01*
X4592624Y177596D01*
X4593336Y173532D01*
X4592269Y169265D01*
X4587798Y155549D01*
X4585106Y141376D01*
X4584192Y127000D01*
X4585106Y112623D01*
X4587798Y98450D01*
X4592269Y84734D01*
X4598416Y71678D01*
X4606137Y59537D01*
X4615332Y48412D01*
X4625848Y38557D01*
X4637481Y30073D01*
X4650130Y23114D01*
X4663541Y17830D01*
X4677511Y14224D01*
G37*
G36*
X12354204Y44450D02*
G01*
X12401550Y44450D01*
X12401550Y91795D01*
X12399975Y91135D01*
X12388240Y84175D01*
X12377521Y75692D01*
X12368022Y65887D01*
X12359944Y54914D01*
G37*
G36*
X12490450Y44450D02*
G01*
X12537795Y44450D01*
X12532055Y54914D01*
X12523978Y65887D01*
X12514478Y75692D01*
X12503759Y84175D01*
X12492024Y91135D01*
X12490450Y91795D01*
G37*
G36*
X10579404Y139192D02*
G01*
X10756595Y139192D01*
X10771276Y140106D01*
X10785449Y142798D01*
X10799165Y147269D01*
X10812221Y153416D01*
X10824362Y161137D01*
X10835487Y170332D01*
X10845342Y180848D01*
X10853826Y192481D01*
X10860786Y205130D01*
X10866069Y218541D01*
X10869676Y232511D01*
X10871454Y246786D01*
X10871454Y261213D01*
X10869676Y275488D01*
X10866069Y289458D01*
X10860786Y302869D01*
X10853826Y315518D01*
X10845342Y327152D01*
X10835487Y337667D01*
X10824362Y346862D01*
X10812221Y354584D01*
X10799165Y360730D01*
X10785449Y365201D01*
X10771276Y367893D01*
X10756595Y368808D01*
X10579404Y368808D01*
X10564723Y367893D01*
X10550550Y365201D01*
X10536834Y360730D01*
X10523778Y354584D01*
X10511637Y346862D01*
X10500512Y337667D01*
X10490657Y327152D01*
X10482173Y315518D01*
X10475214Y302869D01*
X10469930Y289458D01*
X10466324Y275488D01*
X10464546Y261213D01*
X10464546Y246786D01*
X10466324Y232511D01*
X10469930Y218541D01*
X10475214Y205130D01*
X10482173Y192481D01*
X10490657Y180848D01*
X10500512Y170332D01*
X10511637Y161137D01*
X10523778Y153416D01*
X10536834Y147269D01*
X10550550Y142798D01*
X10564723Y140106D01*
G37*
G36*
X4945786Y266446D02*
G01*
X4960213Y266446D01*
X4974488Y268224D01*
X4988458Y271830D01*
X5001869Y277114D01*
X5014518Y284073D01*
X5026152Y292557D01*
X5036667Y302412D01*
X5045862Y313537D01*
X5053584Y325678D01*
X5059730Y338734D01*
X5064201Y352450D01*
X5066893Y366623D01*
X5067808Y381000D01*
X5066893Y395376D01*
X5064201Y409549D01*
X5059730Y423265D01*
X5053584Y436321D01*
X5045862Y448462D01*
X5036667Y459587D01*
X5026152Y469442D01*
X5014518Y477926D01*
X5001869Y484885D01*
X4988458Y490169D01*
X4974488Y493776D01*
X4960213Y495554D01*
X4945786Y495554D01*
X4931511Y493776D01*
X4917541Y490169D01*
X4904130Y484885D01*
X4891481Y477926D01*
X4879848Y469442D01*
X4869332Y459587D01*
X4860137Y448462D01*
X4852416Y436321D01*
X4846269Y423265D01*
X4841798Y409549D01*
X4839106Y395376D01*
X4838192Y381000D01*
X4839106Y366623D01*
X4841798Y352450D01*
X4846269Y338734D01*
X4852416Y325678D01*
X4860137Y313537D01*
X4869332Y302412D01*
X4879848Y292557D01*
X4891481Y284073D01*
X4904130Y277114D01*
X4917541Y271830D01*
X4931511Y268224D01*
G37*
G36*
X4648200Y278180D02*
G01*
X4648200Y330200D01*
X4596282Y330200D01*
X4598416Y325678D01*
X4606137Y313537D01*
X4615332Y302412D01*
X4625848Y292557D01*
X4637481Y284073D01*
G37*
G36*
X4749800Y278180D02*
G01*
X4760518Y284073D01*
X4772152Y292557D01*
X4782667Y302412D01*
X4791862Y313537D01*
X4799584Y325678D01*
X4801717Y330200D01*
X4749800Y330200D01*
G37*
G36*
X10763250Y393598D02*
G01*
X10771276Y394106D01*
X10785449Y396798D01*
X10799165Y401269D01*
X10812221Y407416D01*
X10824362Y415137D01*
X10835487Y424332D01*
X10845342Y434848D01*
X10853826Y446481D01*
X10859719Y457200D01*
X10763250Y457200D01*
G37*
G36*
X10572750Y393598D02*
G01*
X10572750Y457200D01*
X10476280Y457200D01*
X10482173Y446481D01*
X10490657Y434848D01*
X10500512Y424332D01*
X10511637Y415137D01*
X10523778Y407416D01*
X10536834Y401269D01*
X10550550Y396798D01*
X10564723Y394106D01*
G37*
G36*
X4749800Y431800D02*
G01*
X4801717Y431800D01*
X4799584Y436321D01*
X4791862Y448462D01*
X4782667Y459587D01*
X4772152Y469442D01*
X4760518Y477926D01*
X4749800Y483819D01*
G37*
G36*
X4596282Y431800D02*
G01*
X4648200Y431800D01*
X4648200Y483819D01*
X4637481Y477926D01*
X4625848Y469442D01*
X4615332Y459587D01*
X4606137Y448462D01*
X4598416Y436321D01*
G37*
G36*
X10476280Y558800D02*
G01*
X10572750Y558800D01*
X10572750Y622401D01*
X10564723Y621893D01*
X10550550Y619201D01*
X10536834Y614730D01*
X10523778Y608584D01*
X10511637Y600862D01*
X10500512Y591667D01*
X10490657Y581152D01*
X10482173Y569518D01*
G37*
G36*
X10763250Y558800D02*
G01*
X10859719Y558800D01*
X10853826Y569518D01*
X10845342Y581152D01*
X10835487Y591667D01*
X10824362Y600862D01*
X10812221Y608584D01*
X10799165Y614730D01*
X10785449Y619201D01*
X10771276Y621893D01*
X10763250Y622401D01*
G37*
G36*
X10572750Y647598D02*
G01*
X10572750Y711200D01*
X10476280Y711200D01*
X10482173Y700481D01*
X10490657Y688848D01*
X10500512Y678332D01*
X10511637Y669137D01*
X10523778Y661416D01*
X10536834Y655269D01*
X10550550Y650798D01*
X10564723Y648106D01*
G37*
G36*
X10763250Y647598D02*
G01*
X10771276Y648106D01*
X10785449Y650798D01*
X10799165Y655269D01*
X10812221Y661416D01*
X10824362Y669137D01*
X10835487Y678332D01*
X10845342Y688848D01*
X10853826Y700481D01*
X10859719Y711200D01*
X10763250Y711200D01*
G37*
G36*
X10476280Y812800D02*
G01*
X10572750Y812800D01*
X10572750Y876401D01*
X10564723Y875893D01*
X10550550Y873201D01*
X10536834Y868730D01*
X10523778Y862584D01*
X10511637Y854862D01*
X10500512Y845667D01*
X10490657Y835152D01*
X10482173Y823518D01*
G37*
G36*
X10763250Y812800D02*
G01*
X10859719Y812800D01*
X10853826Y823518D01*
X10845342Y835152D01*
X10835487Y845667D01*
X10824362Y854862D01*
X10812221Y862584D01*
X10799165Y868730D01*
X10785449Y873201D01*
X10771276Y875893D01*
X10763250Y876401D01*
G37*
G36*
X10579404Y926592D02*
G01*
X10756595Y926592D01*
X10771276Y927506D01*
X10785449Y930198D01*
X10799165Y934669D01*
X10812221Y940816D01*
X10824362Y948537D01*
X10835487Y957732D01*
X10845342Y968248D01*
X10853826Y979881D01*
X10860786Y992530D01*
X10866069Y1005941D01*
X10869676Y1019911D01*
X10871454Y1034186D01*
X10871454Y1048613D01*
X10869676Y1062888D01*
X10866069Y1076858D01*
X10860786Y1090269D01*
X10853826Y1102918D01*
X10845342Y1114552D01*
X10835487Y1125067D01*
X10824362Y1134262D01*
X10812221Y1141984D01*
X10799165Y1148130D01*
X10785449Y1152601D01*
X10771276Y1155293D01*
X10756595Y1156208D01*
X10579404Y1156208D01*
X10564723Y1155293D01*
X10550550Y1152601D01*
X10536834Y1148130D01*
X10523778Y1141984D01*
X10511637Y1134262D01*
X10500512Y1125067D01*
X10490657Y1114552D01*
X10482173Y1102918D01*
X10475214Y1090269D01*
X10469930Y1076858D01*
X10466324Y1062888D01*
X10464546Y1048613D01*
X10464546Y1034186D01*
X10466324Y1019911D01*
X10469930Y1005941D01*
X10475214Y992530D01*
X10482173Y979881D01*
X10490657Y968248D01*
X10500512Y957732D01*
X10511637Y948537D01*
X10523778Y940816D01*
X10536834Y934669D01*
X10550550Y930198D01*
X10564723Y927506D01*
G37*
G36*
X10579404Y1434592D02*
G01*
X10756595Y1434592D01*
X10771276Y1435506D01*
X10785449Y1438198D01*
X10799165Y1442669D01*
X10812221Y1448816D01*
X10824362Y1456537D01*
X10835487Y1465732D01*
X10845342Y1476248D01*
X10853826Y1487881D01*
X10860786Y1500530D01*
X10866069Y1513941D01*
X10869676Y1527911D01*
X10871454Y1542186D01*
X10871454Y1556613D01*
X10869676Y1570888D01*
X10866069Y1584858D01*
X10860786Y1598269D01*
X10853826Y1610918D01*
X10845342Y1622552D01*
X10835487Y1633067D01*
X10824362Y1642262D01*
X10812221Y1649984D01*
X10799165Y1656130D01*
X10785449Y1660601D01*
X10771276Y1663293D01*
X10756595Y1664207D01*
X10579404Y1664207D01*
X10564723Y1663293D01*
X10550550Y1660601D01*
X10536834Y1656130D01*
X10523778Y1649984D01*
X10511637Y1642262D01*
X10500512Y1633067D01*
X10490657Y1622552D01*
X10482173Y1610918D01*
X10475214Y1598269D01*
X10469930Y1584858D01*
X10466324Y1570888D01*
X10464546Y1556613D01*
X10464546Y1542186D01*
X10466324Y1527911D01*
X10469930Y1513941D01*
X10475214Y1500530D01*
X10482173Y1487881D01*
X10490657Y1476248D01*
X10500512Y1465732D01*
X10511637Y1456537D01*
X10523778Y1448816D01*
X10536834Y1442669D01*
X10550550Y1438198D01*
X10564723Y1435506D01*
G37*
G36*
X5753404Y1434592D02*
G01*
X5930595Y1434592D01*
X5945276Y1435506D01*
X5959449Y1438198D01*
X5973165Y1442669D01*
X5986221Y1448816D01*
X5998362Y1456537D01*
X6009487Y1465732D01*
X6019342Y1476248D01*
X6027826Y1487881D01*
X6034786Y1500530D01*
X6036310Y1504391D01*
X6038494Y1507744D01*
X6041796Y1509979D01*
X6045708Y1510792D01*
X6374892Y1510792D01*
X6382918Y1511604D01*
X6390132Y1513789D01*
X6396837Y1517345D01*
X6403035Y1522476D01*
X7392924Y2512364D01*
X7398054Y2518562D01*
X7401610Y2525268D01*
X7403795Y2532481D01*
X7404608Y2540508D01*
X7404608Y3535781D01*
X7405370Y3539693D01*
X7407605Y3542995D01*
X7702956Y3838346D01*
X7705953Y3840429D01*
X7709509Y3841292D01*
X7713116Y3840835D01*
X7723327Y3837686D01*
X7736789Y3835450D01*
X7750403Y3834993D01*
X7763967Y3836314D01*
X7777225Y3839514D01*
X7789976Y3844391D01*
X7801914Y3850944D01*
X7812887Y3859022D01*
X7822692Y3868521D01*
X7831175Y3879240D01*
X7838135Y3890975D01*
X7843418Y3903522D01*
X7847025Y3916679D01*
X7848853Y3930192D01*
X7848853Y3943807D01*
X7847025Y3957320D01*
X7843418Y3970477D01*
X7838135Y3983024D01*
X7831175Y3994759D01*
X7822692Y4005478D01*
X7812887Y4014978D01*
X7801914Y4023055D01*
X7789976Y4029608D01*
X7777225Y4034485D01*
X7763967Y4037685D01*
X7750403Y4039006D01*
X7736789Y4038549D01*
X7723327Y4036314D01*
X7710322Y4032250D01*
X7697927Y4026509D01*
X7686446Y4019194D01*
X7676032Y4010406D01*
X7666888Y4000246D01*
X7659166Y3989019D01*
X7653020Y3976878D01*
X7648549Y3963974D01*
X7645806Y3950614D01*
X7644892Y3937000D01*
X7645806Y3923385D01*
X7648549Y3910025D01*
X7650784Y3903522D01*
X7651343Y3899763D01*
X7650530Y3896106D01*
X7648397Y3893007D01*
X7339075Y3583635D01*
X7333945Y3577437D01*
X7330389Y3570732D01*
X7328204Y3563518D01*
X7327392Y3555492D01*
X7327392Y2560218D01*
X7326630Y2556306D01*
X7324394Y2553004D01*
X6362395Y1591005D01*
X6359093Y1588770D01*
X6355181Y1588008D01*
X6045708Y1588008D01*
X6041796Y1588820D01*
X6038494Y1591056D01*
X6036310Y1594408D01*
X6034786Y1598269D01*
X6027826Y1610918D01*
X6019342Y1622552D01*
X6009487Y1633067D01*
X5998362Y1642262D01*
X5986221Y1649984D01*
X5973165Y1656130D01*
X5959449Y1660601D01*
X5945276Y1663293D01*
X5930595Y1664207D01*
X5753404Y1664207D01*
X5738723Y1663293D01*
X5724550Y1660601D01*
X5710834Y1656130D01*
X5697778Y1649984D01*
X5685637Y1642262D01*
X5674512Y1633067D01*
X5664657Y1622552D01*
X5656173Y1610918D01*
X5649214Y1598269D01*
X5643930Y1584858D01*
X5640324Y1570888D01*
X5638546Y1556613D01*
X5638546Y1542186D01*
X5640324Y1527911D01*
X5643930Y1513941D01*
X5649214Y1500530D01*
X5656173Y1487881D01*
X5664657Y1476248D01*
X5674512Y1465732D01*
X5685637Y1456537D01*
X5697778Y1448816D01*
X5710834Y1442669D01*
X5724550Y1438198D01*
X5738723Y1435506D01*
G37*
G36*
X10579404Y1688592D02*
G01*
X10756595Y1688592D01*
X10771276Y1689506D01*
X10785449Y1692198D01*
X10799165Y1696669D01*
X10812221Y1702816D01*
X10824362Y1710537D01*
X10835487Y1719732D01*
X10845342Y1730248D01*
X10853826Y1741881D01*
X10860786Y1754530D01*
X10866069Y1767941D01*
X10869676Y1781911D01*
X10871454Y1796186D01*
X10871454Y1810613D01*
X10869676Y1824888D01*
X10866069Y1838858D01*
X10860786Y1852269D01*
X10853826Y1864918D01*
X10845342Y1876552D01*
X10835487Y1887067D01*
X10824362Y1896262D01*
X10812221Y1903984D01*
X10799165Y1910130D01*
X10785449Y1914601D01*
X10771276Y1917293D01*
X10756595Y1918207D01*
X10579404Y1918207D01*
X10564723Y1917293D01*
X10550550Y1914601D01*
X10536834Y1910130D01*
X10523778Y1903984D01*
X10511637Y1896262D01*
X10500512Y1887067D01*
X10490657Y1876552D01*
X10482173Y1864918D01*
X10475214Y1852269D01*
X10469930Y1838858D01*
X10466324Y1824888D01*
X10464546Y1810613D01*
X10464546Y1796186D01*
X10466324Y1781911D01*
X10469930Y1767941D01*
X10475214Y1754530D01*
X10482173Y1741881D01*
X10490657Y1730248D01*
X10500512Y1719732D01*
X10511637Y1710537D01*
X10523778Y1702816D01*
X10536834Y1696669D01*
X10550550Y1692198D01*
X10564723Y1689506D01*
G37*
G36*
X5753404Y1688592D02*
G01*
X5930595Y1688592D01*
X5945276Y1689506D01*
X5959449Y1692198D01*
X5973165Y1696669D01*
X5986221Y1702816D01*
X5998362Y1710537D01*
X6009487Y1719732D01*
X6019342Y1730248D01*
X6027826Y1741881D01*
X6034786Y1754530D01*
X6040069Y1767941D01*
X6043676Y1781911D01*
X6045454Y1796186D01*
X6045454Y1810613D01*
X6043676Y1824888D01*
X6040069Y1838858D01*
X6034786Y1852269D01*
X6027826Y1864918D01*
X6019342Y1876552D01*
X6009487Y1887067D01*
X5998362Y1896262D01*
X5986221Y1903984D01*
X5973165Y1910130D01*
X5959449Y1914601D01*
X5945276Y1917293D01*
X5930595Y1918207D01*
X5753404Y1918207D01*
X5738723Y1917293D01*
X5724550Y1914601D01*
X5710834Y1910130D01*
X5697778Y1903984D01*
X5685637Y1896262D01*
X5674512Y1887067D01*
X5664657Y1876552D01*
X5656173Y1864918D01*
X5649214Y1852269D01*
X5647690Y1848408D01*
X5645505Y1845056D01*
X5642203Y1842820D01*
X5638292Y1842007D01*
X5582818Y1842007D01*
X5578906Y1842770D01*
X5575604Y1845005D01*
X5061458Y2359152D01*
X5059273Y2362352D01*
X5058511Y2366213D01*
X5059222Y2370074D01*
X5062169Y2377541D01*
X5065776Y2391511D01*
X5067554Y2405786D01*
X5067554Y2420213D01*
X5065776Y2434488D01*
X5062169Y2448458D01*
X5056886Y2461869D01*
X5049926Y2474518D01*
X5041442Y2486152D01*
X5031587Y2496667D01*
X5020462Y2505862D01*
X5008321Y2513584D01*
X4995265Y2519730D01*
X4981549Y2524201D01*
X4967376Y2526893D01*
X4953000Y2527808D01*
X4938623Y2526893D01*
X4924450Y2524201D01*
X4910734Y2519730D01*
X4897678Y2513584D01*
X4885537Y2505862D01*
X4874412Y2496667D01*
X4864557Y2486152D01*
X4856073Y2474518D01*
X4849114Y2461869D01*
X4843830Y2448458D01*
X4840224Y2434488D01*
X4838446Y2420213D01*
X4838446Y2405786D01*
X4840224Y2391511D01*
X4843830Y2377541D01*
X4849114Y2364130D01*
X4856073Y2351481D01*
X4864557Y2339848D01*
X4874412Y2329332D01*
X4885537Y2320137D01*
X4897678Y2312416D01*
X4910734Y2306269D01*
X4924450Y2301798D01*
X4938623Y2299106D01*
X4953000Y2298192D01*
X4967376Y2299106D01*
X4981549Y2301798D01*
X4995519Y2306370D01*
X4999532Y2307336D01*
X5003596Y2306624D01*
X5007000Y2304389D01*
X5534964Y1776475D01*
X5541162Y1771345D01*
X5547868Y1767789D01*
X5555081Y1765604D01*
X5563108Y1764792D01*
X5638292Y1764792D01*
X5642203Y1763979D01*
X5645505Y1761743D01*
X5647690Y1758391D01*
X5649214Y1754530D01*
X5656173Y1741881D01*
X5664657Y1730248D01*
X5674512Y1719732D01*
X5685637Y1710537D01*
X5697778Y1702816D01*
X5710834Y1696669D01*
X5724550Y1692198D01*
X5738723Y1689506D01*
G37*
G36*
X11549786Y1917446D02*
G01*
X11564213Y1917446D01*
X11578488Y1919224D01*
X11592458Y1922830D01*
X11605869Y1928114D01*
X11618518Y1935073D01*
X11630152Y1943557D01*
X11640667Y1953412D01*
X11649862Y1964537D01*
X11657584Y1976678D01*
X11663730Y1989734D01*
X11668201Y2003450D01*
X11670893Y2017623D01*
X11671808Y2032000D01*
X11670893Y2046376D01*
X11668201Y2060549D01*
X11663730Y2074265D01*
X11657584Y2087321D01*
X11649862Y2099462D01*
X11640667Y2110587D01*
X11630152Y2120442D01*
X11618518Y2128926D01*
X11605869Y2135886D01*
X11592458Y2141169D01*
X11578488Y2144776D01*
X11564213Y2146554D01*
X11549786Y2146554D01*
X11535511Y2144776D01*
X11521541Y2141169D01*
X11508130Y2135886D01*
X11495481Y2128926D01*
X11483848Y2120442D01*
X11473332Y2110587D01*
X11464137Y2099462D01*
X11456416Y2087321D01*
X11450269Y2074265D01*
X11445798Y2060549D01*
X11443106Y2046376D01*
X11442192Y2032000D01*
X11443106Y2017623D01*
X11445798Y2003450D01*
X11450269Y1989734D01*
X11456416Y1976678D01*
X11464137Y1964537D01*
X11473332Y1953412D01*
X11483848Y1943557D01*
X11495481Y1935073D01*
X11508130Y1928114D01*
X11521541Y1922830D01*
X11535511Y1919224D01*
G37*
G36*
X10579404Y1942592D02*
G01*
X10756595Y1942592D01*
X10771276Y1943506D01*
X10785449Y1946198D01*
X10799165Y1950669D01*
X10812221Y1956816D01*
X10824362Y1964537D01*
X10835487Y1973732D01*
X10845342Y1984248D01*
X10853826Y1995881D01*
X10860786Y2008530D01*
X10866069Y2021941D01*
X10869676Y2035911D01*
X10871454Y2050186D01*
X10871454Y2064613D01*
X10869676Y2078888D01*
X10866069Y2092858D01*
X10860786Y2106269D01*
X10853826Y2118918D01*
X10845342Y2130552D01*
X10835487Y2141067D01*
X10824362Y2150262D01*
X10812221Y2157984D01*
X10799165Y2164130D01*
X10785449Y2168601D01*
X10771276Y2171293D01*
X10756595Y2172208D01*
X10579404Y2172208D01*
X10564723Y2171293D01*
X10550550Y2168601D01*
X10536834Y2164130D01*
X10523778Y2157984D01*
X10511637Y2150262D01*
X10500512Y2141067D01*
X10490657Y2130552D01*
X10482173Y2118918D01*
X10475214Y2106269D01*
X10469930Y2092858D01*
X10466324Y2078888D01*
X10464546Y2064613D01*
X10464546Y2050186D01*
X10466324Y2035911D01*
X10469930Y2021941D01*
X10475214Y2008530D01*
X10482173Y1995881D01*
X10490657Y1984248D01*
X10500512Y1973732D01*
X10511637Y1964537D01*
X10523778Y1956816D01*
X10536834Y1950669D01*
X10550550Y1946198D01*
X10564723Y1943506D01*
G37*
G36*
X5753404Y1942592D02*
G01*
X5930595Y1942592D01*
X5945276Y1943506D01*
X5959449Y1946198D01*
X5973165Y1950669D01*
X5986221Y1956816D01*
X5998362Y1964537D01*
X6009487Y1973732D01*
X6019342Y1984248D01*
X6027826Y1995881D01*
X6034786Y2008530D01*
X6040069Y2021941D01*
X6043676Y2035911D01*
X6045454Y2050186D01*
X6045454Y2064613D01*
X6043676Y2078888D01*
X6040069Y2092858D01*
X6034786Y2106269D01*
X6027826Y2118918D01*
X6019342Y2130552D01*
X6009487Y2141067D01*
X5998362Y2150262D01*
X5986221Y2157984D01*
X5973165Y2164130D01*
X5959449Y2168601D01*
X5945276Y2171293D01*
X5930595Y2172208D01*
X5753404Y2172208D01*
X5738723Y2171293D01*
X5724550Y2168601D01*
X5710834Y2164130D01*
X5697778Y2157984D01*
X5685637Y2150262D01*
X5674512Y2141067D01*
X5664657Y2130552D01*
X5656173Y2118918D01*
X5649214Y2106269D01*
X5647690Y2102408D01*
X5645505Y2099056D01*
X5642203Y2096820D01*
X5638292Y2096007D01*
X5582818Y2096007D01*
X5578906Y2096770D01*
X5575604Y2099005D01*
X5061458Y2613152D01*
X5059273Y2616352D01*
X5058511Y2620213D01*
X5059222Y2624074D01*
X5062169Y2631541D01*
X5065776Y2645511D01*
X5067554Y2659786D01*
X5067554Y2674213D01*
X5065776Y2688488D01*
X5062169Y2702458D01*
X5056886Y2715869D01*
X5049926Y2728518D01*
X5041442Y2740152D01*
X5031587Y2750667D01*
X5020462Y2759862D01*
X5008321Y2767584D01*
X4995265Y2773730D01*
X4981549Y2778201D01*
X4967376Y2780893D01*
X4953000Y2781808D01*
X4938623Y2780893D01*
X4924450Y2778201D01*
X4910734Y2773730D01*
X4897678Y2767584D01*
X4885537Y2759862D01*
X4874412Y2750667D01*
X4864557Y2740152D01*
X4856073Y2728518D01*
X4849114Y2715869D01*
X4843830Y2702458D01*
X4840224Y2688488D01*
X4838446Y2674213D01*
X4838446Y2659786D01*
X4840224Y2645511D01*
X4843830Y2631541D01*
X4849114Y2618130D01*
X4856073Y2605481D01*
X4864557Y2593848D01*
X4874412Y2583332D01*
X4885537Y2574137D01*
X4897678Y2566416D01*
X4910734Y2560269D01*
X4924450Y2555798D01*
X4938623Y2553106D01*
X4953000Y2552192D01*
X4967376Y2553106D01*
X4981549Y2555798D01*
X4995519Y2560370D01*
X4999532Y2561336D01*
X5003596Y2560624D01*
X5007000Y2558389D01*
X5534964Y2030475D01*
X5541162Y2025345D01*
X5547868Y2021789D01*
X5555081Y2019604D01*
X5563108Y2018792D01*
X5638292Y2018792D01*
X5642203Y2017979D01*
X5645505Y2015743D01*
X5647690Y2012391D01*
X5649214Y2008530D01*
X5656173Y1995881D01*
X5664657Y1984248D01*
X5674512Y1973732D01*
X5685637Y1964537D01*
X5697778Y1956816D01*
X5710834Y1950669D01*
X5724550Y1946198D01*
X5738723Y1943506D01*
G37*
G36*
X4953000Y2044192D02*
G01*
X4967376Y2045106D01*
X4981549Y2047798D01*
X4995265Y2052269D01*
X5008321Y2058416D01*
X5020462Y2066137D01*
X5031587Y2075332D01*
X5041442Y2085848D01*
X5049926Y2097481D01*
X5056886Y2110130D01*
X5062169Y2123541D01*
X5065776Y2137511D01*
X5067554Y2151786D01*
X5067554Y2166213D01*
X5065776Y2180488D01*
X5062169Y2194458D01*
X5056886Y2207869D01*
X5049926Y2220518D01*
X5041442Y2232152D01*
X5031587Y2242667D01*
X5020462Y2251862D01*
X5008321Y2259584D01*
X4995265Y2265730D01*
X4981549Y2270201D01*
X4967376Y2272893D01*
X4953000Y2273808D01*
X4938623Y2272893D01*
X4924450Y2270201D01*
X4910734Y2265730D01*
X4897678Y2259584D01*
X4885537Y2251862D01*
X4874412Y2242667D01*
X4864557Y2232152D01*
X4856073Y2220518D01*
X4849114Y2207869D01*
X4843830Y2194458D01*
X4840224Y2180488D01*
X4838446Y2166213D01*
X4838446Y2151786D01*
X4840224Y2137511D01*
X4843830Y2123541D01*
X4849114Y2110130D01*
X4856073Y2097481D01*
X4864557Y2085848D01*
X4874412Y2075332D01*
X4885537Y2066137D01*
X4897678Y2058416D01*
X4910734Y2052269D01*
X4924450Y2047798D01*
X4938623Y2045106D01*
G37*
G36*
X11549786Y2171446D02*
G01*
X11564213Y2171446D01*
X11578488Y2173224D01*
X11592458Y2176830D01*
X11605869Y2182114D01*
X11618518Y2189073D01*
X11630152Y2197557D01*
X11640667Y2207412D01*
X11649862Y2218537D01*
X11657584Y2230678D01*
X11663730Y2243734D01*
X11668201Y2257450D01*
X11670893Y2271623D01*
X11671808Y2286000D01*
X11670893Y2300376D01*
X11668201Y2314549D01*
X11663730Y2328265D01*
X11657584Y2341321D01*
X11649862Y2353462D01*
X11640667Y2364587D01*
X11630152Y2374442D01*
X11618518Y2382926D01*
X11605869Y2389886D01*
X11592458Y2395169D01*
X11578488Y2398776D01*
X11564213Y2400554D01*
X11549786Y2400554D01*
X11535511Y2398776D01*
X11521541Y2395169D01*
X11514074Y2392222D01*
X11510213Y2391511D01*
X11506352Y2392273D01*
X11503152Y2394458D01*
X11305235Y2592324D01*
X11299037Y2597454D01*
X11292332Y2601010D01*
X11285118Y2603195D01*
X11277092Y2604008D01*
X10871708Y2604008D01*
X10867796Y2604820D01*
X10864494Y2607056D01*
X10862310Y2610408D01*
X10860786Y2614269D01*
X10853826Y2626918D01*
X10845342Y2638552D01*
X10835487Y2649067D01*
X10824362Y2658262D01*
X10812221Y2665984D01*
X10799165Y2672130D01*
X10785449Y2676601D01*
X10771276Y2679293D01*
X10756595Y2680208D01*
X10579404Y2680208D01*
X10564723Y2679293D01*
X10550550Y2676601D01*
X10536834Y2672130D01*
X10523778Y2665984D01*
X10511637Y2658262D01*
X10500512Y2649067D01*
X10490657Y2638552D01*
X10482173Y2626918D01*
X10475214Y2614269D01*
X10469930Y2600858D01*
X10466324Y2586888D01*
X10464546Y2572613D01*
X10464546Y2558186D01*
X10466324Y2543911D01*
X10469930Y2529941D01*
X10475214Y2516530D01*
X10482173Y2503881D01*
X10490657Y2492248D01*
X10500512Y2481732D01*
X10511637Y2472537D01*
X10523778Y2464816D01*
X10536834Y2458669D01*
X10550550Y2454198D01*
X10564723Y2451506D01*
X10579404Y2450592D01*
X10756595Y2450592D01*
X10771276Y2451506D01*
X10785449Y2454198D01*
X10799165Y2458669D01*
X10812221Y2464816D01*
X10824362Y2472537D01*
X10835487Y2481732D01*
X10845342Y2492248D01*
X10853826Y2503881D01*
X10860786Y2516530D01*
X10862310Y2520391D01*
X10864494Y2523744D01*
X10867796Y2525979D01*
X10871708Y2526792D01*
X11257381Y2526792D01*
X11261293Y2526030D01*
X11264595Y2523794D01*
X11448389Y2340000D01*
X11450624Y2336596D01*
X11451336Y2332532D01*
X11450269Y2328265D01*
X11445798Y2314549D01*
X11443106Y2300376D01*
X11442192Y2286000D01*
X11443106Y2271623D01*
X11445798Y2257450D01*
X11450269Y2243734D01*
X11456416Y2230678D01*
X11464137Y2218537D01*
X11473332Y2207412D01*
X11483848Y2197557D01*
X11495481Y2189073D01*
X11508130Y2182114D01*
X11521541Y2176830D01*
X11535511Y2173224D01*
G37*
G36*
X10579404Y2196592D02*
G01*
X10756595Y2196592D01*
X10771276Y2197506D01*
X10785449Y2200198D01*
X10799165Y2204669D01*
X10812221Y2210816D01*
X10824362Y2218537D01*
X10835487Y2227732D01*
X10845342Y2238248D01*
X10853826Y2249881D01*
X10860786Y2262530D01*
X10866069Y2275941D01*
X10869676Y2289911D01*
X10871454Y2304186D01*
X10871454Y2318613D01*
X10869676Y2332888D01*
X10866069Y2346858D01*
X10860786Y2360269D01*
X10853826Y2372918D01*
X10845342Y2384552D01*
X10835487Y2395067D01*
X10824362Y2404262D01*
X10812221Y2411984D01*
X10799165Y2418130D01*
X10785449Y2422601D01*
X10771276Y2425293D01*
X10756595Y2426208D01*
X10579404Y2426208D01*
X10564723Y2425293D01*
X10550550Y2422601D01*
X10536834Y2418130D01*
X10523778Y2411984D01*
X10511637Y2404262D01*
X10500512Y2395067D01*
X10490657Y2384552D01*
X10482173Y2372918D01*
X10475214Y2360269D01*
X10469930Y2346858D01*
X10466324Y2332888D01*
X10464546Y2318613D01*
X10464546Y2304186D01*
X10466324Y2289911D01*
X10469930Y2275941D01*
X10475214Y2262530D01*
X10482173Y2249881D01*
X10490657Y2238248D01*
X10500512Y2227732D01*
X10511637Y2218537D01*
X10523778Y2210816D01*
X10536834Y2204669D01*
X10550550Y2200198D01*
X10564723Y2197506D01*
G37*
G36*
X5753404Y2196592D02*
G01*
X5930595Y2196592D01*
X5945276Y2197506D01*
X5959449Y2200198D01*
X5973165Y2204669D01*
X5986221Y2210816D01*
X5998362Y2218537D01*
X6009487Y2227732D01*
X6019342Y2238248D01*
X6027826Y2249881D01*
X6034786Y2262530D01*
X6036310Y2266391D01*
X6038494Y2269744D01*
X6041796Y2271979D01*
X6045708Y2272792D01*
X6755892Y2272792D01*
X6763918Y2273604D01*
X6771131Y2275789D01*
X6777837Y2279345D01*
X6784035Y2284476D01*
X7138924Y2639364D01*
X7144054Y2645562D01*
X7147610Y2652268D01*
X7149795Y2659481D01*
X7150608Y2667508D01*
X7150608Y3662781D01*
X7151370Y3666693D01*
X7153605Y3669995D01*
X7702956Y4219346D01*
X7705953Y4221429D01*
X7709509Y4222292D01*
X7713116Y4221835D01*
X7723327Y4218686D01*
X7736789Y4216450D01*
X7750403Y4215993D01*
X7763967Y4217314D01*
X7777225Y4220514D01*
X7789976Y4225391D01*
X7801914Y4231944D01*
X7812887Y4240022D01*
X7822692Y4249521D01*
X7831175Y4260240D01*
X7838135Y4271975D01*
X7843418Y4284522D01*
X7847025Y4297680D01*
X7848853Y4311192D01*
X7848853Y4324807D01*
X7847025Y4338320D01*
X7843418Y4351477D01*
X7838135Y4364024D01*
X7831175Y4375759D01*
X7822692Y4386478D01*
X7812887Y4395978D01*
X7801914Y4404055D01*
X7789976Y4410608D01*
X7777225Y4415485D01*
X7763967Y4418685D01*
X7750403Y4420006D01*
X7736789Y4419549D01*
X7723327Y4417314D01*
X7710322Y4413250D01*
X7697927Y4407509D01*
X7686446Y4400194D01*
X7676032Y4391406D01*
X7666888Y4381246D01*
X7659166Y4370019D01*
X7653020Y4357878D01*
X7648549Y4344974D01*
X7645806Y4331614D01*
X7644892Y4318000D01*
X7645806Y4304385D01*
X7648549Y4291025D01*
X7650784Y4284522D01*
X7651343Y4280763D01*
X7650530Y4277106D01*
X7648397Y4274007D01*
X7085075Y3710635D01*
X7079945Y3704437D01*
X7076389Y3697732D01*
X7074204Y3690518D01*
X7073392Y3682492D01*
X7073392Y2687218D01*
X7072630Y2683306D01*
X7070394Y2680004D01*
X6743395Y2353005D01*
X6740093Y2350770D01*
X6736181Y2350008D01*
X6045708Y2350008D01*
X6041796Y2350820D01*
X6038494Y2353056D01*
X6036310Y2356408D01*
X6034786Y2360269D01*
X6027826Y2372918D01*
X6019342Y2384552D01*
X6009487Y2395067D01*
X5998362Y2404262D01*
X5986221Y2411984D01*
X5973165Y2418130D01*
X5959449Y2422601D01*
X5945276Y2425293D01*
X5930595Y2426208D01*
X5753404Y2426208D01*
X5738723Y2425293D01*
X5724550Y2422601D01*
X5710834Y2418130D01*
X5697778Y2411984D01*
X5685637Y2404262D01*
X5674512Y2395067D01*
X5664657Y2384552D01*
X5656173Y2372918D01*
X5649214Y2360269D01*
X5643930Y2346858D01*
X5640324Y2332888D01*
X5638546Y2318613D01*
X5638546Y2304186D01*
X5640324Y2289911D01*
X5643930Y2275941D01*
X5649214Y2262530D01*
X5656173Y2249881D01*
X5664657Y2238248D01*
X5674512Y2227732D01*
X5685637Y2218537D01*
X5697778Y2210816D01*
X5710834Y2204669D01*
X5724550Y2200198D01*
X5738723Y2197506D01*
G37*
G36*
X11549786Y2425446D02*
G01*
X11564213Y2425446D01*
X11578488Y2427224D01*
X11592458Y2430830D01*
X11605869Y2436114D01*
X11618518Y2443073D01*
X11630152Y2451557D01*
X11640667Y2461412D01*
X11649862Y2472537D01*
X11657584Y2484678D01*
X11663730Y2497734D01*
X11668201Y2511450D01*
X11670893Y2525623D01*
X11671808Y2540000D01*
X11670893Y2554376D01*
X11668201Y2568549D01*
X11663730Y2582265D01*
X11657584Y2595321D01*
X11649862Y2607462D01*
X11640667Y2618587D01*
X11630152Y2628442D01*
X11618518Y2636926D01*
X11605869Y2643886D01*
X11592458Y2649169D01*
X11578488Y2652776D01*
X11564213Y2654554D01*
X11549786Y2654554D01*
X11535511Y2652776D01*
X11521541Y2649169D01*
X11514074Y2646222D01*
X11510213Y2645511D01*
X11506352Y2646273D01*
X11503152Y2648458D01*
X11305235Y2846324D01*
X11299037Y2851454D01*
X11292332Y2855010D01*
X11285118Y2857195D01*
X11277092Y2858008D01*
X10871708Y2858008D01*
X10867796Y2858820D01*
X10864494Y2861056D01*
X10862310Y2864408D01*
X10860786Y2868269D01*
X10853826Y2880918D01*
X10845342Y2892552D01*
X10835487Y2903067D01*
X10824362Y2912262D01*
X10812221Y2919984D01*
X10799165Y2926130D01*
X10785449Y2930601D01*
X10771276Y2933293D01*
X10756595Y2934208D01*
X10579404Y2934208D01*
X10564723Y2933293D01*
X10550550Y2930601D01*
X10536834Y2926130D01*
X10523778Y2919984D01*
X10511637Y2912262D01*
X10500512Y2903067D01*
X10490657Y2892552D01*
X10482173Y2880918D01*
X10475214Y2868269D01*
X10469930Y2854858D01*
X10466324Y2840888D01*
X10464546Y2826613D01*
X10464546Y2812186D01*
X10466324Y2797911D01*
X10469930Y2783941D01*
X10475214Y2770530D01*
X10482173Y2757881D01*
X10490657Y2746248D01*
X10500512Y2735732D01*
X10511637Y2726537D01*
X10523778Y2718816D01*
X10536834Y2712669D01*
X10550550Y2708198D01*
X10564723Y2705506D01*
X10579404Y2704592D01*
X10756595Y2704592D01*
X10771276Y2705506D01*
X10785449Y2708198D01*
X10799165Y2712669D01*
X10812221Y2718816D01*
X10824362Y2726537D01*
X10835487Y2735732D01*
X10845342Y2746248D01*
X10853826Y2757881D01*
X10860786Y2770530D01*
X10862310Y2774391D01*
X10864494Y2777744D01*
X10867796Y2779979D01*
X10871708Y2780792D01*
X11257381Y2780792D01*
X11261293Y2780030D01*
X11264595Y2777794D01*
X11448389Y2594000D01*
X11450624Y2590596D01*
X11451336Y2586532D01*
X11450269Y2582265D01*
X11445798Y2568549D01*
X11443106Y2554376D01*
X11442192Y2540000D01*
X11443106Y2525623D01*
X11445798Y2511450D01*
X11450269Y2497734D01*
X11456416Y2484678D01*
X11464137Y2472537D01*
X11473332Y2461412D01*
X11483848Y2451557D01*
X11495481Y2443073D01*
X11508130Y2436114D01*
X11521541Y2430830D01*
X11535511Y2427224D01*
G37*
G36*
X5753404Y2450592D02*
G01*
X5930595Y2450592D01*
X5945276Y2451506D01*
X5959449Y2454198D01*
X5973165Y2458669D01*
X5986221Y2464816D01*
X5998362Y2472537D01*
X6009487Y2481732D01*
X6019342Y2492248D01*
X6027826Y2503881D01*
X6034786Y2516530D01*
X6040069Y2529941D01*
X6043676Y2543911D01*
X6045454Y2558186D01*
X6045454Y2572613D01*
X6043676Y2586888D01*
X6040069Y2600858D01*
X6034786Y2614269D01*
X6027826Y2626918D01*
X6019342Y2638552D01*
X6009487Y2649067D01*
X5998362Y2658262D01*
X5986221Y2665984D01*
X5973165Y2672130D01*
X5959449Y2676601D01*
X5945276Y2679293D01*
X5930595Y2680208D01*
X5753404Y2680208D01*
X5738723Y2679293D01*
X5724550Y2676601D01*
X5710834Y2672130D01*
X5697778Y2665984D01*
X5685637Y2658262D01*
X5674512Y2649067D01*
X5664657Y2638552D01*
X5656173Y2626918D01*
X5649214Y2614269D01*
X5643930Y2600858D01*
X5640324Y2586888D01*
X5638546Y2572613D01*
X5638546Y2558186D01*
X5640324Y2543911D01*
X5643930Y2529941D01*
X5649214Y2516530D01*
X5656173Y2503881D01*
X5664657Y2492248D01*
X5674512Y2481732D01*
X5685637Y2472537D01*
X5697778Y2464816D01*
X5710834Y2458669D01*
X5724550Y2454198D01*
X5738723Y2451506D01*
G37*
G36*
X11506200Y2691180D02*
G01*
X11506200Y2743200D01*
X11454282Y2743200D01*
X11456416Y2738678D01*
X11464137Y2726537D01*
X11473332Y2715412D01*
X11483848Y2705557D01*
X11495481Y2697073D01*
G37*
G36*
X11607800Y2691180D02*
G01*
X11618518Y2697073D01*
X11630152Y2705557D01*
X11640667Y2715412D01*
X11649862Y2726537D01*
X11657584Y2738678D01*
X11659717Y2743200D01*
X11607800Y2743200D01*
G37*
G36*
X5753404Y2704592D02*
G01*
X5930595Y2704592D01*
X5945276Y2705506D01*
X5959449Y2708198D01*
X5973165Y2712669D01*
X5986221Y2718816D01*
X5998362Y2726537D01*
X6009487Y2735732D01*
X6019342Y2746248D01*
X6027826Y2757881D01*
X6034786Y2770530D01*
X6040069Y2783941D01*
X6043676Y2797911D01*
X6045454Y2812186D01*
X6045454Y2826613D01*
X6043676Y2840888D01*
X6040069Y2854858D01*
X6034786Y2868269D01*
X6027826Y2880918D01*
X6019342Y2892552D01*
X6009487Y2903067D01*
X5998362Y2912262D01*
X5986221Y2919984D01*
X5973165Y2926130D01*
X5959449Y2930601D01*
X5945276Y2933293D01*
X5930595Y2934208D01*
X5753404Y2934208D01*
X5738723Y2933293D01*
X5724550Y2930601D01*
X5710834Y2926130D01*
X5697778Y2919984D01*
X5685637Y2912262D01*
X5674512Y2903067D01*
X5664657Y2892552D01*
X5656173Y2880918D01*
X5649214Y2868269D01*
X5643930Y2854858D01*
X5640324Y2840888D01*
X5638546Y2826613D01*
X5638546Y2812186D01*
X5640324Y2797911D01*
X5643930Y2783941D01*
X5649214Y2770530D01*
X5656173Y2757881D01*
X5664657Y2746248D01*
X5674512Y2735732D01*
X5685637Y2726537D01*
X5697778Y2718816D01*
X5710834Y2712669D01*
X5724550Y2708198D01*
X5738723Y2705506D01*
G37*
G36*
X5003800Y2818282D02*
G01*
X5008321Y2820416D01*
X5020462Y2828137D01*
X5031587Y2837332D01*
X5041442Y2847848D01*
X5049926Y2859481D01*
X5055819Y2870200D01*
X5003800Y2870200D01*
G37*
G36*
X4902200Y2818282D02*
G01*
X4902200Y2870200D01*
X4850180Y2870200D01*
X4856073Y2859481D01*
X4864557Y2847848D01*
X4874412Y2837332D01*
X4885537Y2828137D01*
X4897678Y2820416D01*
G37*
G36*
X11607800Y2844800D02*
G01*
X11659717Y2844800D01*
X11657584Y2849321D01*
X11649862Y2861462D01*
X11640667Y2872587D01*
X11630152Y2882442D01*
X11618518Y2890926D01*
X11607800Y2896819D01*
G37*
G36*
X11454282Y2844800D02*
G01*
X11506200Y2844800D01*
X11506200Y2896819D01*
X11495481Y2890926D01*
X11483848Y2882442D01*
X11473332Y2872587D01*
X11464137Y2861462D01*
X11456416Y2849321D01*
G37*
G36*
X11468658Y2933192D02*
G01*
X11645341Y2933192D01*
X11651640Y2933903D01*
X11657126Y2935833D01*
X11662003Y2938881D01*
X11666118Y2942996D01*
X11669166Y2947873D01*
X11671096Y2953359D01*
X11671808Y2959658D01*
X11671808Y3136341D01*
X11671096Y3142640D01*
X11669166Y3148126D01*
X11666118Y3153003D01*
X11662003Y3157118D01*
X11657126Y3160166D01*
X11651640Y3162096D01*
X11645341Y3162808D01*
X11468658Y3162808D01*
X11462359Y3162096D01*
X11456873Y3160166D01*
X11451996Y3157118D01*
X11447881Y3153003D01*
X11444833Y3148126D01*
X11442903Y3142640D01*
X11442192Y3136341D01*
X11442192Y2959658D01*
X11442903Y2953359D01*
X11444833Y2947873D01*
X11447881Y2942996D01*
X11451996Y2938881D01*
X11456873Y2935833D01*
X11462359Y2933903D01*
G37*
G36*
X4850180Y2971800D02*
G01*
X4902200Y2971800D01*
X4902200Y3023717D01*
X4897678Y3021584D01*
X4885537Y3013862D01*
X4874412Y3004667D01*
X4864557Y2994152D01*
X4856073Y2982518D01*
G37*
G36*
X5003800Y2971800D02*
G01*
X5055819Y2971800D01*
X5049926Y2982518D01*
X5041442Y2994152D01*
X5031587Y3004667D01*
X5020462Y3013862D01*
X5008321Y3021584D01*
X5003800Y3023717D01*
G37*
G36*
X8004403Y3834993D02*
G01*
X8017967Y3836314D01*
X8031225Y3839514D01*
X8043976Y3844391D01*
X8055914Y3850944D01*
X8066887Y3859022D01*
X8076692Y3868521D01*
X8085175Y3879240D01*
X8092135Y3890975D01*
X8097418Y3903522D01*
X8101025Y3916679D01*
X8102853Y3930192D01*
X8102853Y3943807D01*
X8101025Y3957320D01*
X8097418Y3970477D01*
X8092135Y3983024D01*
X8085175Y3994759D01*
X8076692Y4005478D01*
X8066887Y4014978D01*
X8055914Y4023055D01*
X8043976Y4029608D01*
X8031225Y4034485D01*
X8017967Y4037685D01*
X8004403Y4039006D01*
X7990789Y4038549D01*
X7977327Y4036314D01*
X7964322Y4032250D01*
X7951927Y4026509D01*
X7940446Y4019194D01*
X7930032Y4010406D01*
X7920888Y4000246D01*
X7913166Y3989019D01*
X7907020Y3976878D01*
X7902549Y3963974D01*
X7899806Y3950614D01*
X7898892Y3937000D01*
X7899806Y3923385D01*
X7902549Y3910025D01*
X7907020Y3897122D01*
X7913166Y3884980D01*
X7920888Y3873754D01*
X7930032Y3863594D01*
X7940446Y3854805D01*
X7951927Y3847490D01*
X7964322Y3841750D01*
X7977327Y3837686D01*
X7990789Y3835450D01*
G37*
G36*
X8299450Y3845204D02*
G01*
X8309914Y3850944D01*
X8320887Y3859022D01*
X8330692Y3868521D01*
X8339175Y3879240D01*
X8346135Y3890975D01*
X8346795Y3892550D01*
X8299450Y3892550D01*
G37*
G36*
X8210550Y3845356D02*
G01*
X8210550Y3892550D01*
X8163356Y3892550D01*
X8167166Y3884980D01*
X8174888Y3873754D01*
X8184032Y3863594D01*
X8194446Y3854805D01*
X8205927Y3847490D01*
G37*
G36*
X8163356Y3981450D02*
G01*
X8210550Y3981450D01*
X8210550Y4028643D01*
X8205927Y4026509D01*
X8194446Y4019194D01*
X8184032Y4010406D01*
X8174888Y4000246D01*
X8167166Y3989019D01*
G37*
G36*
X8299450Y3981450D02*
G01*
X8346795Y3981450D01*
X8346135Y3983024D01*
X8339175Y3994759D01*
X8330692Y4005478D01*
X8320887Y4014978D01*
X8309914Y4023055D01*
X8299450Y4028795D01*
G37*
G36*
X4449521Y4142181D02*
G01*
X4467606Y4143552D01*
X4485386Y4146804D01*
X4502810Y4151884D01*
X4519574Y4158691D01*
X4535525Y4167225D01*
X4550562Y4177334D01*
X4564481Y4188917D01*
X4577130Y4201871D01*
X4588357Y4216095D01*
X4598060Y4231386D01*
X4606188Y4247540D01*
X4612538Y4264507D01*
X4617161Y4282033D01*
X4619955Y4299915D01*
X4620869Y4318000D01*
X4619955Y4336084D01*
X4617161Y4353966D01*
X4612538Y4371492D01*
X4606188Y4388459D01*
X4598060Y4404614D01*
X4588357Y4419904D01*
X4577130Y4434128D01*
X4564481Y4447082D01*
X4550562Y4458665D01*
X4535525Y4468774D01*
X4519574Y4477308D01*
X4502810Y4484116D01*
X4485386Y4489196D01*
X4467606Y4492447D01*
X4449521Y4493818D01*
X4431436Y4493361D01*
X4413453Y4491024D01*
X4395825Y4486910D01*
X4378756Y4480915D01*
X4362348Y4473244D01*
X4346803Y4463948D01*
X4332325Y4453077D01*
X4319016Y4440783D01*
X4307078Y4427169D01*
X4296562Y4412386D01*
X4287672Y4396638D01*
X4280408Y4380026D01*
X4274921Y4362805D01*
X4271213Y4345076D01*
X4269333Y4327042D01*
X4269333Y4308957D01*
X4271213Y4290923D01*
X4274921Y4273194D01*
X4280408Y4255973D01*
X4287672Y4239361D01*
X4296562Y4223613D01*
X4307078Y4208830D01*
X4319016Y4195216D01*
X4332325Y4182922D01*
X4346803Y4172051D01*
X4362348Y4162755D01*
X4378756Y4155084D01*
X4395825Y4149090D01*
X4413453Y4144975D01*
X4431436Y4142638D01*
G37*
G36*
X12704521Y4142181D02*
G01*
X12722606Y4143552D01*
X12740386Y4146804D01*
X12757810Y4151884D01*
X12774574Y4158691D01*
X12790525Y4167225D01*
X12805562Y4177334D01*
X12819481Y4188917D01*
X12832130Y4201871D01*
X12843357Y4216095D01*
X12853060Y4231386D01*
X12861188Y4247540D01*
X12867538Y4264507D01*
X12872161Y4282033D01*
X12874955Y4299915D01*
X12875869Y4318000D01*
X12874955Y4336084D01*
X12872161Y4353966D01*
X12867538Y4371492D01*
X12861188Y4388459D01*
X12853060Y4404614D01*
X12843357Y4419904D01*
X12832130Y4434128D01*
X12819481Y4447082D01*
X12805562Y4458665D01*
X12790525Y4468774D01*
X12774574Y4477308D01*
X12757810Y4484116D01*
X12740386Y4489196D01*
X12722606Y4492447D01*
X12704521Y4493818D01*
X12686436Y4493361D01*
X12668453Y4491024D01*
X12650825Y4486910D01*
X12633756Y4480915D01*
X12617348Y4473244D01*
X12601803Y4463948D01*
X12587325Y4453077D01*
X12574016Y4440783D01*
X12562078Y4427169D01*
X12551562Y4412386D01*
X12542672Y4396638D01*
X12535408Y4380026D01*
X12529921Y4362805D01*
X12526213Y4345076D01*
X12524333Y4327042D01*
X12524333Y4308957D01*
X12526213Y4290923D01*
X12529921Y4273194D01*
X12535408Y4255973D01*
X12542672Y4239361D01*
X12551562Y4223613D01*
X12562078Y4208830D01*
X12574016Y4195216D01*
X12587325Y4182922D01*
X12601803Y4172051D01*
X12617348Y4162755D01*
X12633756Y4155084D01*
X12650825Y4149090D01*
X12668453Y4144975D01*
X12686436Y4142638D01*
G37*
G36*
X8004403Y4215993D02*
G01*
X8017967Y4217314D01*
X8031225Y4220514D01*
X8043976Y4225391D01*
X8055914Y4231944D01*
X8066887Y4240022D01*
X8076692Y4249521D01*
X8085175Y4260240D01*
X8092135Y4271975D01*
X8097418Y4284522D01*
X8101025Y4297680D01*
X8102853Y4311192D01*
X8102853Y4324807D01*
X8101025Y4338320D01*
X8097418Y4351477D01*
X8092135Y4364024D01*
X8085175Y4375759D01*
X8076692Y4386478D01*
X8066887Y4395978D01*
X8055914Y4404055D01*
X8043976Y4410608D01*
X8031225Y4415485D01*
X8017967Y4418685D01*
X8004403Y4420006D01*
X7990789Y4419549D01*
X7977327Y4417314D01*
X7964322Y4413250D01*
X7951927Y4407509D01*
X7940446Y4400194D01*
X7930032Y4391406D01*
X7920888Y4381246D01*
X7913166Y4370019D01*
X7907020Y4357878D01*
X7902549Y4344974D01*
X7899806Y4331614D01*
X7898892Y4318000D01*
X7899806Y4304385D01*
X7902549Y4291025D01*
X7907020Y4278122D01*
X7913166Y4265980D01*
X7920888Y4254754D01*
X7930032Y4244594D01*
X7940446Y4235805D01*
X7951927Y4228490D01*
X7964322Y4222750D01*
X7977327Y4218686D01*
X7990789Y4216450D01*
G37*
G36*
X8299450Y4226204D02*
G01*
X8309914Y4231944D01*
X8320887Y4240022D01*
X8330692Y4249521D01*
X8339175Y4260240D01*
X8346135Y4271975D01*
X8346795Y4273550D01*
X8299450Y4273550D01*
G37*
G36*
X8210550Y4226356D02*
G01*
X8210550Y4273550D01*
X8163356Y4273550D01*
X8167166Y4265980D01*
X8174888Y4254754D01*
X8184032Y4244594D01*
X8194446Y4235805D01*
X8205927Y4228490D01*
G37*
G36*
X8163356Y4362450D02*
G01*
X8210550Y4362450D01*
X8210550Y4409643D01*
X8205927Y4407509D01*
X8194446Y4400194D01*
X8184032Y4391406D01*
X8174888Y4381246D01*
X8167166Y4370019D01*
G37*
G36*
X8299450Y4362450D02*
G01*
X8346795Y4362450D01*
X8346135Y4364024D01*
X8339175Y4375759D01*
X8330692Y4386478D01*
X8320887Y4395978D01*
X8309914Y4404055D01*
X8299450Y4409795D01*
G37*

%LPD*%
D10*
X4699000Y-381000D02*
G01*
X4445000Y-635000D01*
X4445000Y-762000D01*
X4572000Y-889000D01*
X5080000Y-889000D01*
X5588000Y-381000D01*
X5842000Y-381000D01*
X4699000Y-127000D02*
G01*
X4318000Y-508000D01*
X4318000Y-889000D01*
X4445000Y-1016000D01*
X5207000Y-1016000D01*
X5588000Y-635000D01*
X5842000Y-635000D01*
X4699000Y127000D02*
G01*
X4445000Y381000D01*
X4445000Y508000D01*
X4572000Y635000D01*
X5080000Y635000D01*
X5334000Y381000D01*
X5842000Y381000D01*
X4953000Y-127000D02*
G01*
X5842000Y-127000D01*
X4953000Y127000D02*
G01*
X5842000Y127000D01*
X11938000Y0D02*
G01*
X10922000Y-1016000D01*
X9271000Y-1016000D01*
X6959600Y1295400D01*
X5842000Y1295400D01*
X11938000Y-1016000D02*
G01*
X11430000Y-1524000D01*
X9017000Y-1524000D01*
X6858000Y635000D01*
X5842000Y635000D01*
X11938000Y-508000D02*
G01*
X11176000Y-1270000D01*
X9144000Y-1270000D01*
X6832600Y1041400D01*
X5842000Y1041400D01*
X11557000Y2286000D02*
G01*
X11277600Y2565400D01*
X10668000Y2565400D01*
X11557000Y2540000D02*
G01*
X11277600Y2819400D01*
X10668000Y2819400D01*
X4953000Y2413000D02*
G01*
X5562600Y1803400D01*
X5842000Y1803400D01*
X4953000Y2667000D02*
G01*
X5562600Y2057400D01*
X5842000Y2057400D01*
X5842000Y1549400D02*
G01*
X6375400Y1549400D01*
X7366000Y2540000D01*
X7366000Y3556000D01*
X7747000Y3937000D01*
X7747000Y4318000D02*
G01*
X7112000Y3683000D01*
X7112000Y2667000D01*
X6756400Y2311400D01*
X5842000Y2311400D01*
D11*
G01*
X12446000Y0D03*
G01*
X12192000Y0D03*
G01*
X11303000Y0D03*
G01*
X11557000Y0D03*
D12*
G01*
X11557000Y2794000D03*
G01*
X11557000Y2540000D03*
G01*
X11557000Y2286000D03*
G01*
X11557000Y2032000D03*
G36*
X11468100Y3136900D02*
G01*
X11645900Y3136900D01*
X11645900Y2959100D01*
X11468100Y2959100D01*
G37*
G01*
X4953000Y2921000D03*
G01*
X4953000Y2667000D03*
G01*
X4953000Y2413000D03*
G01*
X4953000Y2159000D03*
G01*
X11430000Y-4572000D03*
G01*
X11684000Y-4572000D03*
G01*
X11938000Y-4572000D03*
G01*
X12192000Y-4572000D03*
G01*
X4953000Y-127000D03*
G01*
X4699000Y-127000D03*
G01*
X4953000Y127000D03*
G01*
X4699000Y127000D03*
G01*
X4953000Y381000D03*
G01*
X4699000Y381000D03*
D13*
G01*
X4953000Y-381000D03*
D12*
G01*
X4699000Y-381000D03*
D14*
G01*
X11430000Y-4191000D03*
G01*
X11430000Y-3175000D03*
G01*
X11430000Y-2921000D03*
G01*
X11430000Y-1905000D03*
G01*
X11938000Y-4191000D03*
G01*
X11938000Y-3175000D03*
G01*
X11938000Y-2921000D03*
G01*
X11938000Y-1905000D03*
G01*
X12446000Y-4191000D03*
G01*
X12446000Y-3175000D03*
G01*
X12446000Y-2921000D03*
G01*
X12446000Y-1905000D03*
D11*
G01*
X8255000Y4318000D03*
G01*
X8001000Y4318000D03*
G01*
X7747000Y4318000D03*
G01*
X8255000Y3937000D03*
G01*
X8001000Y3937000D03*
G01*
X7747000Y3937000D03*
G01*
X11938000Y0D03*
G01*
X11938000Y-254000D03*
G01*
X11938000Y-508000D03*
G01*
X11938000Y-762000D03*
G01*
X11938000Y-1016000D03*
G01*
X11938000Y-1270000D03*
D12*
X10579100Y-254000D02*
G01*
X10756900Y-254000D01*
X10579100Y0D02*
G01*
X10756900Y0D01*
X10579100Y254000D02*
G01*
X10756900Y254000D01*
X10579100Y508000D02*
G01*
X10756900Y508000D01*
X10579100Y762000D02*
G01*
X10756900Y762000D01*
X10579100Y1041400D02*
G01*
X10756900Y1041400D01*
X10579100Y1549400D02*
G01*
X10756900Y1549400D01*
X10579100Y1803400D02*
G01*
X10756900Y1803400D01*
X10579100Y2057400D02*
G01*
X10756900Y2057400D01*
X10579100Y2311400D02*
G01*
X10756900Y2311400D01*
X10579100Y2565400D02*
G01*
X10756900Y2565400D01*
X10579100Y2819400D02*
G01*
X10756900Y2819400D01*
X5753100Y2819400D02*
G01*
X5930900Y2819400D01*
X5753100Y2565400D02*
G01*
X5930900Y2565400D01*
X5753100Y2311400D02*
G01*
X5930900Y2311400D01*
X5753100Y2057400D02*
G01*
X5930900Y2057400D01*
X5753100Y1803400D02*
G01*
X5930900Y1803400D01*
X5753100Y1549400D02*
G01*
X5930900Y1549400D01*
X5753100Y1295400D02*
G01*
X5930900Y1295400D01*
X5753100Y1041400D02*
G01*
X5930900Y1041400D01*
X5753100Y635000D02*
G01*
X5930900Y635000D01*
X5753100Y381000D02*
G01*
X5930900Y381000D01*
X5753100Y127000D02*
G01*
X5930900Y127000D01*
X5753100Y-127000D02*
G01*
X5930900Y-127000D01*
X5753100Y-381000D02*
G01*
X5930900Y-381000D01*
X5753100Y-635000D02*
G01*
X5930900Y-635000D01*
X5753100Y-889000D02*
G01*
X5930900Y-889000D01*
X5753100Y-1143000D02*
G01*
X5930900Y-1143000D01*
X5753100Y-1397000D02*
G01*
X5930900Y-1397000D01*
X5753100Y-1651000D02*
G01*
X5930900Y-1651000D01*
X10579100Y-508000D02*
G01*
X10756900Y-508000D01*
X10579100Y-762000D02*
G01*
X10756900Y-762000D01*
M02*
