G04 Layer: BottomSolderMaskLayer*
G04 EasyEDA v6.4.25, 2021-11-05T19:22:01+05:30*
G04 61bcb772547544e299bc8c975d1ae397,5cb069c284564e3e9aa1642b0c72b42d,10*
G04 Gerber Generator version 0.2*
G04 Scale: 100 percent, Rotated: No, Reflected: No *
G04 Dimensions in millimeters *
G04 leading zeros omitted , absolute positions ,4 integer and 5 decimal *
%FSLAX45Y45*%
%MOMM*%

%ADD18C,1.9812*%
%ADD19C,1.7272*%
%ADD21C,1.9812*%

%LPD*%
D18*
X10579100Y-254000D02*
G01*
X10756900Y-254000D01*
X10579100Y0D02*
G01*
X10756900Y0D01*
X10579100Y254000D02*
G01*
X10756900Y254000D01*
X10579100Y508000D02*
G01*
X10756900Y508000D01*
X10579100Y762000D02*
G01*
X10756900Y762000D01*
X10579100Y1041400D02*
G01*
X10756900Y1041400D01*
X10579100Y1549400D02*
G01*
X10756900Y1549400D01*
X10579100Y1803400D02*
G01*
X10756900Y1803400D01*
X10579100Y2057400D02*
G01*
X10756900Y2057400D01*
X10579100Y2311400D02*
G01*
X10756900Y2311400D01*
X10579100Y2565400D02*
G01*
X10756900Y2565400D01*
X10579100Y2819400D02*
G01*
X10756900Y2819400D01*
X5753100Y2819400D02*
G01*
X5930900Y2819400D01*
X5753100Y2565400D02*
G01*
X5930900Y2565400D01*
X5753100Y2311400D02*
G01*
X5930900Y2311400D01*
X5753100Y2057400D02*
G01*
X5930900Y2057400D01*
X5753100Y1803400D02*
G01*
X5930900Y1803400D01*
X5753100Y1549400D02*
G01*
X5930900Y1549400D01*
X5753100Y1295400D02*
G01*
X5930900Y1295400D01*
X5753100Y1041400D02*
G01*
X5930900Y1041400D01*
X5753100Y635000D02*
G01*
X5930900Y635000D01*
X5753100Y381000D02*
G01*
X5930900Y381000D01*
X5753100Y127000D02*
G01*
X5930900Y127000D01*
X5753100Y-127000D02*
G01*
X5930900Y-127000D01*
X5753100Y-381000D02*
G01*
X5930900Y-381000D01*
X5753100Y-635000D02*
G01*
X5930900Y-635000D01*
X5753100Y-889000D02*
G01*
X5930900Y-889000D01*
X5753100Y-1143000D02*
G01*
X5930900Y-1143000D01*
X5753100Y-1397000D02*
G01*
X5930900Y-1397000D01*
X5753100Y-1651000D02*
G01*
X5930900Y-1651000D01*
X10579100Y-508000D02*
G01*
X10756900Y-508000D01*
X10579100Y-762000D02*
G01*
X10756900Y-762000D01*
D19*
G01*
X12446000Y0D03*
G01*
X12192000Y0D03*
G01*
X11303000Y0D03*
G01*
X11557000Y0D03*
D18*
G01*
X11557000Y2794000D03*
G01*
X11557000Y2540000D03*
G01*
X11557000Y2286000D03*
G01*
X11557000Y2032000D03*
G36*
X11457940Y2948939D02*
G01*
X11457940Y3147060D01*
X11656059Y3147060D01*
X11656059Y2948939D01*
G37*
G01*
X4953000Y2921000D03*
G01*
X4953000Y2667000D03*
G01*
X4953000Y2413000D03*
G01*
X4953000Y2159000D03*
G01*
X11430000Y-4572000D03*
G01*
X11684000Y-4572000D03*
G01*
X11938000Y-4572000D03*
G01*
X12192000Y-4572000D03*
G01*
X4953000Y-127000D03*
G01*
X4699000Y-127000D03*
G01*
X4953000Y127000D03*
G01*
X4699000Y127000D03*
G01*
X4953000Y381000D03*
G01*
X4699000Y381000D03*
G36*
X4853940Y-480060D02*
G01*
X4853940Y-281939D01*
X5052059Y-281939D01*
X5052059Y-480060D01*
G37*
G01*
X4699000Y-381000D03*
D21*
G01*
X11430000Y-4191000D03*
G01*
X11430000Y-3175000D03*
G01*
X11430000Y-2921000D03*
G01*
X11430000Y-1905000D03*
G01*
X11938000Y-4191000D03*
G01*
X11938000Y-3175000D03*
G01*
X11938000Y-2921000D03*
G01*
X11938000Y-1905000D03*
G01*
X12446000Y-4191000D03*
G01*
X12446000Y-3175000D03*
G01*
X12446000Y-2921000D03*
G01*
X12446000Y-1905000D03*
D19*
G01*
X8255000Y4318000D03*
G01*
X8001000Y4318000D03*
G01*
X7747000Y4318000D03*
G01*
X8255000Y3937000D03*
G01*
X8001000Y3937000D03*
G01*
X7747000Y3937000D03*
G01*
X11938000Y0D03*
G01*
X11938000Y-254000D03*
G01*
X11938000Y-508000D03*
G01*
X11938000Y-762000D03*
G01*
X11938000Y-1016000D03*
G01*
X11938000Y-1270000D03*
M02*
